<svg width="25" height="25" viewBox="0 0 25 25" fill="none" xmlns="http://www.w3.org/2000/svg">
<path d="M0.249798 6.71317L1.50221 5.46084C1.6691 5.2936 1.86134 5.21025 2.07867 5.21025C2.29548 5.21025 2.48764 5.2936 2.65452 5.46084L12.4999 15.3057L22.3448 5.4611C22.5117 5.29387 22.7039 5.21051 22.921 5.21051C23.1381 5.21051 23.3303 5.29387 23.4972 5.4611L24.7494 6.71352C24.9166 6.8804 25 7.07256 25 7.28972C25 7.5067 24.9164 7.69885 24.7494 7.86574L13.0761 19.5393C12.9092 19.7063 12.7169 19.7898 12.4999 19.7898C12.2828 19.7898 12.0909 19.7063 11.9241 19.5393L0.249798 7.86574C0.0829144 7.69877 0 7.50661 0 7.28972C0 7.07256 0.0829144 6.8804 0.249798 6.71317Z" fill="currentColor"/>
</svg>
