<svg width="28" height="16" viewBox="0 0 28 16" fill="none" xmlns="http://www.w3.org/2000/svg">
<path d="M1 7.00024C0.447715 7.00024 0 7.44796 0 8.00024C0 8.55253 0.447715 9.00024 1 9.00024V7.00024ZM27.7071 8.70735C28.0976 8.31683 28.0976 7.68366 27.7071 7.29314L21.3431 0.929176C20.9526 0.538652 20.3195 0.538652 19.9289 0.929176C19.5384 1.3197 19.5384 1.95287 19.9289 2.34339L25.5858 8.00024L19.9289 13.6571C19.5384 14.0476 19.5384 14.6808 19.9289 15.0713C20.3195 15.4618 20.9526 15.4618 21.3431 15.0713L27.7071 8.70735ZM1 9.00024H27V7.00024H1V9.00024Z" fill="currentColor"/>
</svg>
