<svg width="30" height="30" viewBox="0 0 30 30" fill="none" xmlns="http://www.w3.org/2000/svg">
<path fill-rule="evenodd" clip-rule="evenodd" d="M5.37612 23.79L4.60324 27.3968L8.86358 26.4838L9.47415 26.771C11.1487 27.5587 13.02 28 15 28C22.1797 28 28 22.1797 28 15C28 7.8203 22.1797 2 15 2C7.8203 2 2 7.8203 2 15C2 18.043 3.04308 20.8369 4.79264 23.0514L5.37612 23.79ZM2 30L3.2233 24.2913C1.2048 21.7363 0 18.5089 0 15C0 6.71573 6.71573 0 15 0C23.2843 0 30 6.71573 30 15C30 23.2843 23.2843 30 15 30C12.7197 30 10.5582 29.4912 8.62286 28.5808L2 30Z" fill="currentColor"/>
<path d="M20.4317 14.8681C20.0901 14.5265 19.5364 14.5265 19.1948 14.8679L17.826 16.2368L13.7635 12.1742L15.1323 10.8053C15.4739 10.4639 15.4739 9.90995 15.1323 9.56852L11.8205 6.25624C11.6565 6.09202 11.434 6 11.2021 6C10.9703 6 10.7478 6.09202 10.5838 6.25624L6.94012 9.8997C5.68655 11.1538 5.68655 13.1944 6.94058 14.4488L15.5516 23.0607C16.1574 23.6665 16.9651 24 17.826 24C18.6869 24 19.4945 23.6665 20.1004 23.0607L23.7438 19.4172C23.9078 19.2532 24 19.0309 24 18.7988C24 18.5667 23.9078 18.3444 23.7438 18.1804L20.4317 14.8681ZM18.8636 21.8236C18.5883 22.099 18.2198 22.2507 17.826 22.2507C17.4322 22.2507 17.0637 22.099 16.7883 21.8239L8.17752 13.212C7.6054 12.6398 7.60517 11.7087 8.17707 11.1365L11.2021 8.11146L13.277 10.1869L11.9084 11.5558C11.7442 11.7198 11.6522 11.9424 11.6522 12.1742C11.6522 12.4063 11.7442 12.6287 11.9084 12.7927L17.2076 18.092C17.549 18.4337 18.1027 18.4337 18.4443 18.0922L19.8132 16.7233L21.8885 18.7988L18.8636 21.8236Z" fill="currentColor"/>
</svg>
