<svg width="50" height="62" viewBox="0 0 50 62" fill="none" xmlns="http://www.w3.org/2000/svg">
<path d="M38.1003 18.3326C32.5137 17.2375 26.6845 16.1032 21.5403 13.602C19.6113 12.6641 20.6313 9.7032 22.7229 10.1559C28.1688 11.3039 33.4696 13.2243 38.8705 14.4218C41.4019 15.0027 40.6259 18.8177 38.1003 18.3326Z" fill="#E62854"/>
<path d="M34.8903 27.6576C26.333 29.7599 17.5805 31.326 8.86035 32.2933C6.85191 32.5339 6.27419 29.2272 8.32317 28.7542C16.8805 26.652 25.6309 24.994 34.349 23.9351C36.4935 23.6386 37.0754 27.1287 34.8903 27.6576Z" fill="#E62854"/>
<path d="M39.6141 40.7029C35.5292 47.4696 25.602 50.8785 18.12 51.5942C15.838 51.8398 15.3649 48.4437 17.4263 47.7196C21.2157 46.4323 24.9486 45.0011 28.4608 43.0913C31.5013 41.4949 34.2648 39.276 37.4234 38.0649C38.8643 37.6118 40.4239 39.3987 39.6141 40.7029Z" fill="#E62854"/>
</svg>
