<svg width="160" height="32" viewBox="0 0 160 32" fill="none" xmlns="http://www.w3.org/2000/svg">
<path d="M111.058 0.303394C72.8691 -1.42388 36.8698 4.27509 2.09758 16.0963C-0.842832 17.0911 -0.551768 20.5753 2.09758 21.6394C31.5017 33.3715 69.8824 33.1884 102.214 30.4837C118.351 29.1375 153.441 29.3206 159.811 15.6954C160.314 14.6214 159.778 13.0748 158.611 12.325C148.354 5.74253 130.361 8.378 118.077 8.69228C92.2877 9.35547 66.4756 10.4988 40.8752 12.9882C36.582 13.4064 36.2546 18.2343 40.8752 18.1997C71.8769 17.9473 102.789 15.4925 133.791 15.4405C135.812 15.4405 145.04 14.4284 146.932 15.6583C147.97 16.3314 96.9646 24.2402 96.9282 24.2402C67.5936 26.3189 32.9702 26.502 6.43707 16.0963V21.6394C39.8102 9.94197 74.2914 4.89625 111.058 4.93832C115.083 4.93832 115.014 0.486514 111.058 0.303394Z" fill="#FEFEFE"/>
</svg>
