<svg width="1920" height="1037" viewBox="0 0 1920 1037" fill="none" xmlns="http://www.w3.org/2000/svg">
<path d="M160.5 949.603C-271.496 843.463 -731.5 838.638 -856 918.612L-887 1037H2959L3299 362.789L2831 6.40114C2554.5 -25.589 1959 67.8811 1735.5 163.351C1687.42 183.887 1535.5 263.321 1496 389.78C1466.6 483.894 1425 595.715 1291 654.196C1157 712.678 1042.5 656.696 1005 654.196C967.5 651.697 879.569 640.213 765.5 783.156C694.5 872.127 634 935.607 531 960.599C313.659 1013.34 278 978.472 160.5 949.603Z" fill="#FFF8BA"/>
<path d="M1125.04 765.84C1136.48 772.584 1154.68 768.029 1162.28 756.968C1166.4 750.98 1163.92 737.536 1154.3 741.637C1144.25 745.914 1154.23 755.568 1161.61 754.854C1178.45 753.219 1180.34 729.813 1179.25 717.213C1179.12 715.621 1176.67 715.571 1176.73 717.213C1176.94 723.454 1176.78 729.767 1175.11 735.839C1172.88 744 1168.29 748.327 1162.14 753.92C1152.4 762.785 1139.44 771.112 1126.18 763.909C1124.9 763.213 1123.8 765.107 1125.05 765.837L1125.04 765.84Z" fill="#FEFEFE"/>
</svg>
