<svg width="211" height="152" viewBox="0 0 211 152" fill="none" xmlns="http://www.w3.org/2000/svg">
<path d="M196.13 85.1169C136.871 123.602 56.4981 118.776 5.58145 67.9656C3.60945 65.9852 6.06091 62.5094 8.31701 64.4267C60.9575 109.121 134.119 118.732 193.891 82.1704C195.895 80.9521 198.156 83.8133 196.13 85.1169Z" fill="#FEFEFE"/>
<path d="M154.008 77.7457C170.983 80.2434 188.066 79.7972 203.81 72.2401C206.823 70.7854 210.785 74.4439 209.133 77.5664C198.493 97.5442 185.234 114.393 167.499 128.419C165.474 130.011 162.64 127.215 164.31 125.192C177.801 108.667 190.745 91.551 202.146 73.5088L206.934 79.7661C188.765 84.9708 171.305 87.2776 152.802 82.3597C150.161 81.6638 151.368 77.3509 154.008 77.7457Z" fill="#FEFEFE"/>
</svg>
