<svg width="24" height="34" viewBox="0 0 24 34" fill="none" xmlns="http://www.w3.org/2000/svg">
<path d="M22.6192 4.70534C16.3268 1.04501 8.67467 -0.49732 1.43816 0.139928C0.0189738 0.267173 0.0405233 2.182 1.43816 2.33387C8.48997 3.11581 15.0605 4.57502 21.8835 6.45392C22.9261 6.7392 23.5633 5.25126 22.6192 4.70534Z" fill="#E30236"/>
<path d="M20.0206 13.109C13.7507 13.7678 7.46958 14.6657 1.14122 14.3394C-0.143537 14.2747 -0.476038 16.4286 0.834375 16.6308C7.43672 17.6374 13.9601 17.8581 20.3644 15.6426C21.6461 15.2013 21.5588 12.9499 20.0206 13.109Z" fill="#E30236"/>
<path d="M19.1302 24.2357C15.1733 28.5189 9.55096 30.7447 3.82393 31.2085C2.34317 31.3275 2.40474 33.2793 3.82393 33.4712C10.7926 34.405 16.8388 31.0925 20.9321 25.6262C21.7182 24.5795 20.0055 23.2875 19.1302 24.2357Z" fill="#E30236"/>
</svg>
