<svg width="1920" height="224" viewBox="0 0 1920 224" fill="none" xmlns="http://www.w3.org/2000/svg">
<path d="M0 20.0479C16.1039 27.3833 35.2907 39.486 67.3679 39.785C118.622 40.2588 125.361 9.87223 177.735 3.74044C243.639 -3.96485 254.005 41.6803 323.885 39.785C390.548 37.9796 399.733 -4.06876 460.901 0.321045C517.628 4.39286 518.076 41.2381 576.6 50.1507C650.848 61.454 671.879 5.827 751.673 15.9166C807.993 23.0404 810.578 52.4033 858.239 50.1507C906.144 47.8868 932.286 16.8579 957 4.72606V117H0V20.0479H0Z" fill="#BB9AC8"/>
<rect x="-33" y="114" width="1953" height="110" fill="#BB9AC8"/>
<path d="M1037 20.0479C1053.1 27.3833 1072.29 39.486 1104.37 39.785C1155.62 40.2588 1162.36 9.87223 1214.74 3.74044C1280.64 -3.96485 1291.01 41.6803 1360.88 39.785C1427.55 37.9796 1436.73 -4.06876 1497.9 0.321045C1554.63 4.39286 1555.08 41.2381 1613.6 50.1507C1687.85 61.454 1708.88 5.827 1788.67 15.9166C1844.99 23.0404 1847.58 52.4033 1895.24 50.1507C1943.14 47.8868 1969.29 16.8579 1994 4.72606V117H1037V20.0479H1037Z" fill="#BB9AC8"/>
<path d="M1439 20.0479C1422.9 27.3833 1403.71 39.486 1371.63 39.785C1320.38 40.2588 1313.64 9.87223 1261.26 3.74044C1195.36 -3.96485 1184.99 41.6803 1115.12 39.785C1048.45 37.9796 1039.27 -4.06876 978.099 0.321045C921.372 4.39286 920.924 41.2381 862.4 50.1507C788.152 61.454 767.121 5.827 687.327 15.9166C631.007 23.0404 628.422 52.4033 580.761 50.1507C532.856 47.8868 506.714 16.8579 482 4.72606V117H1439V20.0479H1439Z" fill="#BB9AC8"/>
<path d="M2476 20.0479C2459.9 27.3833 2440.71 39.486 2408.63 39.785C2357.38 40.2588 2350.64 9.87223 2298.26 3.74044C2232.36 -3.96485 2221.99 41.6803 2152.12 39.785C2085.45 37.9796 2076.27 -4.06876 2015.1 0.321045C1958.37 4.39286 1957.92 41.2381 1899.4 50.1507C1825.15 61.454 1804.12 5.827 1724.33 15.9166C1668.01 23.0404 1665.42 52.4033 1617.76 50.1507C1569.86 47.8868 1543.71 16.8579 1519 4.72606V117H2476V20.0479V20.0479Z" fill="#BB9AC8"/>
</svg>
