<svg width="67" height="20" viewBox="0 0 67 20" fill="none" xmlns="http://www.w3.org/2000/svg">
<path d="M23.572 14H22.084L25.636 5.576H26.932L30.484 14H28.912L28.036 11.852H24.448L23.572 14ZM27.472 10.472L26.248 7.484L25.012 10.472H27.472ZM33.2181 10.856V14H31.7421V5.6C32.1581 5.6 32.6101 5.596 33.0981 5.588C33.5861 5.58 33.9861 5.576 34.2981 5.576C36.3301 5.576 37.3461 6.44 37.3461 8.168C37.3461 8.808 37.1821 9.336 36.8541 9.752C36.5261 10.152 36.1501 10.424 35.7261 10.568L38.3541 14H36.5661L34.2501 10.856H33.2181ZM34.2261 6.956C34.1861 6.956 34.1221 6.96 34.0341 6.968C33.9461 6.968 33.8221 6.972 33.6621 6.98C33.5021 6.98 33.3541 6.98 33.2181 6.98V9.476H34.1781C34.6501 9.476 35.0341 9.36 35.3301 9.128C35.6341 8.896 35.7861 8.58 35.7861 8.18C35.7861 7.364 35.2661 6.956 34.2261 6.956ZM48.4924 5.6H49.9084L47.5084 14H46.1284L44.1004 7.928L42.1084 14H40.7164L38.2084 5.6H39.8644L41.5564 11.588L43.4284 5.6H44.8924L46.8124 11.6L48.4924 5.6ZM50.3017 9.8C50.3017 8.576 50.7097 7.548 51.5257 6.716C52.3577 5.884 53.4057 5.468 54.6697 5.468C55.9337 5.468 56.9777 5.868 57.8017 6.668C58.6337 7.476 59.0497 8.52 59.0497 9.8C59.0497 11.056 58.6337 12.092 57.8017 12.908C56.9697 13.724 55.9257 14.132 54.6697 14.132C53.4057 14.132 52.3617 13.732 51.5377 12.932C50.7137 12.132 50.3017 11.088 50.3017 9.8ZM51.8617 9.8C51.8617 10.648 52.1297 11.352 52.6657 11.912C53.2017 12.472 53.8697 12.752 54.6697 12.752C55.5337 12.752 56.2177 12.472 56.7217 11.912C57.2337 11.352 57.4897 10.648 57.4897 9.8C57.4897 8.944 57.2177 8.236 56.6737 7.676C56.1297 7.124 55.4617 6.848 54.6697 6.848C53.8617 6.848 53.1897 7.124 52.6537 7.676C52.1257 8.228 51.8617 8.936 51.8617 9.8ZM62.051 6.98H59.327V5.6H66.251V6.98H63.527V14H62.051V6.98Z" fill="white"/>
<path fill-rule="evenodd" clip-rule="evenodd" d="M5.16296 17.1517L5.66667 16.2229C4.65926 15.8514 3.77778 15.356 2.95926 14.6749L0 20L5.16296 17.1517ZM7.05185 13.7461L8.5 11.1455V5.07739L4.40741 12.1981L4.47037 12.2601C5.16296 13.0031 6.10741 13.4984 7.05185 13.7461Z" fill="white"/>
<path fill-rule="evenodd" clip-rule="evenodd" d="M11.7741 17.1516H5.16296L0 19.9999H17L11.7741 17.1516Z" fill="white"/>
<path d="M14.1667 8.35913C14.1667 6.81115 13.537 5.44892 12.5296 4.39629C11.5222 3.40557 10.0741 2.78638 8.5 2.78638C6.92593 2.78638 5.54074 3.40557 4.47037 4.39629C3.46296 5.44892 2.83333 6.81115 2.83333 8.35913C2.83333 9.90712 3.46296 11.2694 4.47037 12.322C5.47778 13.3127 6.92593 13.9319 8.5 13.9319C10.0741 13.9319 11.4593 13.3127 12.5296 12.322C13.537 11.2694 14.1667 9.90712 14.1667 8.35913ZM14.4815 2.47678C15.9926 3.96285 17 6.06811 17 8.35913C17 10.6502 16.0556 12.7554 14.4815 14.2415C12.9074 15.7276 10.8296 16.7183 8.5 16.7183C6.17037 16.7183 4.02963 15.7895 2.51852 14.2415C1.00741 12.6935 0 10.6502 0 8.35913C0 6.06811 0.944444 3.96285 2.51852 2.47678C4.09259 0.990712 6.17037 0 8.5 0C10.8296 0 12.9704 0.928793 14.4815 2.47678Z" fill="white"/>
<path fill-rule="evenodd" clip-rule="evenodd" d="M8.5 11.1455L11.7741 17.1517L17 20L8.5 5.07739V11.1455Z" fill="white"/>
</svg>
