<svg width="76" height="76" viewBox="0 0 76 76" fill="none" xmlns="http://www.w3.org/2000/svg">
<path fill-rule="evenodd" clip-rule="evenodd" d="M16.6185 20.0908H44.5299C45.3873 20.0908 46.0878 20.806 46.0878 21.6796V44.0582V49.651V51.2397H44.5299H38.3508H30.3998C29.9425 48.9226 27.8818 47.1741 25.4064 47.1741C22.9324 47.1741 20.8703 48.9226 20.413 51.2397H16.6185C15.7611 51.2397 15.0605 50.5245 15.0605 49.651V47.0891H18.6543C18.8228 47.0891 18.9591 46.9484 18.9591 46.7784V43.0264C18.9591 42.8549 18.8213 42.7157 18.6543 42.7157H15.0605V21.681C15.0605 20.8075 15.7611 20.0923 16.6185 20.0923V20.0908Z" fill="#B192C3"/>
<path fill-rule="evenodd" clip-rule="evenodd" d="M46.0903 30.3105H55.0277C56.2413 30.3105 56.6985 31.4493 57.2335 32.5603L61.859 42.1865L58.1583 34.4846H50.0812C49.8892 34.4846 49.7324 34.6444 49.7324 34.8393V42.7713C49.7324 42.9662 49.8892 43.126 50.0812 43.126H61.9337V48.9973C61.9337 50.2343 60.9415 51.247 59.728 51.247H58.8603C58.4206 48.9079 56.3482 47.1374 53.8581 47.1374C51.368 47.1374 49.2957 48.9079 48.856 51.247H48.2917H46.0889V30.312L46.0903 30.3105Z" fill="#61CDF5"/>
<path d="M16.4603 19.2173H44.3716C45.0341 19.2173 45.635 19.4928 46.0703 19.9369C46.5026 20.3781 46.7709 20.9834 46.7709 21.6488V51.2104C46.7709 51.675 46.3942 52.0517 45.9296 52.0517H30.2401C29.818 52.0517 29.4692 51.741 29.4076 51.3365C29.2097 50.3779 28.6821 49.5381 27.9478 48.9402C27.2165 48.3437 26.2756 47.986 25.2482 47.986C24.2207 47.986 23.2798 48.3437 22.5485 48.9402C21.8039 49.5455 21.2734 50.3985 21.0814 51.3702C21.0037 51.7718 20.6505 52.0502 20.2562 52.0502L16.4617 52.0517C15.7993 52.0517 15.1984 51.7761 14.7631 51.3321C14.3307 50.8909 14.0625 50.2841 14.0625 49.6202V21.6488C14.0625 20.9848 14.3322 20.3781 14.7631 19.9369C15.1984 19.4928 15.8007 19.2173 16.4617 19.2173H16.4603ZM44.3716 20.9013H16.4603C16.2653 20.9013 16.088 20.9834 15.959 21.1153C15.8271 21.2501 15.745 21.4392 15.745 21.6488V49.6202C15.745 49.8298 15.8271 50.0189 15.959 50.1537C16.088 50.2856 16.2668 50.3677 16.4603 50.3677H19.607C19.9602 49.2875 20.6226 48.3422 21.4888 47.6372C22.5133 46.8033 23.8236 46.302 25.2482 46.302C26.6727 46.302 27.983 46.8033 29.0075 47.6372C29.8737 48.3422 30.5347 49.2861 30.8893 50.3677H45.0883V21.6488C45.0883 21.4392 45.0062 21.2501 44.8743 21.1153C44.7454 20.9834 44.5666 20.9013 44.3731 20.9013H44.3716Z" fill="#201E1E"/>
<path d="M45.9336 29.4386H54.8709C56.5359 29.4386 57.1221 30.6727 57.7333 31.9565C59.1813 35.2615 60.9606 38.675 62.5332 41.9506C62.5889 42.0679 62.6153 42.191 62.6153 42.3127H62.6182V48.9666C62.6182 49.8123 62.2767 50.5832 61.7271 51.1445C61.1746 51.7088 60.411 52.0591 59.5712 52.0591H58.7035C58.2727 52.0591 57.918 51.7366 57.8681 51.3189C57.6747 50.3589 57.15 49.5162 56.4172 48.9138C55.6844 48.3115 54.7376 47.9494 53.7028 47.9494C52.6681 47.9494 51.7213 48.3115 50.9885 48.9138C50.2425 49.5265 49.7105 50.3897 49.5273 51.3717C49.4525 51.7747 49.0978 52.0576 48.7021 52.0561L45.935 52.0576C45.4704 52.0576 45.0938 51.6809 45.0938 51.2163V30.2813C45.0938 29.8167 45.4704 29.4401 45.935 29.4401L45.9336 29.4386ZM54.8709 31.1226H46.7763V50.3736H48.0484C48.3958 49.2832 49.0553 48.329 49.9215 47.6167C50.9489 46.7725 52.268 46.264 53.7014 46.264C55.1347 46.264 56.4538 46.7725 57.4812 47.6167C58.3489 48.329 59.0084 49.2832 59.3543 50.3736H59.5697C59.942 50.3736 60.282 50.2182 60.5282 49.9661C60.7774 49.7126 60.9328 49.3579 60.9328 48.9666V42.4973C59.3748 39.2539 57.8491 35.8639 56.212 32.6747C55.8353 31.8833 55.4748 31.1226 54.868 31.1226H54.8709Z" fill="#201E1E"/>
<path d="M58.7895 34.1594L62.5327 41.9506C62.5884 42.0679 62.6148 42.191 62.6148 42.3126H62.6178V43.0953C62.6178 43.5599 62.2411 43.9365 61.7765 43.9365H49.924C49.5942 43.9365 49.2967 43.8002 49.0798 43.5789L49.0768 43.576C48.8658 43.3605 48.7354 43.063 48.7354 42.7391V34.8072C48.7354 34.4833 48.8673 34.1857 49.0768 33.9703L49.0812 33.9659C49.2982 33.746 49.5957 33.6097 49.924 33.6097H58.001C58.363 33.6097 58.6708 33.8384 58.7895 34.1579V34.1594ZM60.818 42.254L57.4749 35.2952H50.4179V42.254H60.818Z" fill="#201E1E"/>
<path d="M24.3588 27.0539C24.7749 27.0539 25.1121 26.7101 25.1121 26.2859C25.1121 25.8618 24.7749 25.5179 24.3588 25.5179C23.9427 25.5179 23.6055 25.8618 23.6055 26.2859C23.6055 26.7101 23.9427 27.0539 24.3588 27.0539Z" fill="#201E1E"/>
<path d="M28.1103 27.1698C27.6677 27.1698 27.3086 26.7917 27.3086 26.3256C27.3086 25.8596 27.6677 25.4814 28.1103 25.4814H40.3746C40.8173 25.4814 41.1763 25.8596 41.1763 26.3256C41.1763 26.7917 40.8173 27.1698 40.3746 27.1698H28.1103Z" fill="#201E1E"/>
<path d="M31.8349 31.2837C31.3923 31.2837 31.0332 30.9056 31.0332 30.4395C31.0332 29.9735 31.3923 29.5953 31.8349 29.5953H40.3751C40.8177 29.5953 41.1768 29.9735 41.1768 30.4395C41.1768 30.9056 40.8177 31.2837 40.3751 31.2837H31.8349Z" fill="#201E1E"/>
<path d="M25.2484 52.9487C25.6645 52.9487 26.0018 52.6049 26.0018 52.1807C26.0018 51.7566 25.6645 51.4127 25.2484 51.4127C24.8324 51.4127 24.4951 51.7566 24.4951 52.1807C24.4951 52.6049 24.8324 52.9487 25.2484 52.9487Z" fill="#201E1E"/>
<path d="M53.7016 52.9106C54.1176 52.9106 54.4549 52.5668 54.4549 52.1426C54.4549 51.7185 54.1176 51.3746 53.7016 51.3746C53.2855 51.3746 52.9482 51.7185 52.9482 52.1426C52.9482 52.5668 53.2855 52.9106 53.7016 52.9106Z" fill="#201E1E"/>
<path d="M25.2229 46.2435C26.8571 46.2435 28.3388 46.9016 29.4131 47.9656C30.4889 49.0297 31.1528 50.4997 31.1528 52.1222C31.1528 53.7446 30.4874 55.2146 29.4131 56.2787C28.3388 57.3427 26.8571 58.0008 25.2229 58.0008C23.5902 58.0008 22.107 57.3427 21.0327 56.2787C19.9569 55.2146 19.293 53.7446 19.293 52.1222C19.293 50.4997 19.9584 49.0297 21.0327 47.9656C22.107 46.9016 23.5887 46.2435 25.2229 46.2435ZM28.2289 49.1557C27.4624 48.3965 26.3998 47.9275 25.2229 47.9275C24.046 47.9275 22.9834 48.3965 22.2169 49.1557C21.4504 49.9135 20.977 50.9628 20.977 52.1222C20.977 53.2815 21.4504 54.3294 22.2169 55.0886C22.9834 55.8478 24.046 56.3168 25.2229 56.3168C26.3998 56.3168 27.4624 55.8478 28.2289 55.0886C28.9954 54.3308 29.4688 53.2815 29.4688 52.1222C29.4688 50.9628 28.9954 49.9149 28.2289 49.1557Z" fill="#201E1E"/>
<path d="M53.677 46.2039C55.3112 46.2039 56.7929 46.8619 57.8672 47.926C58.943 48.99 59.6069 50.46 59.6069 52.0825C59.6069 53.7049 58.9415 55.1749 57.8672 56.239C56.7929 57.303 55.3112 57.9611 53.677 57.9611C52.0443 57.9611 50.5611 57.303 49.4868 56.239C48.411 55.1749 47.7471 53.7049 47.7471 52.0825C47.7471 50.46 48.4125 48.99 49.4868 47.926C50.5611 46.8619 52.0428 46.2039 53.677 46.2039ZM56.683 49.1161C55.9165 48.3569 54.8539 47.8879 53.677 47.8879C52.5001 47.8879 51.4375 48.3569 50.671 49.1161C49.9045 49.8738 49.4311 50.9232 49.4311 52.0825C49.4311 53.2418 49.9045 54.2897 50.671 55.0489C51.4375 55.8081 52.5001 56.2771 53.677 56.2771C54.8539 56.2771 55.9165 55.8081 56.683 55.0489C57.4495 54.2912 57.9229 53.2418 57.9229 52.0825C57.9229 50.9232 57.4495 49.8752 56.683 49.1161Z" fill="#201E1E"/>
<path d="M14.0615 47.0583V42.6834C14.0615 42.2188 14.4382 41.8422 14.9028 41.8422H18.4965C18.8145 41.8422 19.1018 41.9741 19.3114 42.1866C19.5166 42.3962 19.6441 42.682 19.6441 42.9956V46.7476C19.6441 47.0598 19.5166 47.3471 19.3114 47.5566C19.1033 47.7692 18.8145 47.9011 18.4965 47.9011H14.9028C14.4382 47.9011 14.0615 47.5244 14.0615 47.0598V47.0583ZM15.7455 43.5247V46.2156H17.9616V43.5247H15.7455Z" fill="#201E1E"/>
<path d="M38.0002 0C48.4927 0 57.9928 4.25324 64.8696 11.13C71.7463 18.0067 75.9995 27.5069 75.9995 37.9993C75.9995 48.4917 71.7463 57.9919 64.8696 64.8686C57.9928 71.7453 48.4927 75.9985 38.0002 75.9985C27.5078 75.9985 18.0062 71.7453 11.1309 64.8686C4.25422 57.9919 0.000976562 48.4917 0.000976562 37.9993C0.000976562 27.5054 4.25422 18.0052 11.1309 11.13C18.0076 4.25324 27.5078 0 38.0002 0V0ZM63.6795 12.32C57.1076 5.74818 48.028 1.684 38.0002 1.684C27.9724 1.684 18.8929 5.74965 12.321 12.32C5.74916 18.8919 1.68498 27.9715 1.68498 37.9993C1.68498 48.0271 5.75062 57.1066 12.321 63.6785C18.8929 70.2503 27.9724 74.3145 38.0002 74.3145C48.028 74.3145 57.1076 70.2489 63.6795 63.6785C70.2513 57.1066 74.3155 48.0271 74.3155 37.9993C74.3155 27.9715 70.2499 18.8919 63.6795 12.32Z" fill="#7879F1"/>
<path d="M37.9997 2.95032C47.683 2.95032 56.4504 6.87526 62.7966 13.2214C69.1427 19.5676 73.0677 28.3349 73.0677 38.0183C73.0677 47.7017 69.1427 56.4691 62.7966 62.8152C56.4504 69.1614 47.683 73.0863 37.9997 73.0863C28.3163 73.0863 19.5489 69.1614 13.2027 62.8152C6.85659 56.4691 2.93164 47.7017 2.93164 38.0183C2.93164 28.3349 6.85659 19.5676 13.2027 13.2214C19.5489 6.87526 28.3163 2.95032 37.9997 2.95032ZM61.6065 14.4115C55.5652 8.3702 47.2184 4.63286 37.9997 4.63286C28.7809 4.63286 20.4341 8.3702 14.3928 14.4115C8.35152 20.4528 4.61418 28.7995 4.61418 38.0183C4.61418 47.2371 8.35152 55.5839 14.3928 61.6252C20.4341 67.6665 28.7809 71.4038 37.9997 71.4038C47.2184 71.4038 55.5652 67.6665 61.6065 61.6252C67.6478 55.5839 71.3851 47.2371 71.3851 38.0183C71.3851 28.7995 67.6478 20.4528 61.6065 14.4115Z" fill="#A5A6F6"/>
</svg>
