<svg width="76" height="76" viewBox="0 0 76 76" fill="none" xmlns="http://www.w3.org/2000/svg">
<path d="M38 3.1333C47.6261 3.1333 56.3493 7.03687 62.6694 13.3436C68.9762 19.6504 72.8797 28.3737 72.8797 38.0131C72.8797 47.6392 68.9762 56.3625 62.6694 62.6826C56.3626 68.9894 47.6394 72.8929 38 72.8929C28.3738 72.8929 19.6505 68.9894 13.3305 62.6826C7.02368 56.3758 3.12012 47.6525 3.12012 38.0131C3.12012 28.387 7.02368 19.6637 13.3305 13.3436C19.6372 7.03687 28.3605 3.1333 38 3.1333ZM61.2487 14.7511C55.3005 8.80276 47.0684 5.11162 37.9867 5.11162C28.9049 5.11162 20.6862 8.78949 14.7246 14.7511C8.76305 20.7126 5.08519 28.9313 5.08519 38.0131C5.08519 47.0949 8.76305 55.3136 14.7246 61.2752C20.6729 67.2235 28.9049 70.9146 37.9867 70.9146C47.0684 70.9146 55.2872 67.2367 61.2487 61.2752C67.197 55.3269 70.8881 47.0949 70.8881 38.0131C70.8881 28.9313 67.197 20.6993 61.2487 14.7511Z" fill="#B1ACD6"/>
<path d="M38 0C48.4892 0 57.9958 4.24874 64.8735 11.1265C71.7512 18.0042 76 27.5108 76 38C76 48.4892 71.7512 57.9958 64.8735 64.8735C57.9958 71.7512 48.4892 76 38 76C27.5108 76 18.0042 71.7512 11.1265 64.8735C4.24878 57.9958 0 48.4892 0 38C0 27.5108 4.24878 18.0042 11.1265 11.1265C17.9909 4.24874 27.4976 0 38 0ZM63.4661 12.5471C56.9469 6.02793 47.9448 1.99161 38 1.99161C28.0552 1.99161 19.0531 6.02793 12.5339 12.5471C6.01468 19.0664 1.97832 28.0685 1.97832 38.0132C1.97832 47.958 6.01468 56.9602 12.5339 63.4794C19.0531 69.9986 28.0552 74.0217 38 74.0217C47.9448 74.0217 56.9469 69.9853 63.4661 63.4794C69.9853 56.9602 74.0084 47.958 74.0084 38.0132C74.0084 28.0685 69.9853 19.0531 63.4661 12.5471Z" fill="#7C78B8"/>
<path fill-rule="evenodd" clip-rule="evenodd" d="M27.418 13.822H48.5822V33.5523H27.418V13.822Z" fill="#71CBF4"/>
<path d="M27.4177 12.8262H48.5819C49.1263 12.8262 49.5777 13.2776 49.5777 13.822V33.5523C49.5777 34.0966 49.1263 34.5481 48.5819 34.5481H27.4177C26.8733 34.5481 26.4219 34.0966 26.4219 33.5523V13.822C26.4219 13.2776 26.86 12.8262 27.4177 12.8262ZM47.5728 14.8178H28.4002V32.5565H47.5728V14.8178Z" fill="black"/>
<path d="M27.4179 33.5521H48.5821L58.0356 46.4976H17.2075L27.4179 33.5521Z" stroke="black" stroke-width="1.5001" stroke-miterlimit="22.9256" stroke-linecap="round" stroke-linejoin="round"/>
<path fill-rule="evenodd" clip-rule="evenodd" d="M17.1011 46.6305H58.1947V56.8674H17.1011V46.6305Z" fill="#B995C5"/>
<path d="M17.1013 45.6346H58.1949C58.7393 45.6346 59.1907 46.0861 59.1907 46.6305V56.8806C59.1907 57.425 58.7393 57.8764 58.1949 57.8764H17.1013C16.5569 57.8764 16.1055 57.425 16.1055 56.8806V46.6305C16.1055 46.0728 16.5569 45.6346 17.1013 45.6346ZM57.1991 47.6263H18.0971V55.8848H57.1991V47.6263Z" fill="black"/>
<path d="M27.4175 32.5563H28.7851C29.3428 32.5563 29.7809 33.0077 29.7809 33.5521C29.7809 33.7911 29.7013 34.0035 29.5685 34.1761L20.978 47.0552C20.7921 47.3473 20.4734 47.4934 20.1548 47.4934H17.3532C16.7956 47.4934 16.3574 47.042 16.3574 46.4976C16.3574 46.2586 16.4504 46.0329 16.5832 45.8602L26.6342 32.9413C26.8201 32.6891 27.1122 32.5563 27.4175 32.5563ZM19.6237 45.5018L21.0045 43.4305L19.3847 45.5018H19.6237Z" fill="black"/>
<path d="M47.2011 32.5563H48.5686C48.874 32.5563 49.1794 32.7023 49.3786 32.9679L58.8055 45.8602C58.9516 46.0329 59.0446 46.2586 59.0446 46.4976C59.0446 47.0552 58.5931 47.4934 58.0488 47.4934H55.2472C54.9153 47.4934 54.5833 47.3208 54.3975 47.0154L46.4177 34.1495C46.2982 33.9769 46.2186 33.7778 46.2186 33.5521C46.2053 33.0077 46.6434 32.5563 47.2011 32.5563ZM54.185 42.9127L55.7916 45.5018H56.0837L54.185 42.9127Z" fill="black"/>
<path fill-rule="evenodd" clip-rule="evenodd" d="M33.167 24.9749L39.6597 17.9246L39.6862 22.5451L43.3641 22.5849L36.7785 29.622L36.7917 25.0014L33.167 24.9749Z" fill="#B995C5"/>
<path d="M32.4369 24.3108L38.9295 17.2605C39.3013 16.8621 39.9254 16.8356 40.337 17.2073C40.5627 17.4198 40.6689 17.6986 40.6556 17.9907L40.6822 21.5756L43.3775 21.6022C43.9219 21.6022 44.36 22.0536 44.36 22.598C44.36 22.8768 44.2405 23.1291 44.0547 23.3017L37.5089 30.2989C37.1371 30.6972 36.5131 30.7237 36.1147 30.352C35.9023 30.1528 35.7961 29.8873 35.7961 29.635L35.8094 26.0103L33.1804 25.997C32.6361 25.997 32.1846 25.5456 32.1979 25.0012C32.1714 24.7224 32.2776 24.4834 32.4369 24.3108ZM38.6906 20.4603L35.4243 24.0054L36.8052 24.0187C37.3496 24.0187 37.7877 24.4701 37.7877 25.0145L37.7744 27.1123L41.0938 23.5672L39.6731 23.5539C39.1287 23.5539 38.6906 23.1158 38.6906 22.5714V20.4603Z" fill="black"/>
<path d="M24.2314 43.0589C24.2314 42.5145 24.6829 42.0631 25.2273 42.0631C25.7716 42.0631 26.2231 42.5145 26.2231 43.0589V45.9003C26.2231 46.4446 25.7716 46.8961 25.2273 46.8961C24.6829 46.8961 24.2314 46.4446 24.2314 45.9003V43.0589Z" fill="black"/>
<path d="M49.4585 43.0589C49.4585 42.5145 49.9099 42.0631 50.4543 42.0631C50.9987 42.0631 51.4501 42.5145 51.4501 43.0589V45.9003C51.4501 46.4446 50.9987 46.8961 50.4543 46.8961C49.9099 46.8961 49.4585 46.4446 49.4585 45.9003V43.0589Z" fill="black"/>
<path d="M26.8472 39.7393C26.8472 39.1683 27.2853 38.7036 27.843 38.7036C28.3873 38.7036 28.8388 39.1683 28.8388 39.7393V42.7001C28.8388 43.271 28.4006 43.7357 27.843 43.7357C27.2986 43.7357 26.8472 43.271 26.8472 42.7001V39.7393Z" fill="black"/>
<path d="M46.5903 39.7393C46.5903 39.1683 47.0285 38.7036 47.5861 38.7036C48.1305 38.7036 48.5819 39.1683 48.5819 39.7393V42.7001C48.5819 43.271 48.1438 43.7357 47.5861 43.7357C47.0418 43.7357 46.5903 43.271 46.5903 42.7001V39.7393Z" fill="black"/>
<path d="M29.0908 36.1013C29.0908 35.5569 29.5423 35.1055 30.0866 35.1055C30.631 35.1055 31.0824 35.5569 31.0824 36.1013V38.9427C31.0824 39.487 30.631 39.9385 30.0866 39.9385C29.5423 39.9385 29.0908 39.487 29.0908 38.9427V36.1013Z" fill="black"/>
<path d="M44.2935 36.1013C44.2935 35.5569 44.7449 35.1055 45.2893 35.1055C45.8336 35.1055 46.2851 35.5569 46.2851 36.1013V38.9427C46.2851 39.487 45.8336 39.9385 45.2893 39.9385C44.7449 39.9385 44.2935 39.487 44.2935 38.9427V36.1013Z" fill="black"/>
<path d="M25.2932 44.0146C24.7488 44.0146 24.2974 43.5631 24.2974 43.0188C24.2974 42.4744 24.7488 42.0229 25.2932 42.0229H50.4539C50.9983 42.0229 51.4497 42.4744 51.4497 43.0188C51.4497 43.5631 50.9983 44.0146 50.4539 44.0146H25.2932Z" fill="black"/>
<path d="M27.9094 40.4832C27.365 40.4832 26.9136 40.0318 26.9136 39.4874C26.9136 38.943 27.365 38.4916 27.9094 38.4916H47.4538C47.9981 38.4916 48.4496 38.943 48.4496 39.4874C48.4496 40.0318 47.9981 40.4832 47.4538 40.4832H27.9094Z" fill="black"/>
<path d="M30.1667 36.9908C29.6223 36.9908 29.1709 36.5393 29.1709 35.995C29.1709 35.4506 29.6223 34.9991 30.1667 34.9991H45.2631C45.8075 34.9991 46.2589 35.4506 46.2589 35.995C46.2589 36.5393 45.8075 36.9908 45.2631 36.9908H30.1667Z" fill="black"/>
</svg>
