<svg width="76" height="76" viewBox="0 0 76 76" fill="none" xmlns="http://www.w3.org/2000/svg">
<path d="M38.0004 3.13318C47.6266 3.13318 56.3498 7.03675 62.6699 13.3435C68.9767 19.6503 72.8802 28.3736 72.8802 38.013C72.8802 47.6391 68.9767 56.3624 62.6699 62.6825C56.3631 68.9893 47.6399 72.8928 38.0004 72.8928C28.3743 72.8928 19.651 68.9893 13.331 62.6825C7.02417 56.3757 3.12061 47.6524 3.12061 38.013C3.12061 28.3868 7.02417 19.6636 13.331 13.3435C19.6377 7.03675 28.361 3.13318 38.0004 3.13318ZM61.2492 14.7509C55.301 8.80264 47.0689 5.1115 37.9872 5.1115C28.9054 5.1115 20.6867 8.78936 14.7251 14.7509C8.76354 20.7125 5.08568 28.9312 5.08568 38.013C5.08568 47.0947 8.76354 55.3135 14.7251 61.2751C20.6734 67.2234 28.9054 70.9145 37.9872 70.9145C47.0689 70.9145 55.2877 67.2366 61.2492 61.2751C67.1975 55.3268 70.8886 47.0947 70.8886 38.013C70.8886 28.9312 67.1975 20.6992 61.2492 14.7509Z" fill="#B1ACD6"/>
<path d="M38 0C48.4892 0 57.9958 4.24874 64.8735 11.1265C71.7512 18.0042 76 27.5108 76 38C76 48.4892 71.7512 57.9958 64.8735 64.8735C57.9958 71.7512 48.4892 76 38 76C27.5108 76 18.0042 71.7512 11.1265 64.8735C4.24878 57.9958 0 48.4892 0 38C0 27.5108 4.24878 18.0042 11.1265 11.1265C17.9909 4.24874 27.4976 0 38 0ZM63.4661 12.5471C56.9469 6.02793 47.9448 1.99161 38 1.99161C28.0552 1.99161 19.0531 6.02793 12.5339 12.5471C6.01468 19.0664 1.97832 28.0685 1.97832 38.0132C1.97832 47.958 6.01468 56.9602 12.5339 63.4794C19.0531 69.9986 28.0552 74.0217 38 74.0217C47.9448 74.0217 56.9469 69.9853 63.4661 63.4794C69.9853 56.9602 74.0084 47.958 74.0084 38.0132C74.0084 28.0685 69.9853 19.0531 63.4661 12.5471Z" fill="#7C78B8"/>
<path d="M42.9787 36.4861V40.3233C42.9787 40.8412 42.6733 41.2926 42.2352 41.4918C41.9564 41.6644 41.6111 42.0095 41.3058 42.3282C41.1597 42.4743 41.0136 42.6203 40.8809 42.7531L38.7963 44.7182C38.2785 45.1962 37.4686 45.1829 36.9906 44.6783L34.9591 42.8195C34.7334 42.6071 34.5608 42.4344 34.4015 42.2485C34.1227 41.9432 33.8173 41.6245 33.6314 41.5448C33.1534 41.3324 32.8613 40.8677 32.8613 40.3632V36.3666C32.8613 35.6497 33.4455 35.0787 34.1492 35.0787C34.3882 35.0787 34.6272 35.1451 34.8131 35.2646C35.3044 35.5169 35.8355 35.7028 36.3798 35.8356C36.9508 35.9683 37.5483 36.0347 38.1325 36.0214C38.6636 36.0081 39.1947 35.9418 39.7125 35.8223L39.7656 35.809C40.2436 35.7028 40.7083 35.5302 41.1597 35.3177C41.797 35.0123 42.5671 35.2912 42.8725 35.9285C42.9389 36.1144 42.9787 36.3003 42.9787 36.4861ZM40.4029 39.6462V38.2919L40.2834 38.3184C39.6063 38.4778 38.9025 38.5574 38.1856 38.5707C37.3623 38.584 36.5657 38.5043 35.8089 38.3317L35.4372 38.2388V39.6595C35.7425 39.9117 36.008 40.1905 36.2736 40.4694C36.4329 40.642 36.5923 40.8146 36.6985 40.9075L37.92 42.0228L39.1283 40.881C39.2345 40.7747 39.3673 40.6553 39.4868 40.5225C39.7523 40.2304 40.0577 39.925 40.4029 39.6462Z" fill="black"/>
<path fill-rule="evenodd" clip-rule="evenodd" d="M58.102 57.1862C53.1096 62.6034 45.9398 65.9892 37.9999 65.9892C29.7945 65.9892 22.4255 62.3777 17.4199 56.6551L17.566 47.746C17.5925 46.0598 18.4688 44.6391 20.1816 44.1345L33.406 40.2973C34.3619 40.0185 35.1055 41.1869 35.8357 41.8508L37.9335 43.7628L40.0181 41.7977C40.7351 41.1205 41.6911 39.8858 42.647 40.1646L55.6589 44.1212C57.3584 44.6391 58.3011 46.0465 58.2746 47.7327L58.102 57.1862Z" fill="#B995C5"/>
<path d="M58.8325 57.85C56.1903 60.7047 52.9771 63.0282 49.3524 64.6082C45.8737 66.1351 42.0233 66.9849 37.9869 66.9849C33.8178 66.9849 29.8611 66.0821 26.2895 64.4622C22.5851 62.776 19.3056 60.3196 16.6501 57.3057C16.4775 57.1065 16.3978 56.8675 16.4111 56.6285L16.5572 47.7326C16.5704 46.6572 16.8758 45.6614 17.46 44.8515C18.0177 44.0814 18.8276 43.4839 19.8898 43.1785L33.1141 39.3413C34.4419 38.9562 35.2651 39.8458 36.0484 40.669C36.1945 40.8284 36.3538 40.9877 36.4866 41.1205L37.9073 42.4217L39.3147 41.0939C39.4342 40.9877 39.5537 40.8549 39.6864 40.7222C40.5362 39.8591 41.5585 38.8235 42.9128 39.2351L55.9247 43.1918C56.9869 43.5104 57.8101 44.1079 58.3811 44.8913C58.9653 45.7012 59.2574 46.6837 59.2441 47.7592L59.0848 57.1862C59.0848 57.4517 58.9918 57.6774 58.8325 57.85ZM48.5557 62.7892C51.7954 61.3686 54.7032 59.3106 57.1064 56.7746L57.2658 47.7326C57.279 47.0953 57.1064 46.5111 56.7745 46.0597C56.4558 45.6215 55.9779 45.2763 55.3538 45.0904L42.3419 41.1337C42.1295 41.0674 41.5718 41.6383 41.1071 42.1163C40.9611 42.2623 40.815 42.4084 40.6822 42.5412L38.5977 44.5062C38.2259 44.8514 37.6284 44.8647 37.2434 44.5195L35.1456 42.6076C34.9597 42.435 34.7738 42.2491 34.6012 42.0499C34.2161 41.6516 33.8178 41.2267 33.6585 41.2665L20.4342 45.1037C19.8367 45.2763 19.372 45.6082 19.0666 46.0331C18.7214 46.5111 18.5488 47.1086 18.5355 47.7725L18.3894 56.2966C20.8059 58.9786 23.7668 61.1561 27.0994 62.6697C30.4188 64.1701 34.0966 65.0066 37.9736 65.0066C41.7577 64.9933 45.3293 64.2099 48.5557 62.7892Z" fill="black"/>
<path fill-rule="evenodd" clip-rule="evenodd" d="M27.113 24.1118H28.0956C28.8391 24.1118 29.4897 24.4703 29.9146 25.0147L29.5693 25.506L29.5162 25.3865C29.5162 26.4354 29.5295 27.4843 29.5693 28.427C29.5959 28.9846 29.6224 29.5025 29.6888 30.007C29.2772 30.4186 28.7063 30.6576 28.0823 30.6576H27.0997C25.8384 30.6576 24.8027 29.622 24.8027 28.3606V26.3955C24.816 25.1342 25.8516 24.1118 27.113 24.1118Z" fill="#B995C5"/>
<path d="M27.1123 22.824H28.0949C28.6525 22.824 29.1969 22.9567 29.6749 23.1957C30.1661 23.4347 30.6043 23.7933 30.9362 24.2314C31.2947 24.6961 31.2815 25.3467 30.9362 25.7849L30.8035 25.9708L30.8167 26.9134C30.83 27.3914 30.8433 27.8694 30.8566 28.3607C30.8699 28.5864 30.8831 28.8387 30.8964 29.1308C30.9097 29.3565 30.9362 29.5822 30.9628 29.8345C31.0159 30.2859 30.83 30.7241 30.4981 30.9896C30.1927 31.2685 29.8342 31.5074 29.4359 31.6667L29.3562 31.6933C28.9579 31.8527 28.5198 31.9323 28.0816 31.9323H27.0991C26.1166 31.9323 25.2137 31.534 24.5631 30.8834C23.9125 30.2328 23.5142 29.3432 23.5142 28.3474V26.3824C23.5142 25.3998 23.9125 24.5102 24.5631 23.8596C25.2402 23.2223 26.1298 22.824 27.1123 22.824ZM28.0949 25.3998H27.1123C26.8335 25.3998 26.5812 25.506 26.4086 25.6919C26.236 25.8645 26.1165 26.1168 26.1165 26.3956V28.3607C26.1165 28.6395 26.236 28.8918 26.4086 29.0644C26.5945 29.2503 26.8468 29.3565 27.1123 29.3565H28.0949C28.1878 29.3565 28.2675 29.3432 28.3339 29.3299V29.3167C28.3206 29.0909 28.3073 28.7988 28.294 28.4802C28.2808 28.0287 28.2675 27.5109 28.2542 26.9666L28.2409 25.4131L28.0949 25.3998Z" fill="black"/>
<path fill-rule="evenodd" clip-rule="evenodd" d="M48.8078 24.1118H47.8252C47.0817 24.1118 46.6435 24.457 46.2319 25.0014C46.378 25.2139 46.4045 25.6255 46.4045 25.891C46.4045 26.7673 46.378 27.6303 46.3515 28.427C46.3249 28.9846 46.2983 29.5025 46.2319 30.007C46.6435 30.4186 47.2145 30.6576 47.8385 30.6576H48.821C50.0824 30.6576 51.1181 29.622 51.1181 28.3606V26.3955C51.1048 25.1342 50.0691 24.1118 48.8078 24.1118Z" fill="#B995C5"/>
<path d="M48.8076 25.3998H47.8251C47.7587 25.3998 47.7056 25.3998 47.6658 25.4131C47.6791 25.5857 47.6791 25.7583 47.6791 25.8911L47.6658 27.2587C47.6525 27.6968 47.6392 28.1084 47.6259 28.4669C47.6127 28.8121 47.5994 29.1042 47.5861 29.3167V29.3299C47.6658 29.3432 47.7454 29.3565 47.8251 29.3565H48.8076C49.0864 29.3565 49.3387 29.2503 49.5113 29.0644C49.6972 28.8785 49.8034 28.6262 49.8034 28.3607V26.3956C49.8034 26.1168 49.6839 25.8645 49.5113 25.6919C49.3387 25.506 49.0864 25.3998 48.8076 25.3998ZM47.8251 22.824H48.8076C49.7901 22.824 50.693 23.2223 51.3436 23.8729C51.9942 24.5235 52.3925 25.4131 52.3925 26.4089V28.374C52.3925 29.3565 51.9942 30.2461 51.3436 30.8967C50.693 31.5473 49.8034 31.9456 48.8209 31.9456H47.8384C47.4002 31.9456 46.9753 31.8659 46.5637 31.7066L46.4841 31.68C46.0459 31.5074 45.6609 31.2419 45.3422 30.9232C45.0634 30.6444 44.9173 30.2593 44.9705 29.8345C44.997 29.6618 45.0103 29.4361 45.0368 29.1706V29.144C45.0634 28.8387 45.0767 28.5997 45.0767 28.3872C45.0899 27.9889 45.1032 27.6039 45.1165 27.2188L45.1298 25.8911C45.1298 25.8114 45.1298 25.7185 45.1165 25.6122C44.8775 25.1741 44.9041 24.6297 45.2227 24.2181C45.5148 23.8331 45.8468 23.5011 46.2584 23.2489C46.6965 22.97 47.2011 22.824 47.8251 22.824Z" fill="black"/>
<path d="M26.7143 23.8466C26.7276 24.391 26.2894 24.8557 25.745 24.869C25.2007 24.8823 24.736 24.4441 24.7227 23.8998C24.6828 22.4127 24.8289 20.8194 25.1874 19.2659C25.5061 17.8452 26.0239 16.4511 26.7276 15.203C27.8031 13.3176 29.3432 11.804 31.1357 10.7418C32.9679 9.65307 35.0525 9.02903 37.1902 8.90953L37.3362 8.89624C37.708 8.90952 38.0798 8.88298 38.4515 8.90953C40.6025 9.01575 42.7136 9.6398 44.5459 10.7418C46.3383 11.8173 47.8785 13.3176 48.954 15.203C49.671 16.4644 50.1755 17.8585 50.4942 19.2659C50.8527 20.8194 50.9854 22.3994 50.9589 23.8998C50.9456 24.4441 50.4942 24.8823 49.9365 24.869C49.3921 24.8557 48.954 24.4043 48.9673 23.8466C48.9938 22.5189 48.8743 21.0982 48.5556 19.7041C48.2768 18.456 47.8387 17.2478 47.2279 16.1723C46.3383 14.5923 45.0371 13.3309 43.5368 12.428C41.9833 11.5119 40.2042 10.9675 38.3852 10.8746C38.0532 10.8746 37.7213 10.848 37.3761 10.8746C35.5305 10.9542 33.7248 11.4853 32.158 12.428C30.6577 13.3176 29.3698 14.579 28.4669 16.1723C27.8562 17.2478 27.418 18.456 27.1392 19.7041C26.8072 21.0982 26.6877 22.5189 26.7143 23.8466Z" fill="black"/>
<path fill-rule="evenodd" clip-rule="evenodd" d="M45.1827 18.0576C43.7487 15.5349 41.1463 14.1673 38.2651 14.1142C35.4901 14.0611 32.9276 15.3623 31.2944 17.593C30.0065 19.3721 29.7808 20.9389 29.6879 22.9836C29.6481 23.767 29.6348 24.6167 29.6348 25.4797C32.6886 21.0716 33.9765 24.0856 37.6676 24.0856C40.6816 24.0856 42.0226 22.3994 43.8682 20.6335L44.3462 20.9787L46.2316 25.2142V26.3162L46.2847 26.1834C46.2847 25.1611 46.2847 24.1387 46.2714 23.2226C46.2581 21.2442 46.1386 19.7306 45.1827 18.0576Z" fill="#71CBF4"/>
<path d="M44.0683 18.6946C43.4841 17.659 42.6609 16.8623 41.7049 16.3179C40.6825 15.7337 39.5008 15.4284 38.2528 15.4018C37.0844 15.3752 35.9558 15.6408 34.9334 16.1453C33.9243 16.6499 33.0347 17.4067 32.3443 18.3494C31.7999 19.0929 31.4812 19.7966 31.2954 20.5136L31.2821 20.5535C31.1493 21.0713 31.0829 21.6156 31.0298 22.1998C32.424 21.3766 33.6322 21.775 35.1193 22.2795C35.8495 22.5185 36.686 22.7973 37.6818 22.7973C39.8328 22.7973 41.0144 21.6422 42.382 20.3012L42.9928 19.7037C43.3911 19.3187 43.9886 19.2523 44.4533 19.4913C44.3471 19.239 44.2276 18.9602 44.0683 18.6946ZM42.9795 14.0741C44.3338 14.8441 45.489 15.9728 46.3122 17.42C46.8565 18.3892 47.1752 19.3187 47.3478 20.2879C47.5204 21.2041 47.5602 22.1467 47.5735 23.2089L47.5868 24.6695V26.1964C47.5868 26.369 47.5469 26.5416 47.4806 26.7142L47.4407 26.7939C47.2548 27.2718 46.7901 27.6171 46.2458 27.6171C45.5421 27.6171 44.9578 27.0461 44.9578 26.3291V25.4927L43.6832 22.638C42.1032 24.1649 40.5763 25.3865 37.6818 25.3865C36.2877 25.3865 35.2388 25.028 34.3094 24.7226C33.1011 24.311 32.2248 24.0189 30.6979 26.2229C30.4589 26.5549 30.0738 26.7806 29.6357 26.7806C28.932 26.7806 28.3478 26.1964 28.3611 25.4927L28.3744 24.1915C28.3876 23.74 28.4009 23.3285 28.4142 22.9434C28.454 21.8679 28.547 20.8854 28.7859 19.9294L28.7992 19.8763C29.0648 18.8539 29.5029 17.8847 30.2465 16.849C31.1892 15.5611 32.3974 14.5388 33.7783 13.8484C35.1459 13.1712 36.686 12.8127 38.2793 12.8393C39.9788 12.8658 41.5854 13.2907 42.9795 14.0741Z" fill="black"/>
<path d="M46.312 33.99C45.4888 35.4372 44.3336 36.5659 42.9793 37.3359C41.5852 38.1326 39.9786 38.5575 38.2924 38.584C36.6991 38.6106 35.1589 38.2654 33.7913 37.5749C32.4105 36.8845 31.2022 35.8621 30.2595 34.5742C29.516 33.5519 29.0778 32.5693 28.799 31.547L28.7857 31.4938C28.5335 30.5379 28.4538 29.5686 28.414 28.4799C28.4007 28.0284 28.3874 27.5106 28.3741 26.9663L28.3608 25.3863C28.3608 24.9083 28.6131 24.4967 28.9982 24.271C31.4147 21.018 33.0212 21.5491 35.1855 22.2793C35.9157 22.5183 36.7522 22.7971 37.748 22.7971C39.8989 22.7971 41.0806 21.642 42.4482 20.301L43.059 19.7035C43.537 19.2521 44.2672 19.2388 44.7585 19.6371L45.1701 19.9292C45.3692 20.062 45.5153 20.2479 45.6082 20.4603L47.4936 24.6958C47.5733 24.8684 47.5998 25.041 47.5998 25.2136V26.7405L47.5866 28.2011C47.5733 29.2633 47.5202 30.1927 47.3608 31.1221C47.175 32.0913 46.8563 33.0208 46.312 33.99ZM41.7047 35.0921C42.6607 34.5477 43.4839 33.751 44.0681 32.7154C44.4664 32.025 44.6921 31.3478 44.8116 30.6574C44.9444 29.9006 44.9842 29.0907 44.9975 28.1612C45.0107 27.6965 45.0107 27.2185 45.0107 26.7405V25.4925L43.7361 22.6245C42.1561 24.1514 40.6292 25.373 37.7347 25.373C36.3406 25.373 35.2917 25.0145 34.3623 24.7091C33.1939 24.324 32.3441 24.032 30.9234 25.9705L30.9367 26.9132C30.9499 27.3911 30.9632 27.8824 30.9765 28.3604C31.0163 29.2765 31.0827 30.0864 31.2686 30.83L31.2819 30.8698C31.4678 31.5868 31.7864 32.2905 32.3308 33.034C33.0212 33.99 33.9108 34.7335 34.9199 35.2381C35.929 35.7426 37.0576 36.0082 38.2393 35.9816C39.5006 35.9816 40.6956 35.6763 41.7047 35.0921Z" fill="black"/>
</svg>
