<svg width="48" height="61" viewBox="0 0 48 61" fill="none" xmlns="http://www.w3.org/2000/svg">
<path d="M23.7222 1.5C11.4696 1.5 1.5 11.2859 1.5 23.1646C1.5 28.89 4.55685 35.7246 8.82165 42.3304C13.0474 48.8757 18.3077 54.9682 22.4087 59.165C22.6006 59.3494 22.7516 59.412 22.8918 59.4463C23.0839 59.4932 23.2995 59.5 23.7222 59.5C24.0644 59.5 24.4767 59.3411 25.204 58.9924C29.2799 54.802 34.4547 48.7865 38.6228 42.3304C42.8876 35.7246 45.9444 28.89 45.9444 23.1646C45.9444 11.2859 35.9749 1.5 23.7222 1.5Z" fill="#E62854" stroke="white" stroke-width="3"/>
<circle cx="24" cy="23" r="9" stroke="white" stroke-width="4"/>
</svg>
