<svg width="42" height="42" viewBox="0 0 42 42" fill="none" xmlns="http://www.w3.org/2000/svg">
<circle cx="21" cy="21" r="20" fill="white" stroke="#F178B6" stroke-width="2"/>
<line x1="12.211" y1="30.7027" x2="7.21101" y2="35.7027" stroke="#F178B6" stroke-width="2"/>
<line x1="34.5039" y1="8.40982" x2="27.9181" y2="14.9956" stroke="#F178B6" stroke-width="2" stroke-linecap="round"/>
<path fill-rule="evenodd" clip-rule="evenodd" d="M21.0367 21.25L14.7734 24.3247V31.8307L21.0367 28.7249V27.2155L19.7509 25.647L21.0367 22.7949V21.25Z" fill="#B192C3"/>
<path fill-rule="evenodd" clip-rule="evenodd" d="M8.50781 21.1362L14.6904 18.0723L21.0128 21.1609L14.6904 24.2678L8.50781 21.1362Z" fill="#B192C3"/>
<path fill-rule="evenodd" clip-rule="evenodd" d="M14.6514 10.6426L20.9146 13.7172V21.2233L14.6514 18.1174V10.6426Z" fill="#B192C3"/>
<path d="M26.7819 11.3867L21.4496 14.0055V20.4752L21.6088 20.3956L22.3989 18.6422C22.4398 18.5519 22.5054 18.482 22.5838 18.4347L22.6655 18.3778C22.7419 18.324 22.8289 18.2971 22.916 18.295L26.0477 18.195L26.7808 17.8316V11.3878L26.7819 11.3867ZM20.7799 13.3014L27.0045 10.245C27.0754 10.202 27.1582 10.1772 27.2463 10.1772C27.5033 10.1772 27.7118 10.3858 27.7118 10.6427V18.1187C27.7108 18.2896 27.6162 18.4541 27.4517 18.5347L26.3702 19.0712C26.3121 19.0991 26.2476 19.1163 26.1788 19.1185L23.159 19.2141L22.386 20.9289C22.343 21.0235 22.2688 21.1052 22.1678 21.1546L21.2185 21.6255C21.1497 21.6663 21.0691 21.69 20.9831 21.69C20.7261 21.69 20.5176 21.4814 20.5176 21.2245V13.7185H20.5197C20.5197 13.5475 20.6154 13.3831 20.7799 13.3024V13.3014Z" fill="#201E1E"/>
<path d="M23.7865 9.39133C23.5554 9.27845 23.4597 9.00001 23.5726 8.76995C23.6855 8.53881 23.9639 8.44313 24.194 8.55601L27.4278 10.1353C27.6589 10.2481 27.7546 10.5266 27.6417 10.7566C27.589 10.8652 27.4987 10.9448 27.3934 10.9856L21.1043 14.0764C20.9688 14.1431 20.8172 14.1366 20.6925 14.0743L14.5099 10.9426C14.2809 10.8276 14.1895 10.5481 14.3046 10.3191C14.3519 10.2256 14.426 10.1546 14.5131 10.1116L20.6958 7.04771C20.8291 6.98214 20.9796 6.98644 21.1043 7.04664L22.9039 7.92496C23.1351 8.03784 23.2307 8.31628 23.1179 8.54634C23.005 8.77748 22.7265 8.87315 22.4965 8.76027L20.9011 7.98086L15.7537 10.532L20.9043 13.1411L26.1678 10.5545L23.7855 9.39026L23.7865 9.39133Z" fill="#201E1E"/>
<path fill-rule="evenodd" clip-rule="evenodd" d="M22.8225 18.8335L27.2689 24.2109L24.1835 31.0536L19.75 25.6483L22.8225 18.8335Z" fill="#61CDF5"/>
<path d="M33.1921 27.7024C33.0846 27.9357 32.8083 28.0367 32.5761 27.9292C32.3428 27.8217 32.2418 27.5454 32.3493 27.3132L33.6565 24.4998L27.6384 24.6933L24.9798 30.5911L30.9334 30.3717L31.773 28.5624C31.8806 28.3291 32.1568 28.2281 32.3891 28.3356C32.6223 28.4431 32.7234 28.7194 32.6159 28.9516L31.6569 31.02C31.5849 31.1737 31.4323 31.2823 31.2516 31.2888L24.2939 31.5446C24.2165 31.5522 24.1348 31.5403 24.0585 31.5059C23.8252 31.4006 23.7209 31.1254 23.8262 30.8921L26.9106 24.0494C26.9815 23.8935 27.1363 23.7827 27.3191 23.7763L34.3543 23.5495C34.4317 23.543 34.5134 23.5559 34.5886 23.5903C34.8219 23.6978 34.923 23.9741 34.8154 24.2063L33.191 27.7024H33.1921Z" fill="#201E1E"/>
<path fill-rule="evenodd" clip-rule="evenodd" d="M22.9316 18.757L30.0722 18.5312L34.3218 23.9194L27.2813 24.1527L22.9316 18.757Z" fill="#61CDF5"/>
<path d="M20.4382 21.9428L15.1059 24.5617V31.0313L20.4382 28.3867V27.3278L19.2599 25.8904C19.1438 25.7496 19.1255 25.5615 19.1954 25.4056L20.4392 22.6459V21.9428H20.4382ZM14.4361 23.8575L20.6607 20.8011C20.7317 20.7581 20.8144 20.7334 20.9026 20.7334C21.1595 20.7334 21.3681 20.942 21.3681 21.1989V22.7448C21.367 22.8083 21.3541 22.8738 21.3262 22.9362L20.1587 25.5271L21.2369 26.8419C21.3186 26.9257 21.3681 27.0397 21.3681 27.1654V28.6748C21.367 28.8458 21.2724 29.0102 21.1079 29.0909L14.8748 32.1816C14.806 32.2225 14.7253 32.2461 14.6393 32.2461C14.3824 32.2461 14.1738 32.0376 14.1738 31.7807V24.2746H14.176C14.176 24.1037 14.2717 23.9392 14.4361 23.8586V23.8575Z" fill="#201E1E"/>
<path d="M8.32963 20.6673L14.5123 17.6034C14.6456 17.5378 14.7961 17.5421 14.9208 17.6023L21.2432 20.6909C21.4743 20.8038 21.57 21.0823 21.4571 21.3123C21.4044 21.4209 21.3141 21.5004 21.2088 21.5413L14.9197 24.6321C14.7843 24.6987 14.6327 24.6923 14.508 24.6299L8.32533 21.4983C8.09634 21.3833 8.00496 21.1038 8.11999 20.8748C8.1673 20.7812 8.24148 20.7103 8.32856 20.6673H8.32963ZM14.7176 18.5376L9.57024 21.0887L14.7208 23.6979L19.9843 21.1113L14.7176 18.5376Z" fill="#201E1E"/>
<path d="M8.931 23.5454C8.931 23.8023 8.72244 24.0109 8.4655 24.0109C8.20856 24.0109 8 23.8023 8 23.5454V21.2502C8 20.9932 8.20856 20.7847 8.4655 20.7847C8.55473 20.7847 8.63751 20.8094 8.70739 20.8524L14.932 23.9088C15.0964 23.9894 15.1921 24.1539 15.1921 24.3248H15.1943V31.8309C15.1943 32.0878 14.9857 32.2963 14.7288 32.2963C14.6428 32.2963 14.5621 32.2727 14.4933 32.2318L8.26016 29.1411C8.08816 29.0561 7.9914 28.8788 8.00215 28.6981L8.00645 25.444H8.0043V25.3956C8.0043 25.1386 8.21286 24.9301 8.4698 24.9301C8.72674 24.9301 8.9353 25.1386 8.9353 25.3956V25.444H8.93315L8.92992 28.4369L14.2643 31.0815V24.6119L8.93207 21.993V23.5443L8.931 23.5454Z" fill="#201E1E"/>
<path d="M14.9525 10.2451L21.1771 13.3015C21.3415 13.3821 21.4372 13.5466 21.4372 13.7175H21.4394V21.2235C21.4394 21.4805 21.2308 21.689 20.9739 21.689C20.8879 21.689 20.8072 21.6654 20.7384 21.6245L14.5053 18.5337C14.3419 18.4531 14.2462 18.2886 14.2462 18.1177L14.2451 10.6418C14.2451 10.3848 14.4537 10.1763 14.7106 10.1763C14.7998 10.1763 14.8826 10.201 14.9525 10.244V10.2451ZM20.5084 14.0056L15.1761 11.3868V17.8307L20.5084 20.4753V14.0056Z" fill="#201E1E"/>
<path d="M23.3234 18.5366L27.7699 23.914C27.8903 24.0592 27.9075 24.257 27.829 24.4161L24.7511 31.2437C24.6458 31.477 24.3705 31.5813 24.1373 31.476C24.0599 31.4416 23.9975 31.3878 23.9513 31.3244L19.5371 25.9427C19.421 25.8018 19.4027 25.6137 19.4726 25.4578L22.544 18.642C22.6494 18.4087 22.9246 18.3044 23.1579 18.4097C23.2245 18.4398 23.2815 18.4839 23.3256 18.5366H23.3234ZM26.869 24.2838L23.0826 19.7041L20.4348 25.5771L24.2104 30.1805L26.869 24.2838Z" fill="#201E1E"/>
<path d="M23.0761 18.2938L30.1994 18.0681C30.3521 18.0638 30.4907 18.1336 30.5789 18.2454L34.8297 23.6325C34.9877 23.8347 34.9533 24.126 34.7512 24.2851C34.662 24.355 34.5555 24.3872 34.4502 24.384L27.4376 24.6173C27.286 24.6216 27.1495 24.5539 27.0613 24.4442L22.7117 19.0485C22.5515 18.8485 22.5827 18.5561 22.7826 18.396C22.8686 18.3261 22.9729 18.2927 23.0761 18.2938ZM29.993 19.0023L24.0189 19.1915L27.6386 23.6831L33.5299 23.4874L29.993 19.0034V19.0023Z" fill="#201E1E"/>
</svg>
