<svg width="42" height="42" viewBox="0 0 42 42" fill="none" xmlns="http://www.w3.org/2000/svg">
<circle cx="21" cy="21" r="20" fill="white" stroke="#F178B6" stroke-width="2"/>
<line x1="36.2032" y1="6.7115" x2="7.21182" y2="35.7029" stroke="#F178B6" stroke-width="2"/>
<path d="M21.6742 18.0126C22.6184 19.9854 22.8483 22.0379 22.4904 23.7465C22.1328 25.4543 21.2041 26.7742 19.8572 27.4189C18.5102 28.0636 16.8997 27.9591 15.3453 27.1665C13.7901 26.3735 12.3357 24.9072 11.3914 22.9344C10.4471 20.9616 10.2173 18.9091 10.5751 17.2004C10.9327 15.4927 11.8614 14.1728 13.2084 13.5281C14.5554 12.8834 16.1658 12.9879 17.7202 13.7805C19.2754 14.5735 20.7299 16.0397 21.6742 18.0126Z" fill="white" stroke="#69513B" stroke-width="1.6"/>
<path d="M30.8975 26.0417C29.6044 27.8057 27.9038 28.9776 26.2287 29.4691C24.5544 29.9603 22.9525 29.765 21.7481 28.8822C20.5437 27.9993 19.8752 26.5304 19.8398 24.786C19.8044 23.0406 20.41 21.0661 21.7031 19.3021C22.9961 17.5381 24.6968 16.3662 26.3719 15.8747C28.0461 15.3835 29.6481 15.5788 30.8525 16.4616C32.0569 17.3445 32.7253 18.8134 32.7607 20.5578C32.7962 22.3032 32.1905 24.2777 30.8975 26.0417Z" fill="white" stroke="#69513B" stroke-width="1.6"/>
<path d="M13.2943 13.7086C13.8427 14.8543 13.2558 15.9443 13.9034 17.2973C15.6303 20.9053 16.7867 18.6888 18.7295 22.7478C19.3771 24.1008 19.222 26.0929 19.7704 27.2386" stroke="#69513B" stroke-width="1.6"/>
<path d="M30.7345 16.6227C29.9836 17.6471 28.7456 17.6445 27.8588 18.8543C25.494 22.0804 27.9938 22.053 25.3335 25.6824C24.4467 26.8922 22.6175 27.6962 21.8665 28.7206" stroke="#69513B" stroke-width="1.6"/>
</svg>
