<svg width="42" height="42" viewBox="0 0 42 42" fill="none" xmlns="http://www.w3.org/2000/svg">
<circle cx="21" cy="21" r="20" fill="white" stroke="#F178B6" stroke-width="2"/>
<line x1="36.2032" y1="6.7115" x2="7.21182" y2="35.7029" stroke="#F178B6" stroke-width="2"/>
<path fill-rule="evenodd" clip-rule="evenodd" d="M12.4189 8.32516C13.3996 8.01696 14.6661 9.26805 15.248 11.1194C15.3684 11.5027 15.45 11.8812 15.4951 12.244C16.3567 11.341 17.3402 10.9361 17.991 11.3128C18.7222 11.7362 18.7785 13.1078 18.3473 14.4678C18.3188 14.5583 18.2775 14.6408 18.2294 14.7203C17.4912 14.884 16.6324 15.566 15.9604 16.5739L15.9604 16.5741L15.9568 16.5794L15.9534 16.5847L15.9498 16.59L15.9461 16.5954L15.9427 16.6006L15.9412 16.6027L15.939 16.6062L15.9355 16.6115L15.9319 16.6169L15.9283 16.6222L15.9249 16.6275L15.9213 16.633L15.9179 16.6383L15.9142 16.6436L15.9109 16.6491L15.9073 16.6544L15.9066 16.6553L15.9036 16.6598L15.9003 16.6652L15.8966 16.6706L15.8933 16.676L15.8897 16.6814L15.8863 16.6869L15.8827 16.6922L15.8793 16.6977L15.876 16.7032L15.8727 16.7082L15.8723 16.7085L15.869 16.714L15.8654 16.7195L15.862 16.725L15.8585 16.7305L15.8551 16.7358L15.8517 16.7413L15.8481 16.7468L15.8448 16.7523L15.8412 16.7578L15.8389 16.7618L15.8379 16.7635L15.8346 16.769L15.831 16.7745L15.8277 16.7802L15.8243 16.7857L15.8208 16.7912L15.8174 16.7967L15.814 16.8021L15.8105 16.8079L15.8072 16.8134L15.8056 16.8161L15.8037 16.8191L15.8004 16.8248L15.7968 16.8303L15.7935 16.836L15.7902 16.8415L15.7869 16.8471L15.7835 16.8526L15.78 16.8584L15.7767 16.864L15.7734 16.8695L15.7725 16.8709L15.7701 16.8752L15.7668 16.8809L15.7635 16.8865L15.7599 16.8921L15.7566 16.8978L15.7533 16.9034L15.75 16.9091L15.7467 16.9148L15.7434 16.9205L15.7401 16.9261L15.7363 16.9329L15.7356 16.9342L15.7322 16.9397L15.7308 16.9423L15.7284 16.9466L15.7261 16.9504L15.7243 16.9539L15.7216 16.9585L15.7204 16.9606L15.7169 16.9668L15.7164 16.9674L15.7124 16.9744L15.7121 16.9749L15.7086 16.9811L15.7076 16.983L15.7046 16.9881L15.7029 16.9911L15.7006 16.9953L15.6982 16.9996L15.6967 17.0023L15.6935 17.0077L15.6927 17.0093L15.689 17.016L15.6889 17.0162L15.6849 17.0232L15.6843 17.0243L15.6809 17.0302L15.6797 17.0326L15.6771 17.0372L15.6749 17.0407L15.673 17.0444L15.6703 17.0491L15.669 17.0514L15.6656 17.0574L15.665 17.0584L15.6612 17.0654L15.6612 17.0658L15.6573 17.0726L15.6565 17.0742L15.6533 17.0796L15.6518 17.0825L15.6494 17.0868L15.6472 17.091L15.6455 17.0942L15.6426 17.0995L15.6416 17.1012L15.6379 17.1078L15.6376 17.1084L15.6337 17.1156L15.6333 17.1164L15.6299 17.1225L15.6286 17.1247L15.626 17.1297L15.624 17.1332L15.6219 17.1372L15.6196 17.1417L15.615 17.1502L15.6142 17.1513L15.6103 17.1585L15.6064 17.1657L15.6057 17.167L15.6027 17.1728L15.6011 17.1755L15.5987 17.18L15.5967 17.184L15.5949 17.1874L15.5921 17.1925L15.5909 17.1946L15.5875 17.2012L15.587 17.2018L15.5833 17.209L15.5831 17.2097L15.5794 17.2162L15.5785 17.2182L15.5757 17.2235L15.5739 17.2267L15.5717 17.231L15.5695 17.2354L15.5679 17.2381L15.5649 17.2439L15.564 17.2453L15.5605 17.2524L15.5603 17.2526L15.5566 17.2598L15.5559 17.2611L15.5528 17.2672L15.5515 17.2695L15.549 17.2743L15.5472 17.2782L15.5452 17.2817L15.5426 17.2867L15.5415 17.289L15.5382 17.2954L15.5376 17.2962L15.5339 17.3036L15.5339 17.304L15.5302 17.3107L15.5294 17.3125L15.5266 17.318L15.5251 17.3212L15.5229 17.3254L15.5207 17.3296L15.519 17.3326L15.5163 17.3381L15.5153 17.3399L15.5119 17.3467L15.5116 17.3473L15.5081 17.3543L15.5076 17.3554L15.5045 17.3617L15.5032 17.364L15.5008 17.369L15.4991 17.3726L15.4971 17.3763L15.4947 17.3813L15.4935 17.3837L15.4528 17.4672C15.3927 17.4841 15.3333 17.4976 15.2747 17.5079C15.2262 17.5307 15.1756 17.5512 15.1228 17.5702L15.0492 17.5301L15.0479 17.5294L15.042 17.5262L15.0394 17.5248L15.0348 17.5223L15.0309 17.5204L15.0272 17.5185L15.0227 17.5159L15.02 17.5146L15.0142 17.5113L15.0128 17.5106L15.0057 17.5069L15.0054 17.5068L14.9983 17.5031L14.9972 17.5025L14.9909 17.4992L14.9885 17.498L14.9837 17.4953L14.9801 17.4935L14.976 17.4913L14.9716 17.4891L14.9687 17.4876L14.9631 17.4845L14.9613 17.4838L14.9544 17.4802L14.9541 17.4798L14.9468 17.4762L14.946 17.4758L14.9394 17.4723L14.9373 17.4712L14.932 17.4684L14.9286 17.4669L14.9244 17.4646L14.9201 17.4624L14.917 17.4608L14.9115 17.4581L14.9096 17.4571L14.9028 17.4537L14.9022 17.4533L14.8873 17.4458L14.8857 17.445L14.88 17.4421L14.8771 17.4406L14.8726 17.4383L14.8684 17.4363L14.865 17.4345L14.8597 17.4319L14.8576 17.4306L14.8511 17.4276L14.85 17.427L14.8427 17.4234L14.8424 17.4232L14.8353 17.4195L14.8338 17.4189L14.8277 17.4159L14.8252 17.4147L14.8204 17.4123L14.8165 17.4104L14.8128 17.4085L14.8079 17.406L14.8053 17.4049L14.7993 17.4019L14.7979 17.4012L14.7906 17.3975L14.7831 17.3939L14.782 17.3934L14.7757 17.3903L14.7734 17.3892L14.7684 17.3866L14.7647 17.3849L14.7608 17.3828L14.7562 17.3807L14.7533 17.3794L14.7476 17.3766L14.746 17.3758L14.739 17.3725L14.7386 17.3721L14.7312 17.3687L14.7304 17.3683L14.7238 17.3651L14.7218 17.3642L14.7166 17.3616L14.7132 17.36L14.709 17.358L14.7046 17.3559L14.7017 17.3543L14.6963 17.3518L14.6944 17.3509L14.6877 17.3477L14.6869 17.3475L14.6797 17.344L14.6791 17.3438L14.6724 17.3406L14.6705 17.3396L14.6651 17.3371L14.6622 17.3356L14.6578 17.3335L14.6536 17.3314L14.6502 17.3299L14.6453 17.3274L14.6432 17.3263L14.6367 17.3235L14.6359 17.3229L14.6287 17.3196L14.6284 17.3195L14.6214 17.3162L14.6201 17.3155L14.6144 17.3128L14.6116 17.3115L14.6071 17.3094L14.6032 17.3075L14.5996 17.3058L14.595 17.3037L14.5926 17.3025L14.5866 17.2997L14.5854 17.2992L14.5784 17.2959L14.5719 17.293L14.5657 17.2899L14.5592 17.2871L14.553 17.2842L14.5466 17.2813L14.5403 17.2782L14.5339 17.2754L14.5275 17.2725L14.5213 17.2696L14.5198 17.269L14.5149 17.2668L14.5084 17.2639L14.5022 17.261L14.4958 17.2582L14.4894 17.2553L14.4832 17.2524L14.4768 17.2498L14.4704 17.247L14.464 17.2441L14.4609 17.2427L14.4575 17.2411L14.4512 17.2384L14.4447 17.2356L14.4384 17.2329L14.432 17.2301L14.4258 17.2274L14.4194 17.2245L14.413 17.2219L14.4066 17.2191L14.4022 17.2169L14.4002 17.2162L14.3938 17.2136L14.3876 17.2107L14.3813 17.208L14.3749 17.2054L14.3686 17.2027L14.3622 17.2001L14.3559 17.1974L14.3495 17.1948L14.3436 17.1922L14.3432 17.1922L14.3368 17.1895L14.3304 17.1869L14.3241 17.1842L14.3177 17.1816L14.3114 17.1789L14.305 17.1763L14.2987 17.1739L14.2924 17.1712L14.286 17.1686L14.2848 17.1681L14.2797 17.1661L14.2734 17.1635L14.2671 17.161L14.2607 17.1584L14.2544 17.156L14.2481 17.1533L14.2418 17.1509L14.2354 17.1482L14.229 17.1459L14.2264 17.1447L14.2224 17.1433L14.2161 17.1408L14.2098 17.1382L14.2035 17.1357L14.1972 17.1333L14.1909 17.1309L14.1844 17.1285L14.1781 17.126L14.1718 17.1236C13.0476 16.6875 11.9591 16.6239 11.2652 16.914C11.1776 16.8757 11.0943 16.8305 11.0168 16.7711C9.88498 15.9023 9.14656 14.7451 9.5043 13.9795C9.93955 13.0487 11.7175 12.9594 13.4759 13.7809C13.7481 13.9081 14.0035 14.0494 14.2398 14.2014L14.2501 14.1766C14.02 14.0303 13.7723 13.8937 13.5089 13.7705C13.0495 13.5561 12.5888 13.4034 12.1511 13.3119C11.9774 12.9849 11.8247 12.6221 11.7024 12.233C11.1206 10.3817 11.4438 8.63094 12.4245 8.32273L12.4189 8.32516ZM10.6154 17.5318C11.0505 16.6012 12.8286 16.5117 14.587 17.3332C14.8438 17.4531 15.1357 17.5993 15.3561 17.7408C15.4602 17.4878 15.6059 17.21 15.7487 16.9634C16.7209 15.2838 18.2307 14.3398 19.12 14.8544C19.7315 15.2084 19.8907 16.2852 19.631 17.3909C19.2946 18.8241 18.4295 20.3945 17.1709 21.1906C16.666 21.5103 16.4465 21.5859 15.8443 21.6137C14.3549 21.6827 12.7442 20.8889 11.6472 19.9046C10.802 19.1464 10.3163 18.172 10.6154 17.5318Z" fill="#61CDF5"/>
<path fill-rule="evenodd" clip-rule="evenodd" d="M12.1096 22.2869C12.5447 21.3563 14.3228 21.2668 16.0812 22.0882C16.338 22.2081 16.6299 22.3543 16.8503 22.4959C16.9544 22.2429 17.1002 21.9651 17.2429 21.7185C18.2151 20.0389 19.7249 19.0949 20.6142 19.6095C21.2257 19.9635 21.3849 21.0403 21.1252 22.146C20.7888 23.5791 19.9237 25.1495 18.6651 25.9456C18.1602 26.2654 17.9407 26.341 17.3385 26.3687C15.8491 26.4378 14.2384 25.6439 13.1414 24.6597C12.2962 23.9015 11.8105 22.927 12.1096 22.2869Z" fill="#61CDF5"/>
<path d="M12.2252 7.6288C12.9906 7.38827 13.8092 7.69839 14.513 8.39325C15.1042 8.97724 15.6331 9.85741 15.9592 10.895C16.0203 11.0895 16.076 11.3031 16.1259 11.5329L16.1297 11.5522C16.1758 11.7671 16.2105 11.9731 16.2341 12.1692C16.2616 12.3901 16.1854 12.6003 16.0439 12.7506C15.9023 12.9032 15.7702 13.0609 15.6518 13.2212C15.5227 13.3994 15.4029 13.5809 15.2969 13.7638C15.2384 13.8646 15.177 13.9804 15.1138 14.1077C15.0499 14.2378 14.9961 14.3552 14.954 14.4577C14.8036 14.8247 14.3835 15.0005 14.0165 14.85C13.9759 14.8332 13.9374 14.8132 13.9017 14.7904C13.791 14.7214 13.6792 14.6547 13.5678 14.5933L13.5258 14.5681C13.4301 14.5166 13.3288 14.4656 13.2221 14.4158C13.0297 14.3261 12.8258 14.2452 12.6156 14.174L12.5756 14.159C12.3976 14.1012 12.2115 14.0516 12.0202 14.0116C11.7863 13.9627 11.6032 13.8055 11.5114 13.6033C11.4228 13.4333 11.3378 13.252 11.258 13.0605L11.2505 13.0416C11.1631 12.8305 11.0892 12.6303 11.0306 12.4439C10.7045 11.4063 10.6349 10.3818 10.7857 9.56464C10.9652 8.59197 11.4593 7.86951 12.2248 7.62892L12.2252 7.6288ZM13.4984 9.41539C13.1786 9.09961 12.8733 8.93795 12.6579 9.00563C12.443 9.07319 12.2846 9.38058 12.203 9.8225C12.0926 10.4204 12.1523 11.1975 12.408 12.011C12.4666 12.1973 12.524 12.3582 12.5797 12.494L12.6631 12.685C12.781 12.7171 12.9029 12.7539 13.0276 12.7951L13.0796 12.8108C13.318 12.8915 13.5689 12.9927 13.8294 13.1141L13.9744 13.1838L14.0542 13.0434C14.1974 12.7962 14.3443 12.5711 14.4927 12.3698L14.4955 12.3689C14.5837 12.2495 14.6718 12.1368 14.7594 12.0315L14.7208 11.8386C14.6886 11.6905 14.6425 11.5196 14.5822 11.3278C14.3264 10.514 13.9307 9.84271 13.4984 9.41539Z" fill="#201E1E"/>
<path d="M14.0196 14.454C13.8459 13.9013 13.8837 13.397 14.104 13.3278C14.3243 13.2585 14.6438 13.6506 14.8175 14.2033L19.6049 29.3672C19.7786 29.9199 19.7408 30.4242 19.5205 30.4935C19.3003 30.5627 18.9808 30.1706 18.8071 29.6179L14.0196 14.454Z" fill="#201E1E"/>
<path d="M8.86868 13.6584C9.20896 12.9308 9.98827 12.5365 10.973 12.4871C11.8007 12.4458 12.8073 12.651 13.7947 13.1123L13.9446 13.1829L14.0594 12.9856C14.6014 12.0649 15.2976 11.3386 15.9883 10.9063C16.8243 10.3835 17.689 10.2609 18.3843 10.6633C18.874 10.9466 19.177 11.4596 19.3039 12.0884C19.4173 12.6495 19.3927 13.3199 19.2367 13.9849L19.2111 14.0906C18.7439 13.925 18.22 13.9628 17.6891 14.1725C17.7454 14 17.7937 13.8277 17.8335 13.6576C17.944 13.1865 17.9658 12.7343 17.8939 12.3782C17.8457 12.1399 17.7681 11.9667 17.6636 11.9063C17.4697 11.794 17.1343 11.8867 16.75 12.127C16.2431 12.444 15.7207 12.9968 15.2993 13.7112L15.277 13.7532C15.204 13.8797 15.1323 14.0094 15.0713 14.1302C15.0146 14.2428 14.9648 14.3482 14.9279 14.4367C14.911 14.4791 14.8898 14.5207 14.8641 14.5606C14.6492 14.8939 14.2043 14.99 13.8708 14.7751C13.7985 14.7286 13.704 14.6753 13.5994 14.6197L13.5555 14.5986C13.3855 14.51 13.2689 14.4525 13.1875 14.4142C12.4178 14.0545 11.6553 13.8933 11.0462 13.9237C10.5933 13.9465 10.2656 14.0623 10.1706 14.2654C10.1194 14.3747 10.1548 14.5611 10.2516 14.7841C10.3964 15.1175 10.6729 15.4758 11.033 15.799C11.1629 15.9155 11.3012 16.0294 11.446 16.1385C10.8906 16.2702 10.4391 16.5392 10.1508 16.9422L10.0694 16.8701C9.56072 16.4137 9.15744 15.8779 8.9293 15.353C8.67373 14.7647 8.62884 14.1706 8.86835 13.6581L8.86868 13.6584Z" fill="#201E1E"/>
<path d="M9.98762 17.2207C10.3279 16.4931 11.1072 16.0989 12.0919 16.0495C12.9196 16.0081 13.9262 16.2134 14.9137 16.6746L15.0636 16.7452L15.1783 16.5479C15.7204 15.6272 16.4166 14.9009 17.1073 14.4686C17.9432 13.9459 18.8079 13.8233 19.5033 14.2256C19.9929 14.509 20.296 15.022 20.4229 15.6507C20.5362 16.2118 20.5116 16.8822 20.3556 17.5472C20.16 18.3807 19.8017 19.2571 19.3034 20.0268C18.8468 20.7322 18.2667 21.3566 17.5777 21.7923C17.2791 21.9811 17.0544 22.1019 16.7882 22.188C16.5217 22.2742 16.2638 22.3084 15.9014 22.3253C15.087 22.3632 14.2526 22.1831 13.4731 21.8657C12.623 21.5198 11.8266 21.0054 11.1886 20.4328C10.68 19.9764 10.2767 19.4405 10.0486 18.9157C9.79299 18.3274 9.74811 17.7332 9.98762 17.2207ZM12.1652 17.4862C11.7123 17.509 11.3846 17.6248 11.2896 17.8279C11.2384 17.9372 11.2738 18.1236 11.3706 18.3466C11.5154 18.68 11.7919 19.0383 12.152 19.3615C12.6722 19.8284 13.3224 20.2481 14.0164 20.5308C14.6166 20.775 15.2431 20.9146 15.8334 20.8871C16.0729 20.8759 16.2268 20.8585 16.346 20.8201L16.3488 20.8193C16.4678 20.781 16.6054 20.7035 16.8103 20.5739C17.309 20.2588 17.7418 19.7862 18.0937 19.2428C18.5006 18.6145 18.7929 17.8996 18.9525 17.2199C19.0629 16.7488 19.0847 16.2966 19.0128 15.9405C18.9647 15.7022 18.8871 15.529 18.7826 15.4686C18.5887 15.3564 18.2532 15.449 17.8689 15.6893C17.3621 16.0063 16.8396 16.5592 16.4183 17.2735L16.3959 17.3155C16.323 17.442 16.2513 17.5717 16.1903 17.6925C16.1335 17.8051 16.0838 17.9105 16.0468 17.999C16.0299 18.0414 16.0087 18.083 15.983 18.1229C15.7681 18.4562 15.3233 18.5523 14.9897 18.3374C14.9174 18.291 14.8229 18.2376 14.7184 18.1821L14.6744 18.161C14.5045 18.0723 14.3879 18.0148 14.3065 17.9766C13.5368 17.6168 12.7742 17.4557 12.1651 17.486L12.1652 17.4862Z" fill="#201E1E"/>
<path d="M11.4818 21.9761C11.822 21.2485 12.6014 20.8542 13.5861 20.8048C14.4137 20.7634 15.4204 20.9687 16.4078 21.43L16.5577 21.5006L16.6724 21.3033C17.2145 20.3826 17.9107 19.6563 18.6014 19.224C19.4373 18.7012 20.302 18.5786 20.9974 18.9809C21.487 19.2643 21.7901 19.7773 21.917 20.406C22.0304 20.9672 22.0058 21.6375 21.8497 22.3026C21.6541 23.136 21.2959 24.0124 20.7976 24.7822C20.341 25.4875 19.7608 26.112 19.0718 26.5477C18.7732 26.7365 18.5485 26.8573 18.2824 26.9434C18.0158 27.0296 17.7579 27.0638 17.3955 27.0807C16.5811 27.1186 15.7468 26.9384 14.9672 26.6211C14.1172 26.2751 13.3207 25.7607 12.6828 25.1881C12.1741 24.7318 11.7708 24.1959 11.5427 23.671C11.2871 23.0828 11.2423 22.4886 11.4818 21.9761ZM13.6593 22.2416C13.2065 22.2644 12.8788 22.3802 12.7837 22.5833C12.7326 22.6926 12.7679 22.879 12.8648 23.102C13.0095 23.4354 13.2861 23.7937 13.6462 24.1169C14.1663 24.5838 14.8165 25.0034 15.5105 25.2862C16.1107 25.5304 16.7372 25.67 17.3276 25.6425C17.5671 25.6313 17.7209 25.6139 17.8401 25.5755L17.8429 25.5746C17.9619 25.5363 18.0995 25.4589 18.3045 25.3293C18.8031 25.0141 19.2359 24.5416 19.5879 23.9982C19.9947 23.3699 20.287 22.6549 20.4466 21.9753C20.5571 21.5042 20.5789 21.0519 20.507 20.6958C20.4588 20.4576 20.3812 20.2844 20.2767 20.224C20.0828 20.1117 19.7473 20.2043 19.3631 20.4446C18.8562 20.7617 18.3337 21.3145 17.9124 22.0289L17.89 22.0709C17.8171 22.1974 17.7454 22.3271 17.6844 22.4479C17.6277 22.5605 17.5779 22.6659 17.541 22.7544C17.5241 22.7968 17.5029 22.8384 17.4772 22.8782C17.2622 23.2116 16.8174 23.3077 16.4838 23.0928C16.4116 23.0463 16.317 22.993 16.2125 22.9374L16.1686 22.9163C15.9986 22.8277 15.882 22.7702 15.8006 22.7319C15.0309 22.3722 14.2684 22.211 13.6593 22.2414L13.6593 22.2416Z" fill="#201E1E"/>
<path fill-rule="evenodd" clip-rule="evenodd" d="M34.2617 17.3881C34.9838 18.1198 34.4495 19.818 33.0683 21.1813C32.7824 21.4635 32.483 21.709 32.1809 21.9148C33.3776 22.2688 34.1871 22.9587 34.1493 23.7098C34.1067 24.5535 32.9123 25.2302 31.5055 25.4679C31.4119 25.4838 31.3197 25.4848 31.227 25.4783C30.7441 24.8964 29.7452 24.4439 28.5416 24.3066L28.5415 24.3067L28.5351 24.3059L28.5288 24.3053L28.5224 24.3045L28.516 24.3037L28.5097 24.3031L28.5072 24.3026L28.503 24.3023L28.4968 24.3017L28.4904 24.3009L28.484 24.3001L28.4777 24.2994L28.4712 24.2988L28.4649 24.2982L28.4585 24.2974L28.4521 24.2969L28.4457 24.2961L28.4447 24.2959L28.4393 24.2953L28.4329 24.2948L28.4265 24.294L28.4201 24.2936L28.4137 24.2928L28.4073 24.2923L28.4009 24.2915L28.3945 24.291L28.388 24.2905L28.3821 24.2899L28.3816 24.2897L28.3752 24.2892L28.3687 24.2886L28.3623 24.2881L28.3557 24.2875L28.3495 24.2868L28.3431 24.2863L28.3365 24.2857L28.3301 24.2852L28.3235 24.2846L28.3189 24.2844L28.317 24.2842L28.3106 24.2837L28.304 24.2831L28.2975 24.2828L28.2911 24.2823L28.2845 24.2816L28.2781 24.2812L28.2717 24.2807L28.265 24.2802L28.2586 24.2797L28.2555 24.2795L28.2519 24.2792L28.2453 24.2789L28.2388 24.2782L28.2322 24.2779L28.2258 24.2774L28.2193 24.277L28.2129 24.2766L28.2062 24.2761L28.1996 24.2757L28.1932 24.2752L28.1916 24.2751L28.1866 24.2749L28.1801 24.2746L28.1735 24.2742L28.167 24.2736L28.1604 24.2732L28.1539 24.2729L28.1473 24.2725L28.1407 24.2722L28.1342 24.2719L28.1276 24.2715L28.1199 24.2712L28.1184 24.2712L28.112 24.2707L28.109 24.2707L28.1041 24.2705L28.0996 24.2702L28.0957 24.2701L28.0904 24.2698L28.088 24.2698L28.0808 24.2694L28.0801 24.2693L28.0721 24.2689L28.0715 24.2689L28.0643 24.2686L28.0622 24.2686L28.0563 24.2682L28.0528 24.2681L28.0481 24.268L28.0431 24.2678L28.04 24.2677L28.0338 24.2673L28.032 24.2673L28.0244 24.2671L28.0241 24.2671L28.016 24.2668L28.0148 24.2668L28.008 24.2664L28.0053 24.2664L28.0001 24.2662L27.9959 24.2659L27.9917 24.2659L27.9864 24.2655L27.9837 24.2655L27.9768 24.2652L27.9756 24.2652L27.9677 24.265L27.9673 24.2651L27.9595 24.2648L27.9578 24.2648L27.9515 24.2644L27.9482 24.2644L27.9433 24.2642L27.9385 24.2642L27.935 24.2642L27.9289 24.264L27.9269 24.2638L27.9193 24.2636L27.9187 24.2636L27.9105 24.2634L27.9096 24.2634L27.9026 24.2632L27.9001 24.263L27.8944 24.263L27.8904 24.2628L27.8859 24.2628L27.8809 24.2628L27.8712 24.2626L27.8698 24.2624L27.8616 24.2622L27.8534 24.262L27.852 24.262L27.8454 24.2619L27.8423 24.2618L27.8372 24.2617L27.8327 24.2617L27.8289 24.2617L27.823 24.2615L27.8207 24.2615L27.8132 24.2614L27.8125 24.2613L27.8044 24.2612L27.8037 24.2614L27.7962 24.261L27.794 24.2612L27.788 24.2611L27.7843 24.2609L27.7795 24.2609L27.7746 24.261L27.7715 24.2609L27.7649 24.2608L27.7633 24.2607L27.7554 24.2608L27.7551 24.2608L27.747 24.2607L27.7455 24.2607L27.7387 24.2606L27.736 24.2606L27.7306 24.2606L27.7263 24.2607L27.7223 24.2605L27.7166 24.2605L27.7141 24.2606L27.7069 24.2606L27.7059 24.2604L27.6977 24.2605L27.6973 24.2607L27.6897 24.2605L27.6877 24.2606L27.6815 24.2606L27.678 24.2607L27.6733 24.2607L27.6685 24.2606L27.6651 24.2605L27.6589 24.2606L27.6569 24.2606L27.6493 24.2607L27.6487 24.2607L27.6408 24.2608L27.6396 24.2607L27.6326 24.2609L27.6299 24.2608L27.6244 24.2609L27.6203 24.2611L27.6162 24.261L27.6107 24.2612L27.608 24.2611L27.5151 24.2631C27.4726 24.2173 27.4334 24.1707 27.3975 24.1232C27.3551 24.0905 27.3137 24.0549 27.2727 24.0166L27.2747 23.9329L27.2748 23.9314L27.2749 23.9247L27.275 23.9217L27.2752 23.9165L27.275 23.9121L27.2751 23.908L27.2752 23.9027L27.2753 23.8998L27.2755 23.8931L27.2755 23.8916L27.2755 23.8835L27.2755 23.8832L27.2756 23.8752L27.2756 23.874L27.2756 23.8668L27.2756 23.8641L27.2758 23.8586L27.2757 23.8546L27.2759 23.85L27.2758 23.8451L27.2758 23.8418L27.276 23.8354L27.2758 23.8334L27.2759 23.8257L27.276 23.8252L27.2759 23.817L27.276 23.8162L27.276 23.8087L27.276 23.8063L27.2761 23.8004L27.2759 23.7966L27.276 23.7919L27.276 23.7871L27.276 23.7835L27.2759 23.7774L27.2759 23.7753L27.2758 23.7677L27.276 23.767L27.2758 23.7503L27.2758 23.7485L27.2757 23.7421L27.2757 23.7388L27.2757 23.7337L27.2756 23.7291L27.2757 23.7252L27.2755 23.7194L27.2757 23.7169L27.2755 23.7097L27.2755 23.7085L27.2754 23.7003L27.2754 23.7L27.2754 23.692L27.2753 23.6904L27.2752 23.6836L27.275 23.6808L27.2751 23.6754L27.275 23.6711L27.275 23.6669L27.2749 23.6614L27.2747 23.6586L27.2746 23.6519L27.2746 23.6504L27.2746 23.6422L27.2743 23.6339L27.2743 23.6327L27.2742 23.6257L27.2741 23.6231L27.2741 23.6175L27.274 23.6134L27.274 23.609L27.2738 23.6039L27.2736 23.6008L27.2735 23.5944L27.2735 23.5926L27.2733 23.5848L27.2734 23.5844L27.273 23.5762L27.273 23.5753L27.2729 23.568L27.2728 23.5657L27.2727 23.5599L27.2726 23.5562L27.2725 23.5516L27.2723 23.5467L27.2724 23.5434L27.2721 23.5374L27.2721 23.5353L27.2719 23.5279L27.2717 23.5271L27.2715 23.5191L27.2715 23.5185L27.2712 23.511L27.2712 23.5089L27.271 23.503L27.271 23.4997L27.2709 23.4948L27.2708 23.4902L27.2706 23.4864L27.2705 23.4809L27.2705 23.4785L27.2701 23.4715L27.2703 23.4705L27.2699 23.4626L27.2699 23.4623L27.2697 23.4545L27.2697 23.453L27.2694 23.4468L27.2693 23.4436L27.2692 23.4387L27.269 23.4344L27.2689 23.4304L27.2687 23.4253L27.2687 23.4226L27.2684 23.4161L27.2683 23.4147L27.268 23.407L27.2676 23.4L27.2675 23.3929L27.2671 23.3859L27.2669 23.3791L27.2665 23.3721L27.2664 23.3651L27.266 23.3581L27.2656 23.3511L27.2653 23.3442L27.2652 23.3426L27.2649 23.3372L27.2645 23.3302L27.2643 23.3233L27.2639 23.3163L27.2635 23.3093L27.2632 23.3025L27.2626 23.2956L27.2622 23.2886L27.2618 23.2816L27.2617 23.2781L27.2616 23.2744L27.261 23.2676L27.2606 23.2606L27.2601 23.2537L27.2597 23.2467L27.2593 23.24L27.2589 23.233L27.2583 23.2261L27.2579 23.2191L27.2578 23.2142L27.2575 23.2121L27.257 23.2052L27.2567 23.1984L27.2562 23.1915L27.2556 23.1847L27.2551 23.1778L27.2545 23.1709L27.254 23.1641L27.2534 23.1572L27.253 23.1508L27.2529 23.1504L27.2523 23.1435L27.2518 23.1366L27.2512 23.1298L27.2507 23.1229L27.2501 23.1161L27.2496 23.1092L27.2489 23.1025L27.2483 23.0956L27.2477 23.0888L27.2476 23.0874L27.247 23.0821L27.2465 23.0752L27.2458 23.0685L27.2452 23.0616L27.2445 23.0549L27.244 23.048L27.2433 23.0413L27.2427 23.0345L27.2419 23.0276L27.2418 23.0248L27.2412 23.0206L27.2405 23.0139L27.2399 23.007L27.2392 23.0003L27.2385 22.9936L27.2378 22.9869L27.237 22.98L27.2363 22.9733L27.2356 22.9666C27.11 21.7673 26.6693 20.77 26.0943 20.2853C26.0884 20.1898 26.0905 20.095 26.108 19.999C26.3638 18.5953 27.0559 17.4098 27.9003 17.3783C28.9272 17.3403 29.8188 18.8812 29.8913 20.8206C29.9024 21.1209 29.8934 21.4126 29.8661 21.6922L29.8929 21.69C29.9179 21.4186 29.9263 21.1358 29.9156 20.8452C29.8965 20.3386 29.8218 19.8591 29.7033 19.4279C29.9148 19.124 30.1678 18.8225 30.4581 18.536C31.8392 17.1727 33.5443 16.6604 34.2664 17.392L34.2617 17.3881ZM25.2479 19.9894C26.2745 19.9514 27.1663 21.4922 27.2388 23.4317C27.2495 23.7149 27.2527 24.0414 27.2275 24.302C27.5001 24.2791 27.8138 24.2819 28.0984 24.2962C30.0366 24.3938 31.566 25.3056 31.5145 26.3318C31.4789 27.0375 30.5937 27.671 29.4915 27.9451C28.063 28.3005 26.2708 28.2483 24.9877 27.4923C24.4726 27.1892 24.3051 27.0285 24.0053 26.5055C23.2636 25.2121 23.234 23.4166 23.6084 21.9912C23.8968 20.8929 24.5418 20.0158 25.2479 19.9894Z" fill="#B192C3"/>
<path d="M34.7933 16.8984C35.3568 17.4693 35.4549 18.3392 35.1583 19.2827C34.9088 20.0753 34.3675 20.9479 33.5934 21.712C33.4484 21.8552 33.2837 22.0023 33.1021 22.1516L33.0867 22.1639C32.9166 22.303 32.7492 22.428 32.5855 22.5386C32.4015 22.6639 32.1797 22.6922 31.9814 22.635C31.781 22.5787 31.5804 22.5333 31.3837 22.5011C31.1662 22.4677 30.95 22.444 30.7389 22.4333C30.6225 22.4273 30.4914 22.4256 30.3493 22.4275C30.2044 22.4301 30.0753 22.4358 29.965 22.4452C29.5698 22.479 29.2216 22.1857 29.1878 21.7905C29.1842 21.7466 29.1843 21.7033 29.1883 21.6611C29.1991 21.5311 29.2074 21.4011 29.2111 21.274L29.2144 21.2252C29.2165 21.1165 29.2156 21.0031 29.2111 20.8855C29.2031 20.6733 29.1819 20.455 29.1492 20.2355L29.1442 20.193C29.1144 20.0083 29.0735 19.8201 29.0216 19.6316C28.9583 19.4012 29.0145 19.1665 29.1525 18.9925C29.2632 18.8361 29.3857 18.6775 29.5195 18.5191L29.5329 18.5038C29.6808 18.3296 29.8251 18.1724 29.9642 18.0352C30.7382 17.2711 31.6178 16.7412 32.4136 16.5021C33.3609 16.2174 34.2293 16.327 34.793 16.8981L34.7933 16.8984ZM33.7856 18.847C33.9204 18.4183 33.9247 18.0729 33.7662 17.9122C33.6079 17.7519 33.2621 17.7514 32.8317 17.8806C32.2494 18.0556 31.5854 18.4637 30.9785 19.0628C30.8395 19.1999 30.7226 19.3245 30.6273 19.4361L30.4955 19.5975C30.5208 19.7171 30.5437 19.8423 30.564 19.9721L30.5738 20.0255C30.6109 20.2744 30.6355 20.5439 30.6465 20.831L30.6507 20.9919L30.812 20.9987C31.0974 21.0132 31.3647 21.0411 31.6116 21.0811L31.6137 21.0832C31.7602 21.1071 31.9007 21.134 32.0344 21.1638L32.1884 21.0414C32.3054 20.9451 32.4363 20.826 32.5794 20.6847C33.1865 20.0854 33.6029 19.4268 33.7856 18.847Z" fill="#201E1E"/>
<path d="M29.5653 21.3876C29.9089 21.0485 30.341 20.9289 30.5302 21.1206C30.7194 21.3124 30.5943 21.7429 30.2507 22.082L20.8368 31.4083C20.4932 31.7474 20.0611 31.867 19.8719 31.6753C19.6826 31.4836 19.8078 31.0531 20.1514 30.7139L29.5653 21.3876Z" fill="#201E1E"/>
<path d="M27.8957 16.6661C28.6984 16.6365 29.4051 17.1496 29.8989 18.003C30.3138 18.7204 30.591 19.7097 30.6318 20.7987L30.6374 20.9643L30.8654 20.9763C31.932 21.0379 32.8961 21.3254 33.5962 21.7424C34.443 22.2472 34.9471 22.9604 34.9069 23.7628C34.8784 24.3278 34.5605 24.8318 34.0592 25.2318C33.6118 25.589 33.0042 25.8733 32.3414 26.0383L32.2357 26.0639C32.1696 25.5726 31.8966 25.1238 31.4676 24.7474C31.6468 24.7186 31.8221 24.6829 31.9916 24.6407C32.4611 24.5237 32.8734 24.3365 33.1573 24.1099C33.3473 23.9582 33.4658 23.8101 33.4718 23.6895C33.4831 23.4657 33.2475 23.2096 32.8582 22.9775C32.3447 22.6715 31.6142 22.4593 30.7863 22.4108L30.7387 22.41C30.5928 22.403 30.4447 22.3984 30.3094 22.3993C30.1833 22.4003 30.0668 22.4042 29.9713 22.4117C29.9258 22.4161 29.8791 22.4162 29.8319 22.4116C29.4372 22.3726 29.1485 22.0208 29.1873 21.6259C29.1956 21.5404 29.1999 21.4319 29.2016 21.3136L29.2002 21.2649C29.2015 21.0732 29.1994 20.9432 29.1962 20.8533C29.1646 20.0043 28.9597 19.2523 28.6544 18.7244C28.4273 18.3319 28.1746 18.0933 27.9505 18.1015C27.8299 18.1059 27.6802 18.2226 27.5261 18.4106C27.2956 18.6917 27.1032 19.1013 26.9802 19.5693C26.9358 19.738 26.8977 19.9131 26.8668 20.0917C26.4959 19.6578 26.0504 19.379 25.5603 19.3067L25.5872 19.2013C25.7608 18.5404 26.0533 17.9368 26.416 17.4941C26.8225 16.9981 27.3306 16.6867 27.8959 16.6657L27.8957 16.6661Z" fill="#201E1E"/>
<path d="M25.2384 19.2893C26.041 19.2596 26.7478 19.7728 27.2415 20.6262C27.6564 21.3435 27.9336 22.3328 27.9744 23.4219L27.98 23.5875L28.208 23.5994C29.2746 23.661 30.2387 23.9486 30.9388 24.3656C31.7857 24.8704 32.2897 25.5836 32.2495 26.3859C32.2211 26.951 31.9031 27.4549 31.4018 27.855C30.9544 28.2122 30.3469 28.4965 29.684 28.6615C28.8532 28.8682 27.9099 28.9498 26.9976 28.8582C26.1615 28.7742 25.341 28.5433 24.6387 28.1295C24.3344 27.9501 24.1242 27.8054 23.9261 27.6079C23.7277 27.4102 23.5794 27.1964 23.3989 26.8818C22.9931 26.1746 22.7723 25.3501 22.6984 24.5116C22.6179 23.5974 22.7117 22.654 22.9296 21.8249C23.1033 21.164 23.3958 20.5604 23.7584 20.1177C24.165 19.6217 24.673 19.3103 25.2384 19.2893ZM25.9969 21.3476C25.7698 20.9552 25.517 20.7166 25.293 20.7248C25.1724 20.7292 25.0227 20.8459 24.8685 21.0339C24.6381 21.3149 24.4457 21.7246 24.3226 22.1926C24.1449 22.8686 24.0686 23.6386 24.1341 24.3852C24.191 25.0307 24.353 25.6518 24.6472 26.1643C24.7666 26.3723 24.8523 26.5012 24.9409 26.5897L24.943 26.5918C25.0314 26.6801 25.1632 26.7671 25.3721 26.8903C25.8802 27.1899 26.4982 27.3591 27.1424 27.4239C27.8872 27.4988 28.6567 27.4323 29.3342 27.2638C29.8037 27.1469 30.216 26.9597 30.4999 26.733C30.6899 26.5813 30.8085 26.4332 30.8145 26.3127C30.8258 26.0889 30.5901 25.8328 30.2009 25.6007C29.6873 25.2946 28.9568 25.0824 28.1289 25.0339L28.0813 25.0332C27.9355 25.0261 27.7874 25.0216 27.652 25.0225C27.5259 25.0234 27.4095 25.0273 27.3139 25.0349C27.2684 25.0392 27.2217 25.0394 27.1745 25.0347C26.7798 24.9958 26.4911 24.6439 26.5299 24.2491C26.5382 24.1636 26.5425 24.0551 26.5442 23.9368L26.5429 23.888C26.5441 23.6963 26.542 23.5664 26.5388 23.4765C26.5073 22.6274 26.3023 21.8755 25.997 21.3475L25.9969 21.3476Z" fill="#201E1E"/>
</svg>
