<svg width="138" height="100" viewBox="0 0 138 100" fill="none" xmlns="http://www.w3.org/2000/svg">
<path d="M128.02 56.269C89.4735 81.3027 37.1927 78.1634 4.07251 45.1125C2.78976 43.8243 4.38439 41.5633 5.85193 42.8105C40.0935 71.8833 87.6838 78.1351 126.564 54.3524C127.867 53.5599 129.338 55.421 128.02 56.269V56.269Z" fill="#FEFEFE"/>
<path d="M100.62 51.4742C111.663 53.0989 122.775 52.8086 133.016 47.8929C134.976 46.9467 137.553 49.3264 136.478 51.3576C129.557 64.3527 120.932 75.3122 109.396 84.4363C108.079 85.472 106.235 83.6527 107.322 82.3369C116.097 71.588 124.517 60.4543 131.933 48.7182L135.048 52.7885C123.23 56.174 111.872 57.6745 99.8358 54.4755C98.1182 54.0228 98.903 51.2174 100.62 51.4742Z" fill="#FEFEFE"/>
</svg>
