<svg width="227" height="91" viewBox="0 0 227 91" fill="none" xmlns="http://www.w3.org/2000/svg">
<g clip-path="url(#clip0_286_4443)">
<path d="M65.9702 61.4925L62.8127 61.3799V62.3935L79.3895 62.6187L79.5023 61.6051H76.3448L76.5703 44.261L87.2832 44.3737L86.9449 61.7177H83.7874V62.7313L100.59 62.9566V61.943H97.4322L97.6577 44.261L66.1958 43.8105L65.9702 61.4925Z" fill="#E62854"/>
<path d="M46.1197 48.203C52.6602 50.1176 55.9304 51.6943 55.9304 56.0867C55.8176 60.0285 52.3218 61.6052 49.0516 61.6052C43.1877 61.4926 38.1132 55.1857 35.5196 49.7797H34.6174L34.9557 62.5062H35.7451C36.1962 61.4926 36.5345 60.9295 37.3238 60.9295C38.7898 60.9295 43.3005 62.6188 48.4878 62.7315C56.3815 62.8441 61.6815 57.8886 61.7943 50.1176C61.7943 47.4146 61.2304 45.2748 60.2155 43.5854L37.3238 43.2476C39.2409 45.8379 42.5111 47.1894 46.1197 48.203Z" fill="#E62854"/>
<path d="M126.525 46.8515C126.412 57.5508 125.51 62.7314 119.533 62.6188C113.331 62.5062 112.767 56.7624 112.88 46.7389V44.4864L101.941 44.3738C101.941 44.599 101.941 44.7117 101.941 44.9369C101.716 56.6498 107.354 63.6324 119.307 63.8577C131.599 64.0829 137.35 56.7624 137.576 44.9369L126.525 44.8243V46.8515Z" fill="#E62854"/>
<path d="M139.944 45.3873C139.718 58.1137 146.597 64.1954 157.987 64.4207C163.85 64.5333 166.782 62.8439 168.587 62.9566C169.489 62.9566 169.602 63.2944 170.053 64.0828H170.616L171.18 52.1447H170.165C167.121 59.0147 163.512 63.5197 159.227 63.4071C153.363 63.2944 150.657 56.9875 150.769 47.0766V45.0494L139.944 44.9368C139.944 45.0494 139.944 45.162 139.944 45.3873Z" fill="#E62854"/>
<path d="M176.479 63.0691L173.547 62.9565V63.9701L189.786 64.308L189.898 63.2944L186.966 63.1818L187.192 46.2882L187.643 46.1756L196.213 63.2944H193.732V64.308L210.873 64.5332V63.5196H207.941L199.145 45.7251L176.705 45.3872L176.479 63.0691Z" fill="#E62854"/>
<path d="M48.1514 40.7697C42.7386 39.4182 39.0173 38.1793 39.0173 34.2375C38.9045 31.084 41.6109 28.8315 45.445 28.7189C50.9706 28.6063 54.6919 33.8996 57.5111 38.7424H58.4132L57.8494 27.9305H57.2856C56.9473 28.6063 56.7217 29.0568 55.7068 29.0568C53.9026 29.0568 51.0834 27.48 46.1216 27.5927C37.8896 27.7053 33.6045 33.4491 33.7173 39.4182C33.83 42.7969 34.7322 45.2746 36.3109 47.0766L59.2026 46.6261C56.609 43.0221 52.2111 41.7833 48.1514 40.7697Z" fill="#E62854"/>
<path d="M96.1903 28.1559H99.3478V27.1423L82.6582 27.3676V28.3812H85.8157L86.154 44.9369L75.5539 45.1621L75.2156 28.6064L78.2603 28.4938V27.4802L61.5708 27.8181L61.6836 28.8317H64.7283L65.1793 46.401L96.5286 45.8379L96.1903 28.1559Z" fill="#E62854"/>
<path d="M111.865 44.0358C111.639 33.1113 111.977 27.4801 118.405 27.3674C124.833 27.2548 125.284 32.6608 125.397 43.5853V45.2746L136.448 45.0494C136.448 45.0494 136.448 45.0494 136.448 44.9367C136.222 32.886 130.246 25.9033 118.743 26.1286C107.128 26.3538 100.926 33.787 100.926 45.7251L111.865 45.4999V44.0358Z" fill="#E62854"/>
<path d="M149.642 42.5718C149.416 31.5347 152.235 26.5793 157.648 26.4666C162.272 26.354 165.542 30.859 168.587 37.3911H169.602L168.925 25.7909H168.361C168.023 26.4666 167.797 26.9171 166.895 26.9171C164.978 26.9171 162.384 25.3404 156.859 25.453C146.033 25.6783 138.816 32.4357 138.816 45.0496L149.642 44.8243V42.5718Z" fill="#E62854"/>
<path d="M194.186 36.4901L203.208 26.1287L206.365 26.0161V25.0024L197.005 25.2277V26.2413L201.29 26.1287L186.518 43.1349L186.067 43.2475L185.729 26.4665L188.661 26.3539V25.3403L172.422 25.6782V26.6918H175.354L175.692 44.2611L198.133 43.8106L194.186 36.4901Z" fill="#E62854"/>
<path d="M38.5663 44.937C38.6791 44.8244 38.7919 44.5991 38.9046 44.4865C39.0174 44.3739 39.1302 44.1486 39.2429 43.9234C39.3557 43.6981 39.3557 43.5855 39.3557 43.4729C39.3557 43.135 39.0174 42.9098 38.5663 42.7971C37.1004 42.9098 35.5216 43.0224 34.0557 43.0224C32.5897 43.0224 31.011 43.135 29.4322 43.135L31.2365 38.1796C31.3493 37.9543 31.5748 37.7291 31.8003 37.5038C32.0259 37.2786 32.2514 37.2786 32.4769 37.166H33.4918C33.9429 37.166 34.2812 37.166 34.6195 37.166C34.9578 37.166 35.2961 37.2786 35.7472 37.3912H38.6791C39.694 37.3912 40.7089 37.3912 41.7238 37.3912C43.3026 37.3912 44.7685 37.5038 46.3473 37.3912C47.926 37.3912 49.5047 37.3912 51.0835 37.5038C51.309 37.5038 51.5346 37.3912 51.8729 37.2786C52.0984 37.166 52.2112 36.9407 52.2112 36.6028C52.0984 36.265 51.8729 35.9271 51.6473 35.5892C51.4218 35.2514 51.0835 35.0261 50.7452 34.8009L22.1024 34.6882C22.1024 34.8009 22.2151 35.0261 22.3279 35.364C22.4407 35.7018 22.5534 35.9271 22.779 36.1523C23.0045 36.3776 23.1173 36.7155 23.3428 36.8281C23.5683 37.0533 23.7939 37.166 24.0194 37.166H25.4854C25.8237 37.166 26.162 37.166 26.5003 37.0533C26.8386 37.0533 27.1769 37.0533 27.5152 36.9407C27.7407 36.9407 27.8535 37.0533 27.8535 37.2786C27.9662 37.3912 28.079 37.3912 28.079 37.6165C28.079 37.7291 28.079 37.9543 27.9662 38.0669C27.6279 38.8553 27.2896 39.7563 26.9513 40.5447C26.613 41.333 26.2747 42.1214 25.9364 43.0224C24.9215 43.0224 23.7939 43.0224 22.779 43.135C21.7641 43.2476 20.6364 43.2476 19.5087 43.2476C19.1704 43.2476 18.8321 43.3603 18.7194 43.5855C18.4938 43.8108 18.3811 44.036 18.3811 44.2613C18.2683 44.4865 18.2683 44.8244 18.2683 45.1622C18.2683 45.5001 18.2683 45.7254 18.3811 45.9506H18.6066L25.0343 45.7254C23.9066 48.541 22.6662 51.4692 21.5385 54.2848C20.4109 57.1004 19.2832 60.0286 18.1555 62.8442C18.1555 62.9568 18.2683 63.182 18.3811 63.4073C18.4938 63.7452 18.6066 64.083 18.8321 64.4209C18.9449 64.7588 19.1704 65.0966 19.2832 65.3219C19.396 65.5471 19.6215 65.6598 19.7343 65.6598C19.9598 65.6598 20.1853 65.5471 20.4109 65.3219C20.6364 65.0966 20.8619 64.7588 21.0875 64.4209C21.313 64.083 21.4258 63.7452 21.5385 63.4073C21.6513 63.0694 21.7641 62.8442 21.8768 62.7316C22.6662 60.5917 23.4556 58.4518 24.1322 56.4246C24.9215 54.3974 25.7109 52.3702 26.3875 50.3429C26.9513 48.7662 27.6279 47.0768 28.4173 45.3875L38.1153 44.937C38.3408 45.1622 38.4536 45.1622 38.5663 44.937ZM19.0577 44.7117V44.3739L19.2832 44.2613V44.3739H19.0577L19.2832 44.5991L19.0577 44.7117ZM19.2832 45.1622H19.396H19.2832ZM19.396 44.2613V44.036L19.6215 44.2613H19.396ZM20.4109 45.5001V45.3875H20.5236L20.4109 45.5001ZM21.6513 44.3739L21.8768 44.5991V44.8244L21.6513 44.5991V44.3739ZM21.8768 45.3875H21.7641V45.2749L21.8768 45.0496H21.9896L21.8768 45.3875ZM22.3279 44.3739L22.4407 44.2613V44.3739H22.3279ZM22.779 44.2613H22.6662L23.0045 44.036L22.779 44.2613ZM21.6513 56.4246L21.8768 56.312L21.6513 56.4246ZM27.2896 45.9506V46.1759V45.9506ZM26.613 44.2613H26.5003V44.036L26.613 44.2613ZM26.2747 47.5273H26.5003L26.2747 47.7526H26.5003V47.8652H26.613V47.9778L26.162 47.8652V47.9778H26.0492V47.8652L25.7109 47.7526H25.8237L26.0492 47.8652H26.162V47.7526V47.5273H26.2747ZM26.5003 48.2031H26.613V48.3157L26.5003 48.541L26.162 48.6536V48.541L26.5003 48.2031ZM25.8237 48.8788L25.7109 48.6536L25.8237 48.8788ZM26.162 45.9506L26.0492 45.838L26.162 45.9506ZM26.162 44.5991V44.8244H26.0492L26.162 44.5991ZM26.0492 47.3021H26.162V47.4147L26.0492 47.5273H25.8237V47.4147V47.3021H26.0492ZM25.8237 46.9642L25.7109 46.739H25.8237V46.9642ZM25.8237 45.838L25.7109 46.1759L25.8237 45.838ZM25.7109 46.9642V47.1895L25.4854 46.9642H25.7109ZM25.4854 47.8652H25.3726V47.7526L25.4854 47.8652ZM25.3726 50.7934H25.2598V50.5682H25.3726V50.7934ZM23.1173 44.7117H23.23V44.937L23.1173 44.7117ZM23.9066 44.8244V44.5991H24.0194L23.9066 44.8244ZM25.1471 44.5991H25.2598V44.8244L25.1471 44.5991ZM24.1322 50.6808L24.3577 50.9061H24.1322H24.0194V50.6808H24.1322ZM24.1322 51.6944V51.9197H24.0194V51.6944V51.5818L24.1322 51.3565L24.3577 51.5818H24.1322V51.6944ZM24.0194 51.0187V51.2439H24.1322V51.3565H24.0194V51.2439L23.7939 51.0187H24.0194ZM23.7939 52.2575H24.0194V52.1449V51.9197H24.1322V52.1449L24.0194 52.2575V52.4828L23.7939 52.5954H23.6811V52.4828V52.2575H23.7939ZM23.6811 54.7353V54.3974H23.7939V54.6226L23.6811 54.7353ZM23.5683 51.6944V51.9197H23.3428L23.5683 51.6944ZM23.3428 52.5954L23.23 52.708L23.3428 52.5954H23.23V52.2575L23.3428 52.5954ZM23.0045 53.3838V53.609V53.7216H22.8917L22.779 53.609V53.3838H23.0045ZM23.0045 57.8887L23.1173 57.6635V57.8887H23.0045ZM22.5534 54.2848H22.779H22.5534L22.4407 54.3974L22.5534 54.2848ZM22.4407 55.2984V55.1858H22.5534V55.2984H22.4407ZM22.4407 54.7353H22.5534L22.4407 54.9605H22.5534L22.4407 55.0731H22.3279V54.9605L22.4407 54.7353ZM22.3279 55.1858V55.2984L22.1024 55.1858H22.3279ZM21.9896 57.8887V57.6635H22.1024L21.9896 57.8887ZM22.1024 56.0867L22.3279 55.9741V56.0867H22.1024ZM22.5534 56.5372V56.312H22.4407H22.3279L22.4407 56.0867V56.312H22.5534H22.779V56.5372H22.5534ZM23.0045 54.3974H22.8917V54.2848L23.0045 54.1721V54.3974L23.23 54.2848V54.1721H23.3428V53.9469H23.23V53.8343L23.3428 53.9469H23.5683V54.1721V54.2848H23.3428H23.23L23.0045 54.3974ZM23.4556 56.8751L23.3428 56.6499H23.6811L23.4556 56.8751ZM23.6811 55.5236V55.2984L23.5683 55.1858H23.6811L23.7939 55.2984L23.6811 55.5236ZM23.7939 54.7353H24.0194V54.9605L23.7939 54.7353ZM24.0194 53.8343V53.609L24.1322 53.4964V53.609L24.0194 53.8343ZM24.3577 52.708H24.1322H24.0194V52.5954L24.3577 52.708L24.1322 52.4828V52.2575H24.3577V52.4828V52.708H24.4705H24.3577ZM24.5832 50.5682H24.4705V50.3429L24.3577 50.2303H24.4705H24.5832L24.8088 50.3429H24.5832V50.5682ZM24.8088 50.5682L24.9215 50.3429V50.5682H24.8088ZM24.9215 50.9061L25.0343 50.5682V50.7934L24.9215 50.9061ZM25.2598 52.4828H25.0343V52.2575H25.2598V52.1449V51.9197H25.3726L25.2598 52.2575V52.4828ZM25.2598 51.6944V51.5818V51.3565L25.3726 51.5818V51.6944V51.9197H25.2598V51.6944H25.3726H25.2598ZM25.3726 51.2439V51.3565H25.2598V51.2439H25.3726L25.4854 51.0187V51.2439H25.3726ZM25.5981 49.3293V49.2167L25.8237 49.3293H25.5981ZM25.7109 50.7934V50.5682V50.4556L25.8237 50.5682L25.7109 50.7934ZM25.7109 50.2303H26.0492H25.7109ZM26.5003 48.9915V49.3293H26.2747L26.162 49.7798V50.0051V50.1177H26.0492H25.7109L25.8237 49.8924H26.162H26.0492V49.7798H25.8237V49.6672L26.0492 49.4419V49.3293H26.162V49.4419H26.0492L26.162 49.6672L26.2747 49.4419V49.3293V49.1041V48.9915V48.7662L26.5003 48.9915H26.613H26.5003ZM26.613 47.0768V46.739H26.8386V46.9642V47.0768H26.613ZM26.613 45.838L26.8386 45.6127V45.838H26.613ZM26.8386 45.5001V45.2749H26.9513L26.8386 45.5001ZM27.0641 45.5001H27.2896V45.6127L27.0641 45.838L26.9513 45.6127L27.0641 45.5001ZM27.0641 46.2885H27.2896V46.5137L26.9513 46.2885H27.0641ZM26.9513 46.6264H27.2896V46.739H27.0641L26.9513 46.6264ZM26.9513 47.5273L27.0641 47.4147L26.9513 47.5273ZM27.0641 47.3021H26.9513V47.1895H27.0641H27.2896L27.0641 47.3021ZM27.4024 45.3875V45.0496L27.5152 45.2749V45.3875H27.4024ZM27.8535 41.7835L27.7407 41.5583H27.8535H28.079V41.7835H27.8535ZM28.1918 42.5719V42.3466H28.3045L28.1918 42.5719ZM28.7556 41.5583V41.7835H28.6428L28.7556 41.5583ZM29.0939 41.4457L28.9812 41.5583L29.0939 41.4457ZM28.9812 42.3466L29.0939 42.234V42.3466H28.9812ZM30.4471 44.1486L30.3344 44.4865L30.4471 44.1486ZM29.6578 43.6981H29.8833V43.9234L29.6578 43.6981ZM29.8833 45.0496L29.9961 44.937V45.0496H29.8833ZM30.3344 44.8244L30.1088 44.5991L29.9961 44.4865L30.1088 44.2613H29.9961V44.1486H30.1088V44.2613V44.5991H30.3344V44.8244L30.4471 44.5991L30.3344 44.8244ZM30.8982 44.2613H30.7854H30.8982H31.1237H30.8982ZM31.462 44.7117V44.4865H31.5748V44.7117H31.462ZM32.2514 44.7117V44.4865H32.4769L32.2514 44.7117ZM32.5897 44.1486V43.9234L32.7025 44.1486H32.5897ZM32.928 44.2613L33.0408 44.1486L33.2663 44.2613H32.928ZM33.7174 44.4865L33.4918 44.7117V44.4865L33.7174 44.2613H33.8301V44.4865H33.7174ZM34.2812 43.8108L34.1684 43.5855H34.5067V43.8108H34.2812ZM35.9727 43.5855H36.0855V43.8108H35.9727V43.5855ZM36.311 44.4865V44.1486H36.0855H35.9727L36.0855 43.9234V44.1486H36.311L36.4238 44.2613L36.311 44.4865ZM36.4238 44.4865V44.7117V44.4865ZM36.5365 44.1486H36.7621H36.5365ZM37.1004 44.1486H36.8748H37.1004ZM37.5514 44.4865H37.6642V44.7117L37.5514 44.4865Z" fill="#380F14"/>
<path d="M45.1082 40.9951C44.7699 40.9951 44.4316 40.9951 43.9806 40.9951C43.6423 40.9951 43.304 40.9951 43.1912 41.1077C43.0784 41.2204 43.0784 41.5582 42.9657 41.8961C42.8529 42.234 42.7401 42.5718 42.6274 42.9097C42.5146 43.2476 42.4018 43.5855 42.4018 44.036C42.2891 44.3738 42.2891 44.7117 42.2891 44.8243C42.2891 44.9369 42.4018 45.1622 42.6274 45.2748C42.8529 45.3874 43.0784 45.5001 43.304 45.6127C43.5295 45.7253 43.8678 45.8379 44.0933 45.8379C44.3189 45.9506 44.5444 45.9506 44.7699 45.9506C44.8827 45.6127 45.1082 45.2748 45.221 44.937C45.4465 44.5991 45.5593 44.2612 45.6721 43.9233C45.7848 43.6981 45.7848 43.3602 46.0104 43.0223C46.1231 42.6845 46.2359 42.3466 46.2359 42.0087C46.2359 41.7835 46.1231 41.5582 45.8976 41.4456C45.7848 41.1077 45.4465 40.9951 45.1082 40.9951Z" fill="#380F14"/>
<path d="M47.6987 52.1448L47.5859 52.2574H47.6987V52.1448Z" fill="#380F14"/>
<path d="M41.0471 50.9058L40.9343 50.7932L41.0471 50.9058Z" fill="#380F14"/>
<path d="M60.6674 51.4691L60.5547 51.3564V51.4691H60.6674Z" fill="#380F14"/>
<path d="M92.6962 48.7662C93.0345 48.6536 93.26 48.5409 93.5983 48.4283C94.1622 48.2031 94.8388 47.9778 95.4026 47.7526C95.9664 47.5273 96.6431 47.3021 97.2069 46.9642C97.0941 46.8516 96.8686 46.6263 96.6431 46.4011C96.4175 46.0632 96.0792 45.838 95.7409 45.6127C95.4026 45.3875 95.0643 45.1622 94.8388 44.937C94.5005 44.8244 94.2749 44.7117 94.0494 44.8244C93.8239 44.937 93.7111 44.937 93.4856 45.0496C93.26 45.1622 93.1473 45.2748 92.9217 45.3875C92.5834 45.6127 92.3579 45.7253 92.0196 45.9506C91.6813 46.1758 91.4558 46.2885 91.1175 46.5137C90.8919 46.739 90.5536 47.0768 90.2153 47.4147C89.6515 47.9778 88.7494 48.6536 87.8472 49.5545C86.8323 50.4555 85.8174 51.3565 84.6898 52.2575C83.5621 53.1585 82.5472 53.9469 81.4195 54.6226C80.2918 55.2984 79.3897 55.6362 78.6003 55.7489C78.0365 55.7489 77.5854 55.6362 77.2471 55.5236C76.7961 55.1857 76.6833 54.8479 76.6833 54.2847C76.7961 54.2847 76.9088 54.2847 77.0216 54.1721C77.811 54.0595 78.4876 53.8343 79.1642 53.4964C79.8408 53.1585 80.5174 52.9333 81.194 52.5954C81.5323 52.4828 81.7578 52.2575 82.0961 52.1449C82.4344 51.9196 82.6599 51.807 83.111 51.6944C84.9153 50.5682 85.7047 49.4419 85.7047 48.4283C85.7047 47.3021 84.8025 46.1758 82.9982 45.1622C82.5472 44.937 81.9833 44.937 81.4195 45.2748C80.8557 45.6127 80.4046 45.838 80.0663 46.0632C79.1642 46.6263 78.3748 47.3021 77.5854 48.2031L70.7066 53.9469C71.0449 53.0459 71.3832 52.2575 71.7215 51.3565C72.0598 50.4555 72.3981 49.5545 72.8492 48.7662C72.962 48.5409 72.962 48.3157 72.962 48.0904C72.962 47.8652 72.962 47.6399 72.962 47.4147C72.8492 47.3021 72.8492 47.1895 72.8492 46.9642C72.8492 46.8516 72.7365 46.739 72.6237 46.6263C72.5109 46.2885 72.2854 45.9506 72.0598 45.6127C72.0598 45.5001 71.9471 45.5001 71.8343 45.3875C71.7215 45.2748 71.6088 45.2748 71.496 45.1622C71.0449 45.0496 70.5939 45.0496 70.2556 45.3875C70.03 45.3875 69.8045 45.6127 69.579 45.838C69.3534 45.9506 69.2407 46.0632 69.0151 46.1758C68.7896 46.2885 68.6768 46.4011 68.4513 46.5137C68.0002 46.8516 67.5492 47.1895 67.0981 47.5273C66.647 47.8652 66.196 48.2031 65.7449 48.6536C65.1811 49.2167 64.5045 49.6672 63.9406 50.1177C63.3768 50.5682 62.813 51.1313 62.2491 51.5818L63.1513 48.2031C63.1513 48.0904 63.0385 47.8652 62.9257 47.6399C62.813 47.4147 62.5874 47.1895 62.4747 47.1895C62.2491 47.1895 61.9108 47.3021 61.4597 47.6399C61.347 47.7526 61.1214 47.8652 61.0087 47.9778C60.8959 47.9778 60.7831 47.9778 60.7831 47.9778L55.2576 52.5954C55.032 52.708 54.8065 52.9333 54.4682 53.2711C54.1299 53.609 53.6788 53.9469 53.3405 54.1721C52.8895 54.51 52.5512 54.7352 52.1001 54.9605C51.7618 55.1857 51.4235 55.2984 51.198 55.2984C51.0852 55.2984 51.0852 55.2984 50.9724 55.1857C50.8597 55.0731 50.8597 54.8479 50.9724 54.51C51.0852 54.1721 51.198 53.9469 51.198 53.8343L53.2278 48.9914L55.8214 49.1041C55.8214 48.9914 55.8214 48.8788 55.8214 48.6536C55.8214 48.4283 55.8214 48.2031 55.8214 47.9778C55.8214 47.7526 55.8214 47.5273 55.7086 47.4147C55.5959 47.1894 55.5959 47.1895 55.3703 47.1895C55.1448 47.1895 54.9193 47.1895 54.581 47.1895C54.3554 47.1895 54.1299 47.1895 53.7916 47.1895L56.498 40.432C56.498 40.2068 56.3852 39.8689 56.2725 39.531C56.0469 39.0805 55.8214 38.8553 55.7086 38.7427C55.4831 38.63 55.3703 38.63 55.1448 38.7427C54.9193 38.8553 54.8065 38.9679 54.6937 39.1932C54.1299 40.5446 53.4533 41.8961 52.8895 43.2476C52.3256 44.5991 51.7618 45.9506 51.0852 47.3021C50.5213 47.3021 50.0703 47.3021 49.732 47.3021C49.3937 47.3021 48.9426 47.3021 48.266 47.3021C48.1532 47.4147 48.1532 47.4147 48.1532 47.5273C48.1532 47.6399 48.1532 47.7526 48.1532 47.8652C48.1532 47.9778 48.1532 48.0904 48.266 48.4283C48.3788 48.6536 48.3788 48.8788 48.4915 48.8788H48.9426L40.9362 55.5236L41.9511 52.5954L42.8532 49.8924C42.7404 49.7798 42.6277 49.6672 42.5149 49.4419C42.4021 49.2167 42.1766 49.1041 41.9511 48.8788C41.7255 48.6536 41.6128 48.5409 41.3872 48.3157C41.1617 48.2031 41.0489 48.0904 40.9362 48.0904C40.7106 48.0904 40.5979 48.2031 40.4851 48.5409C40.3723 48.7662 40.2596 48.9914 40.2596 49.1041C39.9213 49.7798 39.6957 50.4555 39.4702 51.1313C39.2446 51.807 39.0191 52.3701 38.6808 53.0459C38.568 53.1585 38.4553 53.3838 38.3425 53.8343C38.2297 54.2847 38.0042 54.7352 37.8914 55.0731C37.7787 55.5236 37.5531 55.9741 37.4404 56.312C37.3276 56.6498 37.2148 56.8751 37.2148 56.9877C37.4404 57.213 37.6659 57.4382 37.7787 57.6635C37.8914 57.7761 38.0042 58.0013 38.2297 58.114C38.3425 58.2266 38.4553 58.3392 38.568 58.3392C38.6808 58.4518 38.9063 58.5644 39.2446 58.9023C39.583 59.2402 39.8085 59.3528 39.9213 59.3528C40.034 59.3528 40.3723 59.2402 40.7106 58.9023C41.0489 58.5644 41.6128 58.2266 42.1766 57.7761C42.7404 57.3256 43.3043 56.8751 43.9809 56.312C44.6575 55.7489 45.2213 55.1857 45.7851 54.7352C46.349 54.2847 46.9128 53.8343 47.3639 53.3838C47.8149 52.9333 48.1532 52.708 48.3788 52.5954C48.6043 52.3701 48.8298 52.1449 49.0554 51.9196C49.1681 51.9196 49.1681 51.807 49.2809 51.807C48.9426 52.5954 48.6043 53.3838 48.266 54.1721C48.1532 54.6226 48.1532 55.1857 48.266 55.7489C48.266 55.8615 48.3788 56.0867 48.4915 56.312C48.7171 56.5372 48.8298 56.7625 49.1681 57.1003C49.3937 57.3256 49.6192 57.5508 49.8447 57.7761C50.0703 58.0013 50.2958 58.114 50.4086 58.2266C50.5214 58.3392 50.6341 58.2266 50.9724 58.2266C51.198 58.114 51.5363 58.0013 51.8746 57.8887C52.2129 57.7761 52.4384 57.5508 52.7767 57.4382C53.0022 57.3256 53.2278 57.213 53.3405 57.1003C54.0171 56.6498 54.8065 56.1994 55.4831 55.7489C55.9342 55.411 56.2725 55.1857 56.6108 54.8479C56.9491 54.51 57.2874 54.1721 57.7384 53.8343C58.1895 53.4964 58.5278 53.1585 58.8661 52.8206L58.9789 52.708C58.9789 52.8206 58.8661 52.9333 58.8661 53.0459C58.7533 53.3838 58.5278 53.8343 58.415 54.2847C58.3023 54.7352 58.0767 55.1857 57.964 55.5236C57.8512 55.8615 57.8512 56.0867 57.8512 56.1994C57.8512 56.1994 57.8512 56.312 57.964 56.4246C58.0767 56.5372 58.1895 56.6498 58.3023 56.7625C58.415 56.8751 58.5278 56.9877 58.6406 57.1003C58.7533 57.213 58.8661 57.213 58.8661 57.3256C59.0916 57.4382 59.3172 57.6635 59.5427 57.7761C59.7682 57.8887 59.9938 58.0013 60.1065 58.0013L60.3321 58.114C60.5576 57.7761 60.7831 57.4382 61.0087 57.213C61.2342 56.9877 61.4597 56.6498 61.5725 56.4246C62.1364 55.7489 62.5874 55.1857 63.1513 54.51C63.7151 53.9469 64.2789 53.3838 64.9555 52.708C65.4066 52.1449 65.9704 51.5818 66.5343 51.0187C67.0981 50.4555 67.6619 49.8924 68.3385 49.4419C68.3385 49.4419 68.4513 49.3293 68.5641 49.2167C68.6768 49.1041 68.9024 48.9914 69.1279 48.8788C69.3534 48.7662 69.4662 48.6536 69.6917 48.6536C69.8045 48.5409 69.9173 48.5409 70.03 48.5409C70.03 48.5409 70.03 48.7662 69.9173 49.1041C69.8045 49.4419 69.6917 49.8924 69.4662 50.2303C69.2407 50.6808 69.1279 51.0187 68.9024 51.4692C68.9024 51.5818 68.7896 51.807 68.6768 51.807C68.113 52.9333 67.5492 54.1721 66.9853 55.2984C67.0981 55.6362 67.2109 55.9741 67.4364 56.4246C67.6619 56.8751 67.8875 57.1003 68.113 57.3256C68.2258 57.4382 68.3385 57.5508 68.4513 57.6635C68.5641 57.7761 68.7896 57.8887 68.9024 57.8887C69.0151 57.8887 69.2407 57.6635 69.6917 57.4382C70.03 57.1003 70.5939 56.7625 71.0449 56.312C71.6088 55.8615 72.1726 55.411 72.7365 54.8479C73.0748 54.51 73.5258 54.1721 73.8641 53.8343C73.7514 54.2847 73.7514 54.7352 73.7514 55.1857C73.7514 55.5236 73.9769 55.8615 74.3152 56.1994C74.6535 56.5372 74.9918 56.7625 75.4429 56.9877C75.8939 57.213 76.345 57.4382 76.7961 57.5508C77.2471 57.6635 77.6982 57.7761 78.0365 57.7761C78.6003 57.7761 79.1642 57.6635 79.9535 57.5508C80.7429 57.4382 81.3067 57.213 81.7578 56.9877H81.8706C82.4344 56.6498 83.111 56.1994 83.6748 55.6362C84.3514 55.0731 84.9153 54.6226 85.4791 54.1721C86.043 53.7216 86.7196 53.1585 87.2834 52.5954C87.5089 52.3701 87.7345 52.2575 87.8472 52.0323L87.96 52.1449C87.96 52.0323 87.96 52.0323 88.0728 51.9196C88.4111 51.5818 88.8621 51.2439 89.2004 50.906C89.426 50.6808 89.6515 50.5682 89.7643 50.3429C89.7643 50.4555 89.877 50.4555 89.877 50.5682C90.1026 50.906 90.3281 51.2439 90.6664 51.4692C90.8919 51.807 91.1175 52.0323 91.343 52.2575C91.5685 52.5954 91.7941 53.0459 92.0196 53.4964C92.1324 53.9469 92.0196 54.3974 91.6813 54.8479C91.343 55.1857 91.0047 55.411 90.3281 55.411C89.5387 55.2984 88.8621 55.0731 88.4111 54.51C88.1855 54.2847 88.0728 54.0595 87.96 53.8343L85.5919 55.6362C85.7047 55.8615 85.7047 55.9741 85.8174 56.1994C86.2685 56.9877 87.0579 57.4382 87.8472 57.6635C88.7494 57.8887 89.5387 57.8887 90.4409 57.7761C90.7792 57.7761 91.2302 57.6635 91.6813 57.5508C92.1324 57.4382 92.5834 57.213 92.9217 56.9877C93.26 56.7625 93.7111 56.5372 93.9366 56.1994C94.275 55.8615 94.5005 55.5236 94.6133 55.1857C94.9516 54.51 94.9515 53.9469 94.8388 53.4964C94.726 53.0459 94.5005 52.5954 94.1622 52.2575C93.8239 51.9196 93.4856 51.5818 93.1473 51.3565C92.6962 51.1313 92.3579 50.906 92.0196 50.6808C91.6813 50.4555 91.4558 50.2303 91.343 50.005C91.2302 49.7798 91.2302 49.5546 91.5685 49.2167C92.1324 49.1041 92.3579 48.9914 92.6962 48.7662ZM55.4831 48.5409H55.2576H55.4831ZM55.4831 47.6399V47.7526V47.6399ZM55.4831 48.0904V48.3157L55.3703 48.2031L55.4831 48.0904ZM54.581 47.8652H54.6937H54.8065H54.9193H55.032L55.1448 47.7526L55.2576 47.8652V47.9778V47.8652H55.1448L55.032 48.0904L54.9193 47.9778H54.6937V47.8652H54.581ZM54.3554 47.7526V47.8652V47.7526ZM54.3554 47.8652V48.0904V47.8652ZM41.3872 53.2711L41.5 53.0459L41.3872 53.2711ZM41.1617 56.312L41.0489 56.1994V56.0867L41.1617 55.9741V56.0867H41.3872V56.1994H41.2745H41.1617V56.312ZM40.8234 56.7625H40.9362H40.8234ZM40.9362 57.7761V57.5508V57.7761ZM40.8234 56.5372L40.9362 56.4246V56.5372H40.8234ZM40.9362 54.0595H40.8234V53.9469V53.8343L40.9362 53.7216H41.0489V53.8343V53.9469V54.1721L40.9362 54.0595ZM41.3872 56.312V56.4246L41.2745 56.5372L41.1617 56.4246V56.312H41.3872ZM41.2745 52.8206H41.0489H41.2745L41.1617 52.708H41.2745V52.8206ZM41.3872 52.4828H41.5H41.3872ZM41.7255 52.3701L41.8383 52.2575L41.7255 52.3701ZM42.0638 51.807H41.9511H41.6128V51.5818H41.7255V51.4692H41.6128L41.7255 51.2439L41.5 51.0187H41.3872L41.6128 50.906H41.7255L41.8383 51.2439V51.0187V50.7934L42.0638 50.6808V50.7934V50.906V51.1313H41.9511V51.3565V51.4692V51.5818H42.1766L42.0638 51.807ZM41.5 50.2303H41.7255L41.8383 50.3429L41.7255 50.4555H41.9511V50.5682L41.7255 50.6808V50.4555H41.6128L41.3872 50.2303V50.005L41.5 50.2303ZM41.2745 50.005V49.8924H41.3872V50.005H41.2745ZM42.0638 50.005H41.9511V49.8924L42.0638 50.005ZM42.0638 49.5545V49.4419V49.5545ZM42.0638 51.2439V51.3565V51.2439ZM42.4021 49.4419C42.4021 49.5546 42.4021 49.5545 42.5149 49.5545C42.5149 49.5545 42.6277 49.5545 42.6277 49.6672V49.7798L42.4021 49.6672V49.4419ZM42.2894 50.6808L42.4021 50.7934L42.2894 50.6808H42.1766H42.2894ZM42.2894 50.4555L42.1766 50.6808V50.5682L42.2894 50.4555ZM42.2894 50.2303H42.1766H42.2894ZM42.2894 49.8924V50.1177H42.1766V50.005V49.8924H42.2894ZM41.9511 48.9914V49.1041V49.2167H42.0638C42.0638 49.3293 42.0638 49.3293 42.0638 49.3293H42.1766V49.4419H41.9511L41.8383 49.3293L41.9511 49.2167H41.8383V48.9914H41.9511ZM41.5 49.3293L41.8383 49.4419H41.7255L41.6128 49.6672H41.5V49.3293L41.2745 49.4419V49.2167V49.1041L41.5 49.3293ZM41.5 48.9914V49.2167L41.3872 49.1041L41.5 48.9914ZM41.2745 50.4555H41.5V50.5682L41.2745 50.4555V50.6808L41.0489 50.4555H41.2745ZM40.9362 50.2303H41.0489H40.9362L40.8234 50.4555L40.9362 50.2303ZM40.7106 50.5682V50.6808H40.9362H41.0489H41.1617V50.7934V50.906H40.9362V50.7934L40.7106 50.906V50.6808H40.5979L40.7106 50.5682ZM40.5979 51.3565H40.7106L40.5979 51.5818H40.8234L40.9362 51.3565V51.4692L41.0489 51.6944V51.807H40.9362H40.7106L40.5979 52.0323L40.4851 51.9196L40.5979 51.6944V51.5818H40.4851V51.4692L40.5979 51.3565ZM40.4851 51.1313V51.3565H40.3723L40.4851 51.1313ZM40.2596 51.5818H40.3723V51.807H40.2596V51.6944V51.5818ZM40.2596 52.3701L40.3723 52.2575H40.4851H40.7106H40.9362L40.8234 52.4828H40.9362V52.708L40.8234 52.8206L40.9362 52.9333H40.8234H41.1617L41.2745 53.0459L41.1617 53.1585H41.2745H41.3872V53.2711H41.1617L40.8234 53.0459L40.9362 53.1585V53.2711H40.8234V53.0459H40.5979L40.4851 52.9333H40.3723H40.2596L40.3723 52.708H40.4851V52.8206H40.5979V52.708V52.5954V52.4828H40.4851H40.3723L40.2596 52.3701V52.5954V52.3701ZM40.1468 52.9333V53.0459V53.1585V53.2711L40.3723 53.3838V53.4964L40.2596 53.609H40.4851V53.7216V53.8343H40.5979V53.9469L40.3723 53.8343H40.2596V53.609V53.3838V53.2711V53.1585H39.9213V53.0459V52.9333H40.034V52.8206L40.1468 52.9333ZM40.2596 55.0731V54.8479V55.0731ZM39.6957 55.7489H39.8085H39.4702H39.6957ZM39.6957 55.6362L39.8085 55.5236L39.6957 55.6362ZM40.034 54.6226L39.9213 54.51H40.034V54.6226ZM40.034 52.5954V52.708V52.8206H39.9213V52.708H40.034H39.9213L40.034 52.5954ZM39.6957 53.609L39.8085 53.7216L39.6957 53.8343L39.4702 53.9469V53.8343V53.609H39.6957ZM39.4702 53.9469V54.1721H39.3574L39.4702 53.9469ZM39.3574 55.0731V54.9605H39.4702H39.5829V55.0731V55.1857L39.3574 55.0731ZM39.5829 56.1994L39.6957 56.0867V56.1994H39.5829ZM39.8085 56.6498V56.4246V56.1994H39.9213L39.8085 56.6498ZM39.9213 55.0731V54.9605H40.034L39.9213 55.0731ZM40.2596 58.114H40.1468H40.2596ZM40.2596 55.6362L40.034 55.5236V55.2984H40.1468V55.1857V55.2984V55.411L40.2596 55.6362L40.5979 55.411V55.6362V55.7489H40.4851L40.2596 55.6362ZM40.5979 55.0731L40.3723 54.9605L40.4851 54.8479L40.5979 54.7352H40.7106H40.9362L41.0489 54.9605V55.0731H40.9362H40.7106H40.5979ZM40.8234 55.0731V55.2984H40.7106L40.8234 55.0731ZM40.8234 58.2266L40.7106 58.114H40.8234V58.2266ZM41.0489 57.5508V57.3256H41.1617L41.0489 57.5508ZM41.2745 57.3256L41.1617 57.1003H41.2745H41.3872L41.2745 56.9877L41.3872 57.1003L41.2745 57.3256ZM41.3872 57.5508V57.3256V57.5508L41.5 57.4382L41.3872 57.5508ZM41.9511 56.312H41.7255L41.6128 55.9741H41.7255L41.9511 56.312H42.0638H41.9511ZM49.1681 55.1857V55.0731V55.1857ZM51.0852 51.9196L50.9724 52.0323V51.9196H51.0852L51.198 51.6944L51.0852 51.9196ZM50.9724 53.2711H50.7469V53.1585H51.0852L50.9724 53.2711ZM50.4086 55.5236L50.5213 55.7489L50.4086 55.8615H50.2958L50.4086 55.5236ZM50.183 53.4964L50.2958 53.3838V53.4964H50.183ZM50.4086 53.1585V53.3838L50.183 53.4964V53.3838V53.2711H50.2958L50.183 52.9333H50.2958H50.4086V53.1585H50.6341H50.4086ZM50.183 54.3974H49.9575H50.183L50.0703 54.1721H50.183V54.3974ZM49.9575 52.708V52.9333V52.708ZM50.0703 50.3429V50.1177H50.183C50.183 50.2303 50.1831 50.2303 50.0703 50.3429ZM49.8447 49.3293V49.4419H49.6192L49.8447 49.3293ZM49.8447 49.1041H49.9575H49.8447ZM49.8447 49.8924V50.005H49.6192L49.8447 49.8924ZM49.8447 49.6672H49.9575V49.7798L49.8447 49.6672ZM50.0703 50.1177L49.9575 50.005L50.0703 50.1177ZM50.2958 49.7798V49.6672L50.5213 49.5545V49.4419L50.6341 49.5545C50.4086 49.5545 50.4086 49.6672 50.2958 49.7798ZM51.198 49.2167C51.3107 49.2167 51.3107 49.2167 51.198 49.2167V49.2167ZM51.4235 48.7662V48.6536V48.7662ZM51.9873 49.1041H52.1001L51.9873 49.2167H51.7618V49.1041V48.9914V49.1041H51.9873ZM51.7618 50.005V49.8924V50.005ZM51.649 49.1041V48.9914V49.1041ZM51.649 48.9914V48.8788V48.9914ZM51.0852 50.6808L51.3107 50.5682V50.6808H51.0852ZM51.198 51.4692V51.2439V51.4692ZM50.9724 50.3429L50.7469 50.5682H50.6341C50.6341 50.5682 50.6341 50.5682 50.7469 50.5682V50.4555C50.8597 50.3429 50.8597 50.3429 50.9724 50.3429ZM50.9724 52.708V52.5954H51.0852V52.708V52.8206L50.9724 52.708ZM50.9724 52.9333H50.8596V52.8206L50.9724 52.9333ZM50.9724 52.4828V52.3701H51.0852L50.9724 52.4828ZM50.9724 52.2575H50.8596V52.1449H50.9724H51.0852L50.9724 52.2575ZM51.0852 51.4692H50.9724H50.8596L50.9724 51.3565H51.0852V51.4692ZM51.3107 50.1177C51.198 50.1177 51.198 50.005 51.3107 50.1177V50.1177ZM50.2958 51.4692L50.5213 51.2439V51.1313L50.4086 51.0187V50.906H50.5213L50.6341 50.7934H50.7469V50.906V51.0187V51.1313H50.6341H50.5213V51.2439H50.4086V51.4692H50.2958ZM50.2958 52.4828H50.183L50.4086 52.2575V52.3701L50.2958 52.4828ZM50.5213 52.1449V51.9196H50.6341V52.0323L50.5213 52.1449ZM50.2958 52.0323L50.183 52.1449L50.2958 52.0323ZM50.183 52.2575H49.9575L50.0703 52.1449L50.183 52.2575ZM50.0703 53.4964V53.609V53.4964ZM50.0703 53.7216L49.9575 53.8343V53.7216H50.0703ZM50.6341 52.708L50.7469 52.5954L50.6341 52.708ZM50.6341 51.807L50.5213 51.5818V51.4692H50.6341L50.7469 51.2439V51.4692H50.6341H50.7469V51.6944L50.8596 51.807H50.6341ZM51.198 53.0459V52.8206L51.3107 52.708L51.198 53.0459ZM51.4235 51.2439L51.5363 51.4692H51.4235H51.3107L51.4235 51.2439ZM51.4235 51.6944V51.9196V51.6944ZM51.3107 52.0323L51.5363 51.9196V52.0323H51.3107ZM51.5363 52.2575V52.4828V52.2575ZM51.4235 50.906H51.198H51.4235L51.649 50.7934L51.4235 50.906ZM51.7618 51.807V51.5818V51.4692H51.8746L51.7618 51.807ZM51.8746 51.1313L51.649 51.0187V50.906V50.7934L51.4235 50.6808H51.198L51.3107 50.4555V50.3429L51.5363 50.4555V50.3429H51.4235H51.3107V50.2303L51.4235 50.1177H51.5363H51.649H51.7618V50.2303V50.3429L51.5363 50.5682V50.6808V50.7934L51.649 50.906V50.7934V50.906L51.8746 51.1313ZM52.1001 50.4555V50.5682L51.9873 50.6808H51.8746V50.5682L51.9873 50.4555H52.1001ZM52.1001 50.7934H51.9873L52.2129 50.5682L52.1001 50.7934ZM52.4384 49.1041V48.9914V49.1041L52.5512 49.2167L52.4384 49.1041ZM52.5512 48.5409V48.4283V48.5409ZM52.5512 48.2031V48.0904H52.6639V48.2031H52.5512ZM52.5512 47.6399L52.4384 47.5273H52.6639L52.5512 47.6399L52.7767 47.5273L52.5512 47.6399ZM52.8895 49.1041V48.8788V48.7662V48.5409L53.0022 48.6536L52.8895 49.1041ZM52.8895 48.4283L53.0022 48.5409L52.8895 48.4283ZM52.8895 46.4011L52.7767 46.1758H52.8895H53.0022L52.8895 46.4011ZM53.5661 47.9778L53.6788 47.7526L53.5661 47.9778ZM54.0171 47.8652H54.1299H54.0171ZM55.1448 43.135V43.2476V43.135ZM54.581 43.5855V43.6981H54.4682L54.581 43.5855ZM54.6937 44.036H54.581L54.4682 43.9234L54.6937 44.036ZM54.1299 45.0496H54.3554H54.1299ZM54.2427 44.4865V44.7117H54.1299L54.2427 44.4865ZM54.1299 43.4729L54.2427 43.6981H54.1299V43.4729ZM54.0171 44.1486V44.2612H53.9044H53.7916V44.1486H54.0171ZM53.9044 46.2885V46.5137V46.2885ZM53.6788 46.739V46.8516V46.739ZM53.5661 44.937H53.4533H53.5661ZM53.4533 46.9642V47.0768V47.1895V46.9642ZM53.115 47.8652L53.3405 47.7526V47.8652L53.115 48.0904V47.8652ZM52.8895 45.5001H53.0022L52.7767 45.838V45.6127L52.8895 45.5001ZM52.7767 46.8516V47.0768H52.6639L52.7767 46.8516ZM52.5512 46.5137H52.6639L52.5512 46.6263V46.739V46.6263V46.5137ZM52.5512 47.1895L52.7767 47.3021L52.8895 47.4147H52.7767L52.5512 47.1895ZM52.4384 48.7662V48.8788H52.3256L52.4384 48.7662ZM52.4384 49.5545V49.6672H52.3256L52.2129 49.7798L52.1001 49.8924V49.7798V49.8924H52.3256V50.005V50.2303L52.2129 50.005L52.1001 49.8924H51.8746V49.6672V49.5545V49.4419V49.3293L51.9873 49.4419H52.1001L52.2129 49.3293V49.2167L52.4384 49.5545ZM52.2129 47.6399L52.3256 47.7526V47.9778H52.2129V47.8652V47.6399ZM51.9873 48.4283V48.6536V48.7662H52.1001V48.8788V48.9914L51.7618 48.8788V48.7662H51.8746L51.7618 48.6536H51.649L51.9873 48.4283ZM51.649 48.2031V48.4283V48.3157H51.4235L51.649 48.2031ZM51.198 47.7526H51.3107L51.4235 47.8652H51.3107H51.198V47.7526ZM50.9724 48.0904H50.7469H50.9724ZM50.183 47.6399H50.2958V47.7526V47.8652H50.183V47.7526V47.6399ZM49.6192 47.6399V47.8652H49.5064V47.7526L49.6192 47.6399ZM49.2809 48.0904V47.9778H49.3937H49.5064H49.6192H49.732L49.8447 47.8652L49.9575 47.9778V48.0904H49.8447V47.9778L49.6192 48.2031L49.5064 48.0904H49.2809ZM49.5064 49.3293L49.6192 49.5545H49.5064H49.3937L49.5064 49.3293ZM49.0554 50.1177V50.2303H48.9426V50.1177H49.0554ZM48.9426 50.5682V50.3429V50.5682ZM48.6043 50.1177V50.3429L48.7171 50.4555H48.6043H48.3788L48.6043 50.1177ZM47.5894 50.906V51.1313V51.3565V51.1313V50.906ZM46.8 51.6944V51.807H46.6873L46.8 51.6944ZM45.5596 52.708V52.8206V52.708ZM45.2213 53.0459L45.1085 53.2711V53.1585L45.2213 53.0459ZM45.1085 53.2711H45.2213V53.3838V53.609H44.9958L45.1085 53.2711ZM44.9958 53.609V53.8343H44.883L44.9958 53.609ZM42.7404 55.1857V55.2984V55.1857ZM42.6277 55.8615L42.7404 55.9741V56.0867L42.6277 55.8615ZM42.8532 54.9605L42.966 54.8479L42.8532 54.9605ZM43.0787 56.0867V55.9741V55.8615L43.1915 55.9741L43.0787 56.0867ZM43.6426 55.0731H43.5298V54.9605V54.8479L43.6426 54.7352V54.8479V55.0731ZM43.8681 54.3974V54.1721V54.3974ZM43.8681 54.6226H44.0936H43.8681ZM43.8681 55.2984V55.1857H44.0936V55.2984H43.9809H43.8681ZM43.8681 55.7489V55.6362L44.0936 55.411H44.2064L43.8681 55.7489ZM44.4319 54.0595L44.2064 54.2847H44.4319V54.3974H44.2064V54.2847V54.0595V53.8343V53.7216L44.5447 53.4964L44.6575 53.7216L44.7702 53.8343H44.6575H44.5447L44.4319 54.0595ZM44.7702 55.0731L44.6575 54.6226L44.7702 55.0731ZM45.1085 54.0595H44.9958H44.883L44.9958 54.2847H44.883H44.7702V54.0595H44.883H44.9958L45.3341 53.9469V54.1721L45.1085 54.0595ZM45.4468 53.7216L45.2213 53.8343V53.7216V53.4964H45.3341H45.4468V53.7216ZM45.7851 54.0595H45.8979H45.7851ZM46.0107 53.7216H45.7851L45.8979 53.4964V53.2711L45.7851 53.1585L45.8979 53.0459H45.7851H45.5596V52.9333V52.8206L45.6724 52.708H45.7851V52.9333H45.6724H45.7851V53.0459V53.1585L45.8979 53.2711V53.3838V53.4964H46.1234V53.609L46.0107 53.7216ZM46.1234 52.9333H46.2362H46.1234ZM46.8 53.1585L46.5745 52.9333V53.0459V53.1585H46.4617V52.9333H46.5745H46.349H46.2362V52.8206H46.1234V52.5954H46.2362V52.708H46.349V52.5954V52.4828L46.2362 52.3701H46.1234L46.0107 52.5954H45.8979L46.349 52.1449H46.4617H46.6873L46.5745 52.3701H46.6873V52.5954L46.5745 52.708H46.4617H46.5745H46.6873V52.8206H46.9128V52.9333L46.8 53.1585ZM46.9128 52.8206H46.8V52.708H46.9128V52.8206ZM47.0256 52.3701H47.1383H47.0256ZM47.2511 51.5818L47.3639 51.3565V51.2439V51.3565H47.4766V51.4692L47.2511 51.5818L47.5894 51.4692H47.7022L47.8149 51.5818L47.7022 51.807H47.8149H47.7022H47.5894H47.3639L47.2511 51.5818ZM47.7022 52.3701L47.5894 52.2575V52.3701H47.4766V52.2575H47.5894V52.1449H47.7022H47.8149V52.2575L47.7022 52.3701ZM47.8149 51.2439L47.7022 51.1313H47.8149V51.2439ZM48.0405 50.6808V50.7934V50.906V50.6808ZM48.0405 51.3565V51.1313V51.3565ZM48.266 50.5682L48.3788 50.4555L48.266 50.5682L48.4915 50.6808L48.266 50.5682L48.3788 50.7934H48.266V50.5682ZM48.266 51.1313L48.3788 51.3565H48.266V51.1313ZM48.3788 51.807L48.266 51.6944H48.4915L48.3788 51.807ZM49.3937 50.4555V50.5682H49.2809H49.3937V50.7934L49.1681 50.906H48.9426L48.8298 50.7934H48.6043V50.5682H48.7171L48.8298 50.7934H48.9426H49.0554V50.6808V50.5682V50.4555V50.3429L49.2809 50.2303V50.1177V50.2303H49.3937L49.6192 50.4555H49.3937ZM49.6192 50.4555H49.8447V50.5682H49.6192V50.4555ZM49.5064 53.1585L49.6192 53.0459L49.5064 53.1585ZM49.5064 54.1721V53.9469H49.6192V54.1721V54.2847H49.5064V54.1721ZM49.6192 55.0731L49.732 55.1857L49.6192 55.0731ZM49.732 53.1585L49.8447 53.0459L49.732 53.1585ZM49.9575 54.7352L50.183 54.51V54.6226V54.7352H49.9575ZM50.0703 55.411L49.9575 55.1857V55.0731V55.1857L50.0703 55.2984V55.411ZM50.183 54.9605V55.0731V54.9605ZM50.5213 56.4246L50.2958 56.312V55.9741V56.0867L50.5213 56.4246ZM50.7469 54.1721L50.6341 54.0595V53.7216L50.7469 54.1721ZM50.7469 53.4964L50.6341 53.2711H50.7469V53.4964ZM52.8895 56.0867L52.6639 55.9741L52.8895 56.0867ZM52.7767 55.411L52.6639 55.6362V55.5236V55.411H52.7767ZM52.5512 55.8615H52.4384H52.5512ZM52.4384 55.5236C52.5512 55.5236 52.5512 55.5236 52.4384 55.5236V55.5236ZM52.4384 56.7625L52.3256 56.6498H52.4384V56.7625ZM52.6639 56.5372H52.5512H52.6639V56.312V56.1994V56.5372ZM52.6639 56.1994V55.9741V56.1994ZM52.7767 56.5372V56.4246L52.8895 56.5372H52.7767ZM53.3405 55.411L53.115 55.2984V55.0731H53.2278L53.3405 55.2984H53.4533L53.3405 55.411ZM54.1299 55.0731L54.0171 54.9605V54.8479H54.1299V55.0731ZM54.4682 55.0731V54.8479V55.0731ZM58.8661 55.2984H58.7533V55.1857V55.0731H58.8661V55.2984ZM69.8045 46.1758L69.6917 46.2885L69.8045 46.1758ZM69.4662 46.5137L69.579 46.4011L69.6917 46.2885V46.5137V46.6263L69.579 46.739V46.6263H69.3534L69.4662 46.5137ZM67.8875 47.9778L68.113 48.0904V48.2031H68.0002H67.8875V47.9778ZM66.5343 48.6536V48.8788H66.4215L66.5343 48.6536ZM66.3087 49.6672V49.8924H66.196V49.7798L66.3087 49.6672ZM66.196 49.1041V49.3293V49.1041ZM66.0832 49.6672H65.9704H65.8577V49.5545H65.9704V49.6672H66.0832ZM65.4066 49.7798L65.5194 49.6672L65.4066 49.7798V49.8924V50.005V49.8924H65.2938H65.4066V49.7798ZM65.5194 50.3429L65.4066 50.5682L65.5194 50.3429ZM64.8428 50.2303H64.9555L65.0683 50.005V50.2303H64.9555L64.8428 50.3429H64.5045L64.8428 50.2303ZM64.2789 50.5682L64.5045 50.6808V50.5682L64.6172 50.4555L64.73 50.5682V50.6808V50.906H64.8428L64.73 51.1313L64.6172 51.0187L64.73 50.906H64.5045L64.3917 51.0187H64.2789V50.906V50.7934V50.5682ZM63.7151 51.1313L63.8279 51.3565H63.9406L63.7151 51.4692L63.6023 51.2439L63.7151 51.1313ZM63.3768 51.3565H63.6023L63.4896 51.5818L63.3768 51.6944V51.5818L63.4896 51.4692L63.3768 51.3565ZM62.813 51.9196L62.9257 52.0323L62.813 51.9196ZM62.2491 49.7798V49.8924H62.1364H62.2491L62.1364 50.005V49.8924H62.0236C62.0236 49.8924 62.0236 49.8924 62.2491 49.7798ZM62.0236 52.1449L61.798 52.2575V52.3701H61.6853V52.2575H61.798H61.5725L61.347 52.0323H61.4597H61.6853H61.5725L61.6853 51.9196V51.807C61.6853 51.9196 61.798 51.9196 61.798 52.0323C61.9108 52.0323 61.9108 52.0323 61.9108 52.0323H61.798H61.6853L62.0236 52.1449ZM61.798 53.0459H61.5725V52.9333V52.8206H61.6853L61.798 53.0459ZM59.9938 52.3701H60.1065H59.9938ZM60.2193 52.708L60.1065 52.8206V52.708H60.2193ZM59.9938 53.1585H60.1065V53.2711L59.9938 53.1585L59.881 53.0459L59.9938 53.1585ZM59.9938 51.807H60.1065H60.2193V51.9196L59.9938 51.807ZM59.3172 51.2439V51.3565V51.2439H59.2044H59.3172ZM59.3172 51.0187H59.4299H59.6555H59.3172ZM59.4299 51.3565V51.1313H59.6555H59.7682C59.7682 51.1313 59.7682 51.1313 59.7682 51.2439L59.4299 51.3565ZM59.6555 50.906V50.7934H59.7682C59.7682 50.906 59.7682 50.906 59.6555 50.906ZM61.1215 49.4419L61.0087 49.5545L61.1215 49.4419ZM61.6853 51.6944C61.7981 51.6944 61.7981 51.6944 61.6853 51.6944C61.6853 51.5818 61.6853 51.6944 61.6853 51.6944ZM61.6853 51.3565L61.798 51.4692L61.6853 51.3565ZM61.5725 51.1313V51.0187V50.906V50.6808V50.5682L61.6853 50.4555H61.798L61.6853 50.6808L61.798 50.7934H62.0236L61.9108 51.0187L61.5725 51.1313ZM61.347 51.0187V51.1313V51.0187ZM61.2342 50.6808V50.4555V50.6808ZM61.347 51.5818H61.2342H61.347ZM61.347 52.708H61.2342V52.5954L61.347 52.708ZM61.347 51.9196L61.5725 52.0323L61.347 51.9196ZM61.9108 50.6808L61.798 50.4555H61.9108H62.0236L61.9108 50.6808ZM60.6704 51.0187C60.7831 50.906 60.7831 50.906 60.8959 50.906L61.0087 50.7934V50.906V51.0187H61.1215H61.0087H60.8959H60.6704C60.6704 51.1313 60.6704 51.0187 60.6704 51.0187ZM60.4448 51.5818L60.6704 51.3565H60.7831H60.8959V51.4692H61.0087H60.8959H60.6704H60.5576L60.4448 51.5818ZM60.4448 53.1585L60.3321 53.0459H60.4448V53.1585ZM60.5576 52.0323L60.6704 52.2575L60.5576 52.3701V52.2575H60.4448L60.5576 52.0323ZM60.6704 52.0323V51.807H60.7831V52.0323H60.8959H61.0087L60.8959 52.2575V52.1449V52.0323H60.6704ZM61.0087 54.1721V54.2847V54.1721ZM61.0087 53.3838L61.1215 53.2711L61.2342 53.4964V53.609V53.4964L61.1215 53.2711L61.0087 53.3838ZM61.2342 53.3838L61.1215 53.2711H61.2342L61.347 53.3838H61.2342ZM61.347 52.3701L61.5725 52.2575L61.347 52.3701ZM62.4747 48.0904L62.7002 48.2031V48.3157H62.5874L62.4747 48.0904ZM62.3619 48.4283C62.2491 48.4283 62.1364 48.4283 62.1364 48.3157H62.2491L62.3619 48.4283ZM60.1065 49.6672C60.1065 49.6672 60.1065 49.7798 60.1065 49.8924H59.9938L60.1065 49.6672ZM59.9938 49.7798V50.005V49.7798ZM59.6555 50.005H59.7682L59.881 50.2303V50.3429H59.5427L59.6555 50.005ZM59.4299 50.005H59.5427H59.4299V50.1177H59.3172L59.4299 50.005ZM59.4299 50.4555V50.5682V50.4555ZM59.2044 50.4555V50.5682V50.4555ZM58.415 50.906L58.6406 50.6808L58.7533 50.7934V50.6808V50.7934V50.906V51.0187H58.6406H58.7533V51.1313H58.6406H58.5278H58.3023H58.415H58.3023L58.415 50.906ZM57.2874 51.807V52.0323H57.1746L57.2874 51.807ZM57.2874 52.2575H57.4001H57.2874ZM56.3852 52.5954V52.8206H56.2725L56.3852 52.5954ZM56.2725 52.8206V52.9333V52.8206ZM56.1597 53.0459H56.3852V53.1585H56.2725H56.1597V53.0459ZM55.9342 53.1585L56.0469 53.2711V53.3838H55.9342V53.1585ZM55.4831 54.2847H55.2576H55.4831V54.0595H55.5959L55.4831 54.2847ZM55.3703 53.7216H55.1448V53.609L55.3703 53.7216ZM55.3703 53.3838V53.4964H55.2576L55.3703 53.3838ZM54.9193 54.1721V53.9469H55.032V54.1721V54.2847L54.9193 54.1721ZM55.4831 54.6226L55.2576 54.7352L55.4831 54.51H55.5959L55.4831 54.6226ZM55.5959 53.4964V53.3838V53.2711H55.7086V53.3838L55.5959 53.4964ZM55.5959 53.2711L55.7086 53.0459V53.1585L55.5959 53.2711ZM56.0469 54.1721L55.8214 54.0595V53.7216L56.0469 54.1721ZM56.3852 54.0595H56.2725V53.9469L56.3852 54.0595ZM56.6108 52.9333L56.498 53.0459V52.9333V52.8206L56.6108 52.708V52.8206V52.9333ZM57.0618 53.1585V53.0459V53.1585ZM57.4001 53.0459L57.1746 52.9333H56.9491L57.0618 52.708V52.5954H56.9491H57.0618V52.4828H56.9491H56.7235V52.3701H56.8363H56.9491L57.0618 52.2575V52.4828H56.9491H57.0618V52.5954V52.708H57.1746V52.8206L57.0618 52.9333H57.2874L57.1746 53.0459H57.4001ZM57.7384 52.2575L57.8512 52.3701V52.4828H57.7384V52.3701V52.2575H57.6257V52.1449H57.5129V52.0323H57.6257V51.9196V51.807V51.6944L57.964 51.4692L57.8512 51.5818H57.964V51.6944H57.8512V51.807L57.964 51.9196H57.8512L58.1895 52.0323L58.0767 52.2575H57.7384ZM57.964 52.3701H58.0767V52.4828L57.964 52.3701ZM58.1895 52.0323H58.0767H58.1895L58.0767 51.9196H58.1895V52.0323ZM58.1895 51.6944L58.3023 51.5818L58.1895 51.6944ZM58.7533 51.9196L58.415 52.1449V52.0323L58.5278 51.9196H58.415H58.5278H58.7533L58.6406 51.807H58.7533V51.9196ZM59.0916 51.5818H58.8661V51.4692H58.7533V51.5818H58.6406V51.4692H58.7533H58.8661H58.9789L59.0916 51.5818ZM59.7682 52.8206L59.6555 52.9333V52.8206V52.708L59.7682 52.5954L59.6555 52.8206H59.7682ZM59.2044 54.1721L59.3172 53.9469L59.2044 54.1721ZM59.6555 53.4964H59.4299V53.3838L59.5427 53.2711V53.0459H59.6555V53.1585H59.5427L59.6555 53.2711H59.7682L59.6555 53.4964ZM59.6555 54.9605L59.7682 54.8479V54.9605V55.0731H59.6555V54.9605ZM59.6555 56.1994L59.7682 55.9741V56.0867L59.6555 56.1994ZM59.7682 53.7216H59.6555L59.7682 53.609V53.4964H59.881V53.609L59.7682 53.7216ZM60.2193 54.1721L60.1065 54.0595V53.8343H60.3321H60.4448V53.9469L60.2193 54.1721ZM60.3321 53.8343V53.7216H60.4448H60.5576H60.6704L60.3321 53.8343ZM60.5576 56.312L60.4448 56.1994H60.5576V56.312ZM60.5576 52.9333V52.708L60.6704 52.4828H60.7831V52.5954L60.5576 52.9333ZM61.0087 55.1857L60.8959 55.411H60.7831V55.2984L61.0087 55.1857V54.9605V55.1857ZM61.0087 54.7352L60.8959 54.6226V54.51V54.3974L61.0087 54.6226V54.51L61.1215 54.6226L61.0087 54.7352ZM61.347 54.6226L61.4597 54.51L61.5725 54.6226V54.7352L61.347 54.6226ZM61.5725 55.1857V54.9605L61.4597 55.0731L61.347 54.9605H61.5725V54.8479L61.6853 54.9605L61.5725 55.0731H61.6853L61.5725 55.1857ZM61.6853 54.7352V54.6226H61.798L61.6853 54.7352ZM61.9108 54.2847L61.798 54.0595H61.9108V54.2847ZM62.0236 53.9469L61.798 53.8343L61.6853 53.9469L61.5725 54.0595V54.1721L61.347 54.0595V54.1721V54.2847H61.2342V54.1721V54.0595H61.347V53.8343H61.4597L61.5725 53.9469V53.8343L61.798 53.609L62.0236 53.7216H62.1364H62.2491V53.8343L62.1364 54.0595L62.0236 53.9469ZM62.1364 54.6226V54.51H62.2491L62.1364 54.6226ZM62.4747 53.9469V54.1721V53.9469L62.5874 53.8343V53.7216L62.4747 53.9469ZM62.3619 53.0459V53.2711V53.0459ZM62.4747 52.2575L62.3619 52.4828V52.5954V52.8206H62.2491L62.0236 52.9333H62.1364V52.8206V52.5954H62.3619L62.2491 52.4828V52.2575H62.4747L62.3619 52.1449V52.0323H62.4747H62.5874V52.1449V52.2575H62.4747ZM62.9257 53.0459L62.7002 52.8206L62.813 52.708V52.5954L62.9257 52.708V52.8206V53.0459ZM63.1513 51.6944L62.9257 51.5818L63.1513 51.6944L63.264 51.9196L63.1513 51.6944ZM63.1513 52.0323H63.3768H63.1513V52.1449V52.0323ZM63.4896 52.708L63.3768 52.9333L63.264 52.8206V52.708H63.4896ZM63.1513 52.5954V52.3701H63.264L63.1513 52.5954ZM63.264 53.1585L63.1513 53.0459H63.4896V53.1585H63.264ZM63.4896 52.4828V52.3701V52.4828H63.7151H63.4896ZM63.4896 52.9333H63.6023V53.0459L63.4896 52.9333ZM63.8279 52.2575L63.7151 52.1449L63.8279 52.0323H63.6023V51.9196V51.807H63.7151H63.8279V52.0323L64.0534 52.2575V52.3701L63.8279 52.2575ZM63.8279 52.5954H63.9406H63.8279ZM64.0534 52.0323H64.2789H64.0534ZM64.6172 51.9196V51.807H64.3917L64.2789 51.9196V51.807H64.1662V51.6944H64.3917H64.6172V51.807H64.73L64.6172 51.9196ZM65.2938 51.2439L65.1811 51.3565C65.1811 51.4692 65.0683 51.5818 64.9555 51.5818V51.4692L65.2938 51.3565V51.2439V51.1313V51.2439L65.1811 51.3565H65.0683V51.2439V51.1313H65.1811H65.2938V51.0187L65.4066 51.1313H65.6321C65.4066 51.1313 65.2938 51.1313 65.2938 51.2439ZM65.4066 51.0187H65.1811H65.0683H64.9555L64.8428 50.6808H64.9555H65.0683V50.7934V50.906L65.4066 51.0187ZM65.7449 50.3429V50.5682V50.3429ZM65.7449 49.8924L65.6321 50.1177V50.005L65.7449 49.8924L65.8577 49.7798V49.8924H65.7449ZM65.8577 50.4555L65.7449 50.2303H65.8577L65.9704 50.3429L65.8577 50.4555ZM66.196 50.3429L66.0832 50.2303L65.9704 50.1177V50.005L66.3087 50.1177L66.196 50.3429ZM66.3087 49.5545V49.4419H66.4215H66.5343V49.3293L66.647 49.4419L66.4215 49.5545H66.3087ZM66.7598 49.6672L66.5343 49.5545H66.647L66.7598 49.6672V49.5545V49.6672ZM66.8726 49.1041V48.8788H66.9853L66.8726 49.1041ZM67.0981 49.5545L66.9853 49.4419H66.8726H67.0981H67.2109L67.0981 49.5545ZM67.2109 48.6536H67.4364H67.5492V48.5409V48.3157V48.2031L67.7747 48.3157L67.6619 48.4283L67.5492 48.5409H67.6619V48.6536H67.4364V48.7662L67.3236 48.8788L67.2109 48.6536ZM67.5492 49.1041C67.5492 49.2167 67.5492 49.2167 67.5492 49.1041L67.4364 48.9914V48.8788H67.5492V48.9914V49.1041ZM67.6619 48.9914L67.7747 48.8788V48.9914H67.6619ZM68.113 48.5409L68.0002 48.6536L68.113 48.4283H68.2258V48.5409H68.113ZM68.2258 47.8652L68.113 47.6399V47.5273H68.2258L68.3385 47.6399L68.2258 47.8652ZM68.5641 47.9778H68.3385V47.8652L68.5641 47.9778ZM68.7896 47.5273H68.6768V47.4147H68.7896V47.5273ZM68.9024 47.1895V47.0768V46.9642H69.0151H69.1279V47.0768V47.1895H69.0151L68.9024 47.0768V47.1895ZM69.2407 47.6399V47.4147H69.1279L68.9024 47.3021H69.0151H69.1279V47.4147V47.3021H69.2407V47.6399ZM69.2407 46.9642H69.4662H69.579V47.0768L69.4662 47.1895L69.2407 46.9642ZM69.579 47.6399H69.3534V47.5273H69.579V47.6399H69.6917H69.579ZM69.6917 47.0768V46.9642L69.8045 47.0768H69.6917ZM69.9173 47.5273V47.4147V47.3021H70.03L69.9173 47.5273ZM70.5939 51.807V51.6944V51.807ZM70.8194 51.2439L70.7066 51.3565L70.5939 51.2439V51.3565H70.7066V51.4692V51.5818H70.5939H70.4811H70.3683V51.4692V51.3565L70.5939 51.1313L70.4811 51.0187V51.1313L70.3683 51.2439H70.2556V51.1313L70.3683 51.0187H70.4811V50.906L70.8194 51.0187H71.0449L70.8194 51.2439ZM70.3683 49.3293H70.4811H70.7066V49.5545H70.5939V49.6672H70.4811H70.3683V49.5545H70.4811L70.3683 49.3293ZM70.3683 47.4147L70.4811 47.3021L70.3683 47.4147ZM70.9322 46.9642L70.7066 46.8516V46.739V46.6263L70.8194 46.739L70.9322 46.9642ZM70.9322 46.9642V47.1895H70.8194L70.9322 46.9642ZM70.9322 48.6536L71.0449 48.8788L70.9322 48.9914V48.8788H70.8194L70.9322 48.6536ZM70.8194 50.906H71.0449H70.8194H70.5939H70.8194ZM70.8194 50.3429H71.0449L70.9322 50.5682H70.8194V50.3429ZM70.9322 49.6672L70.7066 49.7798H70.5939L70.7066 49.8924L70.8194 50.005H70.5939V49.8924V49.7798V49.6672H70.9322ZM70.5939 50.7934L70.3683 50.906H70.2556V50.6808H70.3683H70.5939V50.7934ZM71.0449 50.3429V50.5682V50.3429ZM71.0449 50.1177V50.005V49.8924V50.1177ZM71.3832 48.3157H71.6088V48.5409H71.496L71.3832 48.6536H71.2705L71.1577 48.4283H71.2705H71.3832H71.496L71.3832 48.3157ZM71.2705 49.3293H71.1577H71.2705ZM71.2705 48.9914V49.2167V48.9914ZM71.3832 48.8788L71.2705 48.6536H71.3832V48.8788ZM71.1577 49.5545L71.2705 49.4419L71.3832 49.5545H71.2705H71.1577ZM71.2705 49.8924V49.7798H71.3832L71.2705 49.8924ZM71.3832 50.1177V49.8924V49.7798L71.496 49.8924L71.3832 50.1177ZM71.496 49.2167V48.9914H71.6088V49.1041L71.496 49.2167ZM71.6088 49.7798V49.6672V49.5545V49.7798ZM71.7215 49.4419V49.3293H71.8343L71.7215 49.4419ZM72.2854 47.8652H72.0598V47.7526L72.2854 47.8652ZM72.2854 47.3021L72.1726 47.4147V47.5273H72.0598V47.4147V47.3021H72.1726H72.2854ZM72.1726 46.9642C72.1726 47.0768 72.1726 47.0768 72.1726 46.9642V47.1895H72.0598L72.1726 46.9642ZM71.7215 48.5409H71.8343H71.7215V48.4283L71.9471 48.2031V48.0904V47.9778V48.0904V48.2031H72.0598V48.4283L71.9471 48.5409V48.7662H71.7215V48.5409H71.6088H71.7215ZM71.7215 47.5273V47.7526L71.496 47.5273H71.3832H71.496H71.7215ZM71.496 46.739L71.3832 46.9642L71.496 46.739ZM71.2705 47.5273L71.0449 47.6399L71.2705 47.5273ZM71.0449 46.5137L70.9322 46.6263L71.0449 46.5137ZM70.8194 46.0632L70.9322 46.2885H70.8194H70.7066L70.8194 46.0632ZM70.1428 46.9642L70.2556 46.8516L70.3683 46.9642H70.4811H70.5939V47.1895H70.4811V47.0768H70.3683V46.9642L70.2556 47.0768L70.1428 46.9642ZM70.1428 50.1177H70.2556L70.3683 49.8924H70.4811V50.1177H70.1428V50.2303H69.9173L70.1428 50.1177ZM69.8045 50.7934C69.9173 50.6808 69.9173 50.6808 69.9173 50.5682H70.03V50.4555V50.3429L70.1428 50.4555L70.03 50.6808V50.906H70.1428H70.2556L70.03 51.1313V51.0187V50.906L69.8045 50.7934L69.6917 51.0187L69.8045 50.7934ZM69.6917 51.5818H69.9173L70.03 51.6944H70.1428H70.3683V51.9196V52.0323V52.1449H70.2556H70.1428V52.0323L69.9173 52.1449H69.6917H69.579H69.6917L69.8045 51.9196H69.9173H69.8045V51.807V51.6944L69.6917 51.5818V51.6944V51.807V51.6944H69.579V51.5818H69.6917ZM69.8045 55.2984H69.9173H69.8045ZM70.03 55.9741H69.9173H70.03ZM69.3534 55.5236H69.2407V55.2984L69.3534 55.5236ZM69.2407 53.2711V53.1585H69.3534V53.2711L69.2407 53.3838V53.2711ZM69.3534 54.0595H69.579V54.1721H69.6917V54.2847H69.4662L69.3534 54.0595ZM69.579 53.7216L69.4662 53.609H69.6917L69.579 53.7216ZM69.579 53.4964V53.3838V53.2711H69.6917V53.3838L69.579 53.4964ZM69.6917 52.5954V52.3701V52.5954ZM69.6917 52.2575L69.8045 52.3701H69.6917V52.2575ZM69.4662 51.9196H69.6917H69.4662ZM69.2407 52.0323L69.3534 52.2575L69.2407 52.1449V52.0323ZM69.1279 52.8206L69.2407 52.5954L69.3534 52.708L69.2407 52.9333H69.3534V53.1585V53.2711L69.2407 53.1585V53.0459L69.1279 52.8206ZM68.9024 52.9333V53.0459H69.0151V53.1585H68.9024V53.0459H68.7896L68.9024 52.9333ZM68.6768 53.7216V53.9469L68.5641 54.0595V53.9469L68.6768 53.7216ZM68.3385 54.3974V54.51V54.3974ZM68.113 54.8479L68.2258 54.6226L68.3385 54.7352L68.113 54.8479ZM68.2258 55.5236V55.2984H68.3385L68.2258 55.5236ZM68.4513 55.0731L68.3385 54.8479H68.4513L68.5641 55.0731H68.4513ZM68.5641 56.8751H68.6768H68.5641ZM68.9024 54.7352H68.7896L68.9024 54.6226V54.7352ZM69.0151 53.9469L68.9024 54.0595V53.9469L69.0151 53.7216H69.1279L69.0151 53.9469ZM69.2407 56.312H69.1279V56.1994L69.2407 56.312L69.3534 55.9741V55.8615V56.1994L69.2407 56.312ZM69.3534 54.8479V54.7352H69.4662L69.3534 54.8479ZM69.579 55.1857V54.9605V54.8479L69.6917 54.9605L69.579 55.1857ZM69.6917 54.51H69.4662L69.3534 54.3974V54.2847H69.4662L69.6917 54.51ZM69.8045 52.9333L69.6917 52.8206H69.8045V52.9333ZM69.8045 56.4246L69.9173 56.312V56.4246H69.8045ZM70.03 52.9333V52.8206V52.708V52.8206L70.2556 52.9333H70.03ZM70.4811 52.4828L70.3683 52.5954V52.708H70.1428V52.5954L70.3683 52.4828L70.4811 52.3701L70.5939 52.4828H70.4811ZM70.4811 54.8479L70.5939 54.7352V54.8479V54.9605H70.3683L70.4811 54.8479ZM70.5939 55.9741H70.4811L70.5939 55.7489V55.9741ZM70.8194 54.9605V54.8479L70.7066 54.7352H70.8194H70.9322L70.8194 54.9605ZM76.6833 53.2711V53.0459V52.9333H76.5705L76.4578 52.8206L76.5705 52.708V52.8206L76.9088 52.9333V53.0459L76.6833 52.9333L76.9088 53.0459L77.0216 53.1585L76.9088 53.2711H76.6833ZM76.345 52.1449H76.1195V52.0323L76.2322 51.9196H76.345L76.4578 51.807C76.4578 51.807 76.4578 51.807 76.5705 51.6944H76.6833V51.807H76.7961V51.6944H76.5705L76.6833 51.5818H76.9088L76.6833 51.807L76.7961 51.9196V52.0323V52.1449H76.6833V52.2575V52.1449L76.5705 52.0323H76.4578L76.345 52.1449ZM75.8939 54.1721L75.7812 54.0595H76.0067L76.1195 54.1721V54.2847L75.8939 54.1721ZM76.1195 54.3974V54.51L75.8939 54.3974H75.7812V54.2847H75.8939L76.1195 54.3974ZM74.6535 54.1721L74.879 54.2847L74.6535 54.1721ZM78.0365 50.3429C78.0365 50.4555 78.0365 50.4555 78.0365 50.4555V50.5682L77.811 50.6808V50.5682C77.9237 50.4555 77.9237 50.4555 78.0365 50.3429ZM77.2471 51.6944V51.5818H77.3599L77.2471 51.6944ZM77.2471 51.1313H77.1344C77.1344 51.1313 77.2471 51.0187 77.2471 51.1313ZM77.0216 51.4692L76.7961 51.3565L76.6833 51.4692C76.7961 51.3565 76.7961 51.3565 76.9088 51.2439L77.0216 51.1313H77.1344V51.2439L77.0216 51.4692ZM76.6833 52.4828V52.3701V52.2575H76.9088L77.0216 52.3701L76.9088 52.4828H77.0216V52.5954H76.9088V52.4828V52.3701L76.6833 52.4828ZM76.7961 50.6808V50.5682V50.6808ZM77.2471 50.2303V50.1177H77.3599L77.2471 50.2303ZM76.2322 50.7934H76.1195C76.1195 50.7934 76.1195 50.7934 76.2322 50.7934ZM77.6982 48.8788V48.7662L77.811 48.8788H77.6982ZM78.6003 49.1041H78.3748L78.4876 48.9914V48.8788L78.6003 49.1041ZM78.262 49.2167H78.3748H78.262V49.3293L78.1493 49.4419L78.262 49.2167ZM77.6982 48.9914L77.811 49.1041L77.6982 48.9914ZM78.262 50.2303L78.1493 50.3429L78.262 50.2303C78.1493 50.2303 78.1493 50.2303 78.262 50.2303ZM77.9237 49.2167V49.3293V49.2167H77.811H77.9237ZM77.1344 49.4419V49.6672H77.0216L77.1344 49.4419ZM76.0067 53.609L75.8939 53.4964H76.1195L76.0067 53.609ZM76.0067 53.2711V53.0459L76.1195 52.9333V53.0459L76.0067 53.2711ZM76.0067 52.4828V52.3701V52.4828V52.5954V52.4828ZM77.0216 53.4964V53.2711H77.1344H77.2471V53.3838V53.4964H77.0216ZM77.2471 53.0459L77.0216 52.8206L77.2471 53.0459ZM77.3599 51.0187C77.3599 50.906 77.3599 50.906 77.3599 51.0187L77.4727 50.906L77.3599 51.0187ZM78.0365 52.5954H77.9237H77.811L77.9237 52.3701L78.0365 52.2575H78.1493L78.0365 52.5954ZM78.4876 53.1585V52.9333H78.6003L78.7131 53.0459L78.4876 53.1585ZM78.4876 52.3701H78.6003L78.4876 52.4828V52.3701ZM79.0514 52.8206L78.9386 52.9333V52.708V52.5954H78.8259H78.9386H79.0514V52.8206ZM79.3897 51.807L79.0514 51.9196H79.1642V52.1449H79.0514V52.0323V51.9196L78.9386 52.1449L78.8259 52.0323V52.1449V52.0323C78.9386 51.9196 79.0514 51.9196 79.0514 51.9196C79.1642 51.9196 79.1642 51.807 79.3897 51.807ZM79.8408 52.1449V52.3701H79.728L79.8408 52.4828V52.5954C79.728 52.5954 79.728 52.5954 79.6152 52.5954C79.5025 52.5954 79.5025 52.5954 79.3897 52.708V52.5954H79.5025L79.3897 52.4828L79.5025 52.3701V52.2575H79.728L79.8408 52.1449V51.9196V51.807L79.728 51.5818H79.8408V51.6944H80.0663V51.807V52.0323V52.1449H79.8408ZM80.0663 51.6944H80.1791H80.0663ZM80.4046 51.3565V51.1313V51.3565L80.6301 51.4692V51.5818L80.4046 51.3565ZM80.5174 52.0323L80.6301 51.9196V52.1449L80.5174 52.0323ZM80.6301 51.6944L80.5174 51.807V51.6944V51.5818L80.6301 51.6944ZM81.4195 51.6944V51.5818H81.5323L81.4195 51.6944ZM81.645 51.1313H81.5323L81.4195 51.3565H81.194L81.3067 51.2439V51.1313H81.4195H81.5323V50.906H81.4195V50.6808L81.5323 50.906L81.645 51.1313ZM81.4195 50.5682C81.4195 50.5682 81.5323 50.5682 81.5323 50.4555V50.5682H81.4195ZM81.8706 50.1177H81.9833V50.2303H81.8706V50.1177ZM81.8706 50.906V50.6808L81.9833 50.906H81.8706ZM81.9833 51.3565H82.0961H81.9833ZM82.3216 50.7934L82.2089 50.6808V50.5682V50.3429V50.2303V50.1177L82.5472 50.2303V50.1177L82.66 50.005L82.7727 50.1177L82.66 50.3429V50.4555H82.5472L82.3216 50.7934ZM82.4344 49.7798C82.4344 49.6672 82.5472 49.6672 82.5472 49.6672H82.66V49.7798H82.7727L82.8855 49.6672L82.9982 49.8924H82.66L82.5472 50.005V50.1177L82.2089 50.005H82.3216V49.8924L82.4344 49.7798ZM82.7727 49.4419V49.3293V49.4419ZM83.111 48.8788H83.3366V49.1041H83.2238V49.2167H82.9982V49.3293V49.1041V48.9914L83.111 48.8788ZM82.9982 47.3021L83.111 47.5273V47.4147L82.9982 47.3021ZM83.2238 47.5273L83.3366 47.6399V47.7526L83.2238 47.6399V47.5273ZM83.3366 49.5545L83.2238 49.4419V49.3293H83.4493L83.3366 49.4419V49.5545ZM82.8855 50.906C82.8855 50.906 82.7727 50.906 82.7727 51.0187V50.7934L82.8855 50.906V50.6808L82.9982 50.7934C82.9982 50.906 82.8855 50.906 82.8855 50.906ZM83.111 50.7934L82.9982 50.6808H82.8855H82.7727L82.5472 50.906H82.4344V50.7934L82.5472 50.6808H82.66H82.7727L82.66 50.4555H82.7727L82.8855 50.5682H82.9982L82.8855 50.6808L83.111 50.7934ZM83.3366 50.5682H83.2238H83.111H83.3366C83.4493 50.5682 83.3366 50.5682 83.3366 50.5682ZM83.4493 50.1177L83.3366 50.005H83.4493V50.1177ZM83.5621 50.005V50.1177V50.005ZM83.9004 48.5409V48.6536V48.7662H83.7876V48.6536L83.9004 48.5409ZM83.9004 48.4283H84.0131V48.5409L83.9004 48.4283ZM83.7876 48.8788L83.9004 48.9914H83.7876V48.8788ZM83.7876 49.1041L84.0131 49.2167V49.3293H83.9004H83.7876V49.1041ZM83.7876 49.4419L83.9004 49.5545H83.7876V49.4419ZM83.9004 50.005H84.0131H83.9004ZM84.2387 49.8924L84.1259 50.005V49.7798V49.6672H84.2387L84.3515 49.7798C84.3515 49.7798 84.2387 49.7798 84.2387 49.8924ZM84.2387 48.6536L84.3515 48.7662L84.2387 48.6536L84.1259 48.7662L84.2387 48.6536ZM84.1259 48.0904V47.9778V47.8652H84.2387L84.1259 48.0904ZM84.8025 48.6536V48.5409L84.9153 48.4283V48.5409L84.8025 48.6536ZM85.1408 48.0904V48.3157H85.0281V48.2031V48.0904H85.1408ZM84.9153 47.7526V47.8652V47.7526ZM84.8025 47.5273V47.4147C84.8025 47.5273 84.8025 47.5273 84.8025 47.5273ZM84.8025 49.2167C84.6898 49.2167 84.6898 49.2167 84.8025 49.2167L84.6898 49.3293L84.8025 49.2167ZM84.4642 49.2167V49.4419H84.3515V49.3293V49.2167H84.4642V49.1041L84.6898 48.9914V48.8788L84.8025 49.1041L84.4642 49.2167ZM84.4642 47.9778L84.577 47.8652L84.4642 47.9778H84.6898V48.0904L84.577 48.2031V48.4283V48.5409H84.3515V48.4283H84.2387L84.3515 48.3157H84.4642V48.2031H84.3515L84.4642 47.9778ZM84.1259 47.0768H84.3515V47.4147L84.1259 47.0768ZM84.0131 48.0904V48.2031H83.7876V48.0904H83.9004H84.0131ZM83.7876 47.1895L83.9004 47.3021L83.7876 47.1895ZM83.7876 49.5545L83.5621 49.6672V49.5545H83.7876ZM83.5621 48.4283L83.4493 48.5409L83.5621 48.4283H83.4493H83.5621V48.2031V48.4283ZM83.4493 46.739V46.6263V46.739ZM83.3366 46.2885H83.4493V46.5137L83.3366 46.2885ZM82.66 46.6263H82.8855H83.111V46.8516L82.9982 46.9642L82.8855 46.739V46.6263L82.7727 46.739H82.66V46.6263ZM82.4344 46.8516V47.0768C82.4344 47.0768 82.4344 46.9642 82.4344 46.8516ZM82.3216 46.6263H82.0961L82.2089 46.5137L82.3216 46.6263ZM82.3216 45.6127V45.7253L82.2089 45.838L82.0961 45.7253V45.6127H82.3216ZM82.0961 45.9506L82.2089 46.0632L82.0961 46.1758L82.2089 46.2885L81.9833 46.4011V46.2885H81.8706V46.1758L81.9833 46.2885L82.0961 45.9506ZM81.9833 45.6127L82.0961 45.838H81.9833V45.7253V45.6127ZM81.8706 46.5137H81.9833V46.6263L81.8706 46.739V46.5137L81.7578 46.6263L81.8706 46.5137ZM81.7578 46.9642C81.7578 46.9642 81.7578 46.9642 81.7578 47.0768V46.9642ZM81.645 46.6263V46.8516H81.5323V46.739L81.4195 46.9642V46.8516V46.739H81.5323L81.645 46.6263ZM81.645 46.9642H81.5323V46.8516H81.645V46.9642ZM81.3067 45.9506H81.4195L81.5323 46.1758H81.4195L81.3067 45.9506ZM80.7429 46.9642V47.0768H80.6301L80.7429 46.9642ZM80.8557 48.2031C80.9684 48.0904 81.3067 47.8652 81.645 47.7526C81.9833 47.5273 82.2089 47.6399 82.4344 47.8652C82.5472 47.9778 82.66 48.0904 82.66 48.2031C82.66 48.4283 82.5472 48.5409 82.5472 48.6536C82.4344 48.8788 82.3216 49.1041 82.0961 49.3293C81.8706 49.5545 81.645 49.7798 81.5323 49.8924C80.9684 50.3429 80.4046 50.6808 79.8408 51.0187C79.2769 51.3565 78.7131 51.6944 78.1493 51.9196C78.4876 51.3565 78.9386 50.6808 79.3897 50.005C79.728 49.2167 80.2918 48.6536 80.8557 48.2031ZM79.728 48.2031V48.4283V48.2031ZM79.9535 48.2031L80.0663 47.9778C80.0663 48.0904 79.9535 48.0904 79.9535 48.2031ZM80.1791 47.1895L80.2918 47.3021L80.1791 47.4147L80.0663 47.5273V47.4147V47.3021L80.1791 47.1895ZM80.0663 46.9642V47.0768V46.9642ZM79.9535 47.3021H79.8408H79.9535ZM79.728 47.6399H79.9535V47.8652H79.8408H79.728V47.7526V47.6399ZM79.3897 48.2031L79.5025 47.9778H79.728V48.0904H79.6152L79.3897 48.2031H79.728L79.3897 48.4283L79.2769 48.3157L79.3897 48.2031ZM79.1642 47.3021C79.1642 47.3021 79.1642 47.3021 79.2769 47.3021V47.4147L79.1642 47.3021H79.0514H79.1642ZM78.9386 47.8652H78.8259H78.9386ZM78.9386 47.6399H78.8259H78.9386ZM75.5556 50.4555V50.5682V50.6808C75.5556 50.6808 75.5556 50.7934 75.4429 50.7934H75.2173V50.906H75.1046V50.7934L75.5556 50.4555ZM74.9918 51.4692C74.9918 51.4692 74.9918 51.5818 74.9918 51.4692V51.4692ZM74.6535 51.1313V51.3565H74.5407H74.428L74.6535 51.1313ZM74.428 51.5818V51.807H74.5407L74.6535 51.9196C74.6535 51.9196 74.6535 52.0323 74.5407 52.0323H74.428H74.3152V51.9196V51.807H74.2024V51.6944L74.428 51.5818ZM74.2024 52.3701V52.2575V52.3701H74.428H74.2024ZM74.2024 52.708H74.0896V52.5954L74.2024 52.708ZM73.3003 52.2575L73.1875 52.3701L73.3003 52.2575ZM72.962 52.5954L73.0748 52.4828L73.1875 52.3701L73.3003 52.4828L73.4131 52.708H73.1875L72.962 52.8206V52.708V52.5954ZM72.0598 53.2711L72.2854 53.3838L72.1726 53.4964L72.0598 53.3838V53.2711ZM71.8343 54.0595V54.1721H71.7215L71.8343 54.0595ZM71.6088 55.1857L71.7215 55.0731V54.8479H71.8343V55.0731L71.6088 55.1857ZM71.8343 54.6226L71.7215 54.51V54.3974V54.2847V54.51V54.3974H71.8343L71.9471 54.51L71.8343 54.6226ZM72.0598 54.0595V53.8343H72.1726L72.0598 54.0595ZM72.2854 54.51V54.2847V54.3974V54.51ZM72.7365 54.1721V53.9469V54.1721ZM72.962 53.8343L72.8492 53.609H72.7365L72.5109 53.7216L72.3981 53.8343L72.2854 53.9469V53.8343V53.609V53.7216L72.3981 53.609L72.5109 53.3838H72.6237L72.7365 53.4964H72.8492H72.962V53.609V53.8343ZM73.1875 52.9333L73.3003 53.0459L73.1875 52.9333ZM73.7514 52.8206L73.6386 52.708V52.5954V52.4828L73.7514 52.3701L73.8641 52.4828V52.5954L73.7514 52.8206ZM73.8641 51.9196H74.0896H73.9769L73.8641 52.0323V51.9196ZM73.8641 52.1449H73.9769H73.8641ZM73.8641 52.3701V52.1449H73.9769V52.2575V52.3701H73.8641ZM73.8641 52.8206H74.2024V52.9333H74.0896L73.8641 52.8206ZM74.5407 54.6226L74.6535 54.51L74.7663 54.6226H74.5407V54.8479V54.6226ZM74.5407 55.411V55.2984V55.1857H74.6535L74.5407 55.411L74.6535 55.5236L74.5407 55.411ZM74.879 54.9605L74.6535 54.8479L74.879 54.9605ZM74.9918 53.9469V53.7216H75.1046L74.9918 53.9469ZM74.9918 52.9333C75.1046 52.9333 75.1046 52.9333 74.9918 52.9333H75.2173H75.3301V53.1585H75.2173V52.9333H74.9918ZM75.1046 54.7352V54.6226L75.2173 54.7352H75.1046ZM75.3301 53.8343L75.2173 54.0595V53.9469L75.3301 53.7216H75.4429L75.3301 53.8343ZM75.5556 53.1585H75.7812L75.5556 52.9333V52.8206V52.708H75.3301V52.5954H75.4429V52.3701H75.5556L75.6684 52.4828L75.5556 52.5954H75.6684V52.8206V53.0459V53.1585L75.5556 53.2711V53.1585ZM75.5556 55.5236V55.2984L75.7812 55.5236H75.5556ZM75.5556 56.312L75.7812 55.8615V56.1994L75.5556 56.312ZM75.7812 54.8479V54.7352H75.8939L75.7812 54.8479ZM76.0067 55.1857V54.9605V54.8479H76.1195V54.9605L76.0067 55.1857ZM76.0067 52.8206H76.2322V52.9333L76.0067 52.8206ZM76.345 56.4246L76.4578 56.5372L76.345 56.4246ZM76.4578 53.8343V53.609L76.6833 53.7216C76.5705 53.7216 76.4578 53.7216 76.4578 53.8343ZM78.1493 56.4246H78.3748H78.1493ZM78.6003 56.312L78.8259 56.1994V56.312H78.6003ZM79.0514 56.312H78.9386L79.0514 56.0867V56.1994V56.312ZM79.1642 56.5372V56.312V56.5372ZM79.2769 57.1003V56.9877H79.3897L79.2769 57.1003ZM79.8408 56.8751L79.9535 56.7625L79.8408 56.8751ZM81.7578 55.2984L81.8706 55.5236H81.7578V55.411V55.2984ZM81.7578 56.312H81.645V56.1994L81.7578 56.312L81.8706 55.8615V56.1994L81.7578 56.312ZM82.0961 55.0731V54.8479V54.7352H82.2089V54.8479L82.0961 55.0731ZM83.111 54.8479V54.7352V54.6226V54.7352H83.2238L83.111 54.8479ZM83.3366 53.8343V54.0595V53.8343ZM83.4493 54.7352L83.3366 54.51H83.4493H83.5621L83.4493 54.7352ZM83.5621 53.8343L83.6748 53.609L83.5621 53.8343ZM88.9749 49.2167H89.2004L88.9749 49.3293V49.4419H89.0877H88.8621V49.3293L88.9749 49.2167ZM88.5238 49.5545H88.6366L88.7494 49.7798H88.4111L88.2983 49.8924V50.005L88.1855 49.8924L88.5238 49.5545ZM87.8472 50.3429V50.2303H87.96H88.0728V50.1177L88.1855 50.005L88.2983 50.1177L88.1855 50.3429V50.4555H87.96V50.6808L88.0728 50.7934H87.96L87.8472 50.6808V50.5682V50.3429ZM87.5089 50.5682V50.7934V50.6808V50.5682ZM87.5089 51.6944H87.2834V51.5818L87.5089 51.6944ZM86.9451 51.0187H87.0579H87.1706V50.906L87.2834 50.7934V51.0187H87.1706L86.9451 51.2439H86.7196L86.9451 51.0187ZM87.1706 51.6944H87.0579V51.5818H87.1706V51.6944ZM85.1408 52.4828V52.5954L85.2536 52.708H85.1408L85.0281 52.8206V52.5954L85.1408 52.4828ZM84.8025 52.8206L84.9153 52.9333L84.6898 53.0459L84.8025 52.8206ZM84.577 54.3974H84.4642V54.2847H84.3515V54.1721V54.0595L84.4642 54.2847H84.577H84.6898L84.577 54.3974ZM84.6898 53.9469L84.577 53.8343H84.6898H84.8025L84.6898 53.9469ZM84.8025 53.3838L84.577 53.1585L84.4642 53.0459V52.9333H84.577L84.9153 53.1585L84.8025 53.3838ZM85.4791 53.609H85.2536H85.1408L85.0281 53.7216H84.9153V53.609V53.4964V53.609H85.0281L85.2536 53.3838H85.3664L85.4791 53.4964H85.5919H85.7047L85.4791 53.609ZM85.9302 52.0323L85.8174 52.2575H85.7047L85.8174 52.3701L85.9302 52.5954H85.5919L85.3664 52.708V52.5954H85.4791L85.3664 52.4828L85.5919 52.3701V52.2575H85.7047L85.9302 52.0323C85.9302 51.9196 85.9302 51.807 85.9302 51.807L86.043 51.9196V52.0323H85.9302ZM86.494 52.5954L86.3813 52.4828H86.2685L86.3813 52.3701H86.494V52.5954ZM86.6068 51.2439L86.8323 51.3565V51.4692H86.7196L86.6068 51.2439ZM86.6068 51.6944L86.8323 51.5818V51.6944H86.6068ZM86.6068 51.807H86.8323L86.7196 52.0323L86.6068 51.807ZM86.6068 52.2575V52.1449H86.7196L86.8323 52.2575L86.6068 52.3701V52.2575ZM86.8323 52.4828V52.2575H86.9451L86.8323 52.4828ZM86.9451 52.2575V52.1449H87.0579V52.2575H86.9451ZM87.3962 52.0323V51.807H87.2834V51.6944H87.3962L87.6217 51.9196L87.3962 52.0323ZM87.5089 51.6944V51.4692L87.7345 51.5818L87.5089 51.6944ZM88.0728 51.4692L87.8472 51.2439V51.4692H87.7345L87.6217 51.3565H87.7345L87.6217 51.2439H87.8472H88.0728V51.4692ZM88.5238 50.906H88.4111V50.6808L88.5238 50.5682L88.6366 50.6808L88.5238 50.906ZM88.6366 50.7934V50.5682H88.5238H88.4111L88.2983 50.7934H88.1855V50.6808L88.2983 50.5682H88.4111H88.5238L88.4111 50.3429H88.5238L88.6366 50.4555H88.8621L88.7494 50.5682L88.9749 50.6808L88.6366 50.7934ZM88.9749 50.5682H88.8621H88.9749ZM89.0877 50.1177L88.9749 50.005H89.0877H89.2004L89.0877 50.1177ZM89.2004 49.6672V49.5545H89.3132L89.2004 49.6672ZM89.426 49.3293C89.426 49.3293 89.426 49.4419 89.5387 49.4419H89.426V49.3293ZM89.5387 50.005H89.3132H89.5387C89.6515 49.8924 89.6515 49.8924 89.5387 50.005Z" fill="#380F14"/>
</g>
<defs>
<clipPath id="clip0_286_4443">
<rect width="227" height="91" fill="white"/>
</clipPath>
</defs>
</svg>
