<svg width="109" height="60" viewBox="0 0 109 60" fill="none" xmlns="http://www.w3.org/2000/svg">
<rect width="109" height="60" fill="#C5E3EF"/>
<rect x="44" y="12" width="35" height="42" rx="2" fill="#ECECEC"/>
<rect x="54" y="35" width="20" height="11" fill="#D9D9D9"/>
<rect x="56" y="18" width="18" height="2" rx="1" fill="#D9D9D9"/>
<rect x="56" y="24" width="15" height="2" rx="1" fill="#D9D9D9"/>
<rect x="56" y="29" width="10" height="2" rx="1" fill="#D9D9D9"/>
<path d="M81 0H98V16.9764C98 17.8048 97.0506 18.274 96.3925 17.7708L90.1074 12.9645C89.7489 12.6903 89.2511 12.6903 88.8925 12.9645L82.6074 17.7708C81.9494 18.274 81 17.8048 81 16.9764V0Z" fill="white"/>
<rect x="23" y="9" width="35" height="42" rx="2" fill="#FFF9F9"/>
<rect x="30" y="16" width="22" height="11" fill="#D9D9D9"/>
<rect x="30" y="32" width="22" height="2" rx="1" fill="#D9D9D9"/>
<rect x="30" y="38" width="18" height="2" rx="1" fill="#D9D9D9"/>
<rect x="30" y="43" width="12" height="2" rx="1" fill="#D9D9D9"/>
</svg>
