<svg width="84" height="60" viewBox="0 0 84 60" fill="none" xmlns="http://www.w3.org/2000/svg">
<rect width="84" height="60" fill="#F9C9F7"/>
<path fill-rule="evenodd" clip-rule="evenodd" d="M27.6822 21.2179C27.4949 21.5896 26.0623 33.6696 25.9505 35.0319L25.75 36.8303L26.3779 36.9567L28.8401 37.1483C29.1389 36.9739 30.0219 35.8109 31.4053 36.5486C32.3974 37.0776 32.3887 37.9417 32.3424 38.9285C32.7181 38.6291 33.5537 37.4313 34.9984 38.2092C35.8693 38.6781 36.1463 39.7448 35.8549 40.6652C36.2712 40.2657 36.1967 40.1663 36.8717 39.9012C37.3542 39.7116 37.9179 39.742 38.3774 39.9793C39.542 40.5809 39.4342 41.3916 39.3436 42.4706C40.149 42.0992 40.6665 41.6665 41.6621 42.2684C42.5454 42.8025 42.4278 43.3699 42.6448 44.1795C43.5836 44.4416 44.357 44.3296 45.0637 43.6198C45.4098 43.2723 46.281 42.263 46.4976 41.8543C46.1207 41.4823 45.6362 41.3 45.7946 40.629C46.18 38.9968 48.4427 41.5805 49.0827 42.0329C49.6136 41.8559 50.7601 40.566 51.0874 40.0696C50.8494 39.7205 50.1108 39.2547 50.0144 38.9125C49.8151 38.2046 50.4609 37.681 51.1051 38.019C51.7951 38.381 52.9561 39.8156 53.5867 40.0757C54.8451 39.6719 56.0671 38.0815 55.2213 36.771L55.2282 36.7013L53.0892 34.7862C52.3259 34.3675 47.0605 29.4238 46.4888 29.093C46.3491 29.0122 45.0155 28.8242 44.5567 28.6539C43.7032 28.3373 42.2141 27.4181 41.7127 26.751C41.2181 27.1752 40.4346 28.3736 39.9886 28.9455C39.3316 29.7881 38.9859 30.25 37.994 30.7707C35.9102 31.8648 32.2978 31.2246 33.1926 29.1331L36.0252 24.2135C36.947 22.7169 37.8463 20.7522 38.8141 19.3945L38.7383 19.2416C37.9846 18.9801 34.2545 17.9022 33.6552 17.9259C31.8721 17.9964 31.495 20.0497 30.6758 21.3669L27.6819 21.2179H27.6822Z" fill="#F9C194"/>
<path fill-rule="evenodd" clip-rule="evenodd" d="M38.7392 19.2413L38.815 19.3942C37.8471 20.752 36.9479 22.7167 36.0262 24.2132L33.1935 29.1328C32.2987 31.2243 35.9111 31.8645 37.9949 30.7704C38.9869 30.2497 39.3325 29.7878 39.9896 28.9452C40.4355 28.3733 41.219 27.1749 41.7137 26.7507C42.215 27.4178 43.7042 28.337 44.5576 28.6536C45.0166 28.8239 46.3501 29.0119 46.4898 29.0927C47.0614 29.4236 52.3268 34.3673 53.0902 34.7859C53.2969 34.5254 54.8278 33.2847 55.1146 33.2092C55.8328 33.0201 57.5219 32.9199 58.352 32.8247L56.8336 20.4074C54.3735 20.6971 55.678 20.8301 52.6095 19.1722C51.3566 18.4952 49.9973 17.3975 48.5438 17.4746C46.8405 17.5649 45.0286 17.8279 43.3132 17.9739C38.2675 18.4032 40.3599 18.662 38.7391 19.2414L38.7392 19.2413Z" fill="#F19F5D"/>
<path fill-rule="evenodd" clip-rule="evenodd" d="M63.1265 32.782C65.0037 32.0637 65.9368 34.8945 64.2103 35.5649C62.3497 36.2874 61.2858 33.4864 63.1265 32.782ZM56.8394 20.4075L58.3579 32.8248L58.6217 35.0094C59.332 35.6462 59.3319 35.9144 60.3611 36.2453C61.1137 36.4873 62.2375 36.2493 63.0337 36.1519C64.6573 35.9533 66.8661 35.9057 68.3045 35.2923C67.5802 30.043 67.0251 24.7186 66.3693 19.454C66.2867 18.7913 66.2068 18.1255 66.1271 17.4616C65.8888 15.4774 65.8434 15.9134 61.4133 16.463C58.6206 16.8094 56.5505 16.8589 56.8394 20.4075Z" fill="#D27EDA"/>
<path fill-rule="evenodd" clip-rule="evenodd" d="M20.314 32.789C22.1475 32.0399 23.117 34.815 21.4674 35.5434C19.6469 36.3473 18.4354 33.5565 20.314 32.789ZM16.2676 35.2924C17.7345 35.9128 19.802 35.9421 21.4388 36.1412C22.2131 36.2354 23.4119 36.4738 24.1359 36.2689C25.2434 35.9554 25.1956 35.6271 25.9494 35.0319C26.0612 33.6696 27.4938 21.5896 27.6811 21.2178C27.5935 19.8924 28.1727 18.6091 26.983 17.565C25.8651 16.5838 24.941 16.6848 23.5149 16.5101C22.3154 16.3631 20.6386 16.0442 19.4873 16.0101C18.5624 15.9828 18.5646 16.46 18.4695 17.2535C17.7562 23.2064 17.0816 29.396 16.2676 35.2924Z" fill="#ED5575"/>
<path fill-rule="evenodd" clip-rule="evenodd" d="M28.8398 37.1481C28.4385 38.117 27.4092 38.8019 28.3495 40.1566C29.004 41.0993 30.401 41.2565 31.2559 40.4282C31.0164 41.4328 30.8728 42.1026 31.746 42.8491C32.6939 43.6593 33.3622 43.2721 34.2566 42.8706C34.078 43.9094 33.985 44.5421 34.8983 45.2656C35.7569 45.9455 36.5243 45.6414 37.3153 45.1691C37.2029 46.1478 36.9861 47.0562 38.0499 47.6837C39.0577 48.2784 39.8308 47.9701 40.5868 47.2915C42.7778 47.943 43.2321 46.0311 44.4625 44.9818C47.1024 46.4024 47.4234 44.3768 48.9412 43.0501C51.1666 43.9957 51.5127 43.4817 53.3648 41.1105C53.8712 41.2078 55.5014 42.5172 57.0089 40.1293C57.4277 39.4658 57.3047 38.6343 56.8123 38.0592C56.5999 37.8112 55.5256 36.9373 55.2209 36.7708C56.0667 38.0813 54.8447 39.6716 53.5863 40.0755C52.9556 39.8154 51.7947 38.3808 51.1047 38.0188C50.4605 37.6808 49.8147 38.2044 50.0141 38.9123C50.1105 39.2545 50.8491 39.7202 51.087 40.0693C50.7597 40.5658 49.6132 41.8556 49.0823 42.0326C48.4424 41.5802 46.1797 38.9966 45.7942 40.6288C45.6357 41.2997 46.1202 41.482 46.4972 41.8541C46.2806 42.2628 45.4094 43.2721 45.0633 43.6196C44.3566 44.3293 43.5832 44.4414 42.6444 44.1793C42.4274 43.3697 42.545 42.8023 41.6617 42.2682C40.6661 41.6662 40.1486 42.099 39.3432 42.4704C39.4338 41.3914 39.5416 40.5807 38.377 39.9791C37.9175 39.7418 37.3539 39.7114 36.8713 39.901C36.1963 40.1662 36.2709 40.2656 35.8545 40.6649C36.146 39.7445 35.8689 38.6779 34.998 38.209C33.5534 37.4311 32.7177 38.6288 32.342 38.9283C32.3883 37.9416 32.397 37.0775 31.405 36.5484C30.0215 35.8106 29.1385 36.9737 28.8397 37.1481L28.8398 37.1481Z" fill="#EB9F63"/>
<path fill-rule="evenodd" clip-rule="evenodd" d="M16.2713 35.2922C16.1416 35.7893 16.2156 36.4647 16 36.8995V37.9023C16.4345 38.3267 16.4663 38.3615 17.1154 38.4421C17.597 38.502 18.0837 38.5717 18.5669 38.6281C20.3765 38.8391 23.0389 39.4623 24.2834 38.8066C25.2647 38.2896 25.2989 37.7961 25.7532 36.9383L26.3805 36.9566L25.7526 36.8301L25.953 35.0317C25.1992 35.627 25.2471 35.9552 24.1395 36.2688C23.4156 36.4737 22.2167 36.2353 21.4424 36.1411C19.8056 35.9419 17.7382 35.9127 16.2713 35.2923L16.2713 35.2922Z" fill="#CC3A60"/>
<path fill-rule="evenodd" clip-rule="evenodd" d="M58.7214 36.0454C59.2634 40.0017 61.9236 39.1777 65.7115 38.6625C67.1955 38.4606 67.8426 38.6142 68.5703 37.9019V37.0317L68.299 35.2922C66.8606 35.9056 64.6517 35.9532 63.0281 36.1518C62.232 36.2492 61.1082 36.4872 60.3556 36.2452C59.3263 35.9143 59.3264 35.6461 58.6162 35.0093L58.7214 36.0454V36.0454Z" fill="#B85CC0"/>
<path fill-rule="evenodd" clip-rule="evenodd" d="M53.0898 34.7859L55.2288 36.7011C55.5767 36.0682 55.9725 36.0455 56.6582 36.0484C57.3453 36.0513 58.0337 36.0474 58.7209 36.0454L58.6157 35.0093L58.3518 32.8247C57.5217 32.92 55.8325 33.0201 55.1143 33.2092C54.8275 33.2847 53.2967 34.5254 53.0899 34.7859H53.0898Z" fill="#D37D42"/>
<path fill-rule="evenodd" clip-rule="evenodd" d="M63.1183 32.7819C61.2776 33.4862 62.3415 36.2873 64.2021 35.5647C65.9285 34.8943 64.9955 32.0635 63.1183 32.7819Z" fill="#B36DB9"/>
<path fill-rule="evenodd" clip-rule="evenodd" d="M20.3184 32.7887C18.4399 33.5562 19.6512 36.3471 21.4719 35.5431C23.1214 34.8147 22.152 32.0397 20.3184 32.7887Z" fill="#EB8097"/>
</svg>
