<svg width="98" height="60" viewBox="0 0 98 60" fill="none" xmlns="http://www.w3.org/2000/svg">
<rect width="98" height="60" fill="#FFDAE2"/>
<path fill-rule="evenodd" clip-rule="evenodd" d="M19.8026 15.9998C28.1964 15.9998 35.5449 22.2369 35.5449 30.6264C35.5449 38.9785 28.159 45.1122 19.8026 45.1122C12.5033 45.1122 8 37.922 8 30.6264C8 23.2881 12.4606 15.9998 19.8026 15.9998Z" fill="#E3A75C"/>
<path fill-rule="evenodd" clip-rule="evenodd" d="M16.3768 24.9575C17.4005 24.9575 18.2966 25.7252 18.2966 26.7577C18.2966 27.7857 17.3959 28.5406 16.3768 28.5406C15.4867 28.5406 14.9375 27.6556 14.9375 26.7577C14.9375 25.8545 15.4815 24.9575 16.3768 24.9575Z" fill="#CE944C"/>
<path fill-rule="evenodd" clip-rule="evenodd" d="M16.3768 24.9575C17.4005 24.9575 18.2966 25.7252 18.2966 26.7577C18.2966 27.7857 17.3959 28.5406 16.3768 28.5406C15.4867 28.5406 14.9375 27.6556 14.9375 26.7577C14.9375 25.8545 15.4815 24.9575 16.3768 24.9575Z" fill="#9B6243"/>
<path fill-rule="evenodd" clip-rule="evenodd" d="M27.8332 28.5405C29.198 28.5405 30.3929 29.5481 30.3929 30.9033C30.3929 32.2525 29.192 33.2433 27.8332 33.2433C26.6463 33.2433 25.9141 32.0818 25.9141 30.9033C25.9141 29.7179 26.6394 28.5405 27.8332 28.5405Z" fill="#CE944C"/>
<path fill-rule="evenodd" clip-rule="evenodd" d="M27.8332 28.5405C29.198 28.5405 30.3929 29.5481 30.3929 30.9033C30.3929 32.2525 29.192 33.2433 27.8332 33.2433C26.6463 33.2433 25.9141 32.0818 25.9141 30.9033C25.9141 29.7179 26.6394 28.5405 27.8332 28.5405Z" fill="#9B6243"/>
<path fill-rule="evenodd" clip-rule="evenodd" d="M19.8668 37.946C20.8222 37.946 21.6586 38.6657 21.6586 39.6337C21.6586 40.5974 20.818 41.3052 19.8668 41.3052C19.036 41.3052 18.5234 40.4755 18.5234 39.6337C18.5234 38.787 19.0311 37.946 19.8668 37.946Z" fill="#CE944C"/>
<path fill-rule="evenodd" clip-rule="evenodd" d="M19.8668 37.946C20.8222 37.946 21.6586 38.6657 21.6586 39.6337C21.6586 40.5974 20.818 41.3052 19.8668 41.3052C19.036 41.3052 18.5234 40.4755 18.5234 39.6337C18.5234 38.787 19.0311 37.946 19.8668 37.946Z" fill="#9B6243"/>
<path d="M30.6263 23.1012C39.6844 29.9718 29.6284 42.6252 22.4259 43.2709C21.3851 43.6901 22.4556 45.33 24.8836 44.3192C40.8457 37.674 35.901 25.879 31.2866 20.4901C26.6052 15.8247 26.9804 20.3357 30.6263 23.1012Z" fill="#F4B96E"/>
<rect x="44" y="13.8999" width="11" height="28.6" fill="#D27EDA"/>
<path d="M44 8.3999V10.3555V12.7999H55V8.3999L53 9.86657L51.5 8.3999L49.5 9.86657L48 8.3999L46 9.86657L44 8.3999Z" fill="#D27EDA"/>
<path d="M44 48V46.0444V43.6H55V48L53 46.5333L51.5 48L49.5 46.5333L48 48L46 46.5333L44 48Z" fill="#D27EDA"/>
<line x1="48.7998" y1="27.5" x2="48.7998" y2="36.6" stroke="#E592EC" stroke-width="3" stroke-linecap="round"/>
<circle cx="49.5002" cy="20.5" r="3.3" fill="#E592EC"/>
<path d="M64 25H88L83.5 45.5714L75.5 46L67.5 45.5714L64 25Z" fill="#F8B19B"/>
<path fill-rule="evenodd" clip-rule="evenodd" d="M74.2837 17C81.5972 17 88 19.7852 88 23.5314C88 27.261 81.5647 30 74.2837 30C67.9238 30 64 26.7892 64 23.5314C64 20.2546 67.8865 17 74.2837 17Z" fill="#F8B19B"/>
<path d="M83.9801 27.5017C78.2383 31.8184 69.9594 30.8503 66.1316 25.259C65.3056 24.6034 65.4387 25.4714 66.3759 27.7601C68.6222 33.2453 84.9401 32.841 87.344 26.5456C89.1119 20.5336 87.4299 24.9082 83.9801 27.5017Z" fill="#FDC8B7"/>
<path fill-rule="evenodd" clip-rule="evenodd" d="M71.4393 20C72.463 20 73.3591 20.7676 73.3591 21.8002C73.3591 22.8282 72.4584 23.5831 71.4393 23.5831C70.5492 23.5831 70 22.6981 70 21.8002C70 20.897 70.544 20 71.4393 20Z" fill="#CE944C"/>
<path fill-rule="evenodd" clip-rule="evenodd" d="M71.4393 20C72.463 20 73.3591 20.7676 73.3591 21.8002C73.3591 22.8282 72.4584 23.5831 71.4393 23.5831C70.5492 23.5831 70 22.6981 70 21.8002C70 20.897 70.544 20 71.4393 20Z" fill="#BC805F"/>
<path fill-rule="evenodd" clip-rule="evenodd" d="M78.4393 24C79.463 24 80.3591 24.7676 80.3591 25.8002C80.3591 26.8282 79.4584 27.5831 78.4393 27.5831C77.5492 27.5831 77 26.6981 77 25.8002C77 24.897 77.544 24 78.4393 24Z" fill="#CE944C"/>
<path fill-rule="evenodd" clip-rule="evenodd" d="M78.4393 24C79.463 24 80.3591 24.7676 80.3591 25.8002C80.3591 26.8282 79.4584 27.5831 78.4393 27.5831C77.5492 27.5831 77 26.6981 77 25.8002C77 24.897 77.544 24 78.4393 24Z" fill="#BC805F"/>
<path fill-rule="evenodd" clip-rule="evenodd" d="M80.4393 18C81.463 18 82.3591 18.7676 82.3591 19.8002C82.3591 20.8282 81.4584 21.5831 80.4393 21.5831C79.5492 21.5831 79 20.6981 79 19.8002C79 18.897 79.544 18 80.4393 18Z" fill="#CE944C"/>
<path fill-rule="evenodd" clip-rule="evenodd" d="M80.4393 18C81.463 18 82.3591 18.7676 82.3591 19.8002C82.3591 20.8282 81.4584 21.5831 80.4393 21.5831C79.5492 21.5831 79 20.6981 79 19.8002C79 18.897 79.544 18 80.4393 18Z" fill="#BC805F"/>
</svg>
