<svg width="117" height="82" viewBox="0 0 117 82" fill="none" xmlns="http://www.w3.org/2000/svg">
<path d="M98.3975 24.1865C66.8531 16.4581 27.0042 30.7422 4.21729 60.531C3.3354 61.6902 4.73729 62.828 5.76417 61.6532C29.7259 34.2591 65.7311 18.9903 97.432 25.8057C98.4946 26.0309 99.4756 24.4454 98.3975 24.1865Z" fill="#F178B6"/>
<path d="M92.2353 34.8858C99.2593 32.0759 106.631 30.5176 114.157 32.1458C115.598 32.461 116.922 30.4863 115.894 29.3164C109.285 21.8389 101.873 15.9717 92.8308 11.7728C91.7991 11.2975 90.8701 12.7872 91.7936 13.4836C99.2717 19.1882 106.576 25.2026 113.313 31.7721L114.725 28.5983C106.401 28.2272 98.6767 29.0264 91.2455 33.0306C90.1844 33.5995 91.1435 35.3255 92.2353 34.8858Z" fill="#F178B6"/>
</svg>
