<svg width="406" height="88" viewBox="0 0 406 88" fill="none" xmlns="http://www.w3.org/2000/svg">
<path d="M5.096 52V19.76H1.716V15.288H30.264C31.4427 15.288 32.292 15.548 32.812 16.068C33.332 16.588 33.592 17.4373 33.592 18.616V46.384C33.592 47.1467 33.9733 47.528 34.736 47.528H36.972V52H31.772C30.5933 52 29.7267 51.74 29.172 51.22C28.652 50.7 28.392 49.8507 28.392 48.672V20.904C28.392 20.1413 28.0107 19.76 27.248 19.76H10.296V52H5.096ZM43.1661 62.4V31.148C43.1661 30.3853 42.7848 30.004 42.0221 30.004H39.8901V25.688H44.6221C46.7714 25.688 47.8461 26.572 47.8461 28.34L47.7941 29.744H47.8981C47.9674 29.6053 48.0541 29.432 48.1581 29.224C48.2968 29.016 48.6088 28.652 49.0941 28.132C49.5794 27.5773 50.1168 27.092 50.7061 26.676C51.3301 26.26 52.1621 25.896 53.2021 25.584C54.2768 25.2373 55.4208 25.064 56.6341 25.064C60.1701 25.064 62.9781 26.3293 65.0581 28.86C67.1728 31.3907 68.2301 34.7187 68.2301 38.844C68.2301 42.9693 67.1034 46.2973 64.8501 48.828C62.6314 51.3587 59.7714 52.624 56.2701 52.624C55.1954 52.624 54.1728 52.468 53.2021 52.156C52.2661 51.8787 51.5034 51.5493 50.9141 51.168C50.3248 50.752 49.8048 50.336 49.3541 49.92C48.9381 49.504 48.6434 49.1573 48.4701 48.88L48.2101 48.412H48.1061C48.1754 49.036 48.2101 49.7987 48.2101 50.7V62.4H43.1661ZM48.0541 38.948C48.0541 41.4787 48.7128 43.68 50.0301 45.552C51.3821 47.3893 53.2194 48.308 55.5421 48.308C57.6914 48.308 59.4768 47.4587 60.8981 45.76C62.3541 44.0613 63.0821 41.7733 63.0821 38.896C63.0821 36.0533 62.3888 33.7827 61.0021 32.084C59.6501 30.3507 57.8648 29.484 55.6461 29.484C53.4968 29.484 51.6941 30.2813 50.2381 31.876C48.7821 33.436 48.0541 35.7933 48.0541 38.948ZM74.3446 52V31.148C74.3446 30.3853 73.9806 30.004 73.2526 30.004H71.1726V25.688H75.8006C76.9792 25.688 77.8286 25.948 78.3486 26.468C78.8686 26.9533 79.1286 27.7853 79.1286 28.964V41.496C79.1286 43.2293 79.0592 44.4427 78.9206 45.136H79.0246C79.3712 44.4427 80.1859 43.2293 81.4686 41.496L92.8046 25.688H97.7966V46.54C97.7966 47.3027 98.1606 47.684 98.8886 47.684H100.969V52H96.3406C95.1619 52 94.3126 51.74 93.7926 51.22C93.2726 50.7 93.0126 49.8507 93.0126 48.672V36.192C93.0126 34.84 93.0819 33.6093 93.2206 32.5H93.1166C92.8392 33.1587 92.0246 34.3893 90.6726 36.192L79.3366 52H74.3446ZM103.368 48.776L105.76 45.448C107.805 47.4933 110.128 48.516 112.728 48.516C114.288 48.516 115.588 48.152 116.628 47.424C117.668 46.6613 118.188 45.5693 118.188 44.148C118.188 41.5133 116.403 40.196 112.832 40.196H109.504V36.712H112.156C115.588 36.712 117.304 35.3773 117.304 32.708C117.304 31.4253 116.888 30.472 116.056 29.848C115.224 29.1893 114.115 28.86 112.728 28.86C111.653 28.86 110.665 29.0853 109.764 29.536C108.897 29.952 108.464 30.576 108.464 31.408V32.604H104.252V30.16C104.252 28.496 105.119 27.2307 106.852 26.364C108.585 25.4973 110.683 25.064 113.144 25.064C115.987 25.064 118.24 25.688 119.904 26.936C121.568 28.1493 122.4 29.9 122.4 32.188C122.4 33.7133 122.019 34.9787 121.256 35.984C120.528 36.9893 119.609 37.7 118.5 38.116V38.22C119.887 38.5667 121.013 39.2773 121.88 40.352C122.781 41.4267 123.232 42.796 123.232 44.46C123.232 47.0253 122.244 49.036 120.268 50.492C118.327 51.9133 115.917 52.624 113.04 52.624C109.331 52.624 106.107 51.3413 103.368 48.776ZM130.949 48.672C128.21 46.0373 126.841 42.744 126.841 38.792C126.841 34.84 128.21 31.564 130.949 28.964C133.688 26.364 137.033 25.064 140.985 25.064C144.972 25.064 148.334 26.364 151.073 28.964C153.812 31.564 155.181 34.84 155.181 38.792C155.181 42.744 153.794 46.0373 151.021 48.672C148.282 51.3067 144.937 52.624 140.985 52.624C137.033 52.624 133.688 51.3067 130.949 48.672ZM134.589 32.084C132.821 33.852 131.937 36.088 131.937 38.792C131.937 41.496 132.821 43.7493 134.589 45.552C136.357 47.3547 138.489 48.256 140.985 48.256C143.516 48.256 145.648 47.372 147.381 45.604C149.149 43.8013 150.033 41.5307 150.033 38.792C150.033 36.088 149.149 33.852 147.381 32.084C145.648 30.316 143.516 29.432 140.985 29.432C138.489 29.432 136.357 30.316 134.589 32.084ZM161.23 49.14V30.004H157.954V25.688H172.098C174.802 25.688 176.934 26.2773 178.494 27.456C180.054 28.6 180.834 30.264 180.834 32.448C180.834 35.256 179.603 37.1627 177.142 38.168V38.272C178.737 38.6187 179.967 39.3813 180.834 40.56C181.701 41.704 182.134 43.0213 182.134 44.512C182.134 46.904 181.25 48.7587 179.482 50.076C177.749 51.3587 175.409 52 172.462 52H164.142C163.102 52 162.357 51.7747 161.906 51.324C161.455 50.8733 161.23 50.1453 161.23 49.14ZM166.274 36.764H171.214C172.67 36.764 173.779 36.4173 174.542 35.724C175.339 35.0307 175.738 34.0947 175.738 32.916C175.738 30.4547 174.178 29.224 171.058 29.224H166.274V36.764ZM166.274 47.372C166.274 48.0653 166.603 48.412 167.262 48.412H171.63C175.201 48.412 176.986 47.0253 176.986 44.252C176.986 42.9347 176.518 41.9293 175.582 41.236C174.646 40.508 173.329 40.144 171.63 40.144H166.274V47.372ZM189.703 48.672C186.964 46.0373 185.595 42.744 185.595 38.792C185.595 34.84 186.964 31.564 189.703 28.964C192.442 26.364 195.787 25.064 199.739 25.064C203.726 25.064 207.088 26.364 209.827 28.964C212.566 31.564 213.935 34.84 213.935 38.792C213.935 42.744 212.548 46.0373 209.775 48.672C207.036 51.3067 203.691 52.624 199.739 52.624C195.787 52.624 192.442 51.3067 189.703 48.672ZM193.343 32.084C191.575 33.852 190.691 36.088 190.691 38.792C190.691 41.496 191.575 43.7493 193.343 45.552C195.111 47.3547 197.243 48.256 199.739 48.256C202.27 48.256 204.402 47.372 206.135 45.604C207.903 43.8013 208.787 41.5307 208.787 38.792C208.787 36.088 207.903 33.852 206.135 32.084C204.402 30.316 202.27 29.432 199.739 29.432C197.243 29.432 195.111 30.316 193.343 32.084ZM220.036 52V31.148C220.036 30.3853 219.672 30.004 218.944 30.004H216.864V25.688H221.492C222.671 25.688 223.52 25.948 224.04 26.468C224.56 26.9533 224.82 27.7853 224.82 28.964V41.496C224.82 43.2293 224.751 44.4427 224.612 45.136H224.716C225.063 44.4427 225.877 43.2293 227.16 41.496L238.496 25.688H243.488V46.54C243.488 47.3027 243.852 47.684 244.58 47.684H246.66V52H242.032C240.853 52 240.004 51.74 239.484 51.22C238.964 50.7 238.704 49.8507 238.704 48.672V36.192C238.704 34.84 238.773 33.6093 238.912 32.5H238.808C238.531 33.1587 237.716 34.3893 236.364 36.192L225.028 52H220.036ZM231.684 22.672C229.569 22.672 227.749 22.0827 226.224 20.904C224.733 19.6907 223.988 18.0613 223.988 16.016V15.236H228.044V15.964C228.044 17.0387 228.408 17.888 229.136 18.512C229.864 19.1013 230.713 19.396 231.684 19.396C232.689 19.396 233.556 19.1013 234.284 18.512C235.012 17.888 235.376 17.0213 235.376 15.912V15.236H239.38V16.016C239.38 18.0613 238.635 19.6907 237.144 20.904C235.653 22.0827 233.833 22.672 231.684 22.672ZM267.652 48.308C264.948 45.8813 263.596 42.7093 263.596 38.792C263.596 34.8747 264.948 31.72 267.652 29.328C270.356 26.936 273.927 25.7227 278.364 25.688V20.748C278.364 19.9853 277.983 19.604 277.22 19.604H275.088V15.288H280.08C281.259 15.288 282.108 15.548 282.628 16.068C283.148 16.588 283.408 17.4373 283.408 18.616V25.688C287.845 25.7227 291.416 26.936 294.12 29.328C296.824 31.72 298.176 34.8747 298.176 38.792C298.176 42.7093 296.807 45.8813 294.068 48.308C291.364 50.7347 287.811 51.9653 283.408 52V62.4H278.364V52C273.961 51.9653 270.391 50.7347 267.652 48.308ZM283.408 47.892C286.355 47.892 288.695 47.06 290.428 45.396C292.161 43.6973 293.028 41.496 293.028 38.792C293.028 36.1227 292.161 33.9733 290.428 32.344C288.695 30.68 286.355 29.848 283.408 29.848V47.892ZM268.692 38.792C268.692 41.496 269.559 43.6973 271.292 45.396C273.06 47.06 275.417 47.892 278.364 47.892V29.848C275.417 29.848 273.06 30.68 271.292 32.344C269.559 33.9733 268.692 36.1227 268.692 38.792ZM305.789 48.672C303.05 46.0373 301.681 42.744 301.681 38.792C301.681 34.84 303.05 31.564 305.789 28.964C308.528 26.364 311.873 25.064 315.825 25.064C319.812 25.064 323.174 26.364 325.913 28.964C328.652 31.564 330.021 34.84 330.021 38.792C330.021 42.744 328.634 46.0373 325.861 48.672C323.122 51.3067 319.777 52.624 315.825 52.624C311.873 52.624 308.528 51.3067 305.789 48.672ZM309.429 32.084C307.661 33.852 306.777 36.088 306.777 38.792C306.777 41.496 307.661 43.7493 309.429 45.552C311.197 47.3547 313.329 48.256 315.825 48.256C318.356 48.256 320.488 47.372 322.221 45.604C323.989 43.8013 324.873 41.5307 324.873 38.792C324.873 36.088 323.989 33.852 322.221 32.084C320.488 30.316 318.356 29.432 315.825 29.432C313.329 29.432 311.197 30.316 309.429 32.084ZM336.174 52V31.148C336.174 30.3853 335.793 30.004 335.03 30.004H332.898V25.688H337.89C339.069 25.688 339.918 25.948 340.438 26.468C340.958 26.988 341.218 27.8373 341.218 29.016V36.452H354.53V25.688H359.574V46.54C359.574 47.3027 359.955 47.684 360.718 47.684H362.798V52H357.858C356.679 52 355.83 51.74 355.31 51.22C354.79 50.7 354.53 49.8507 354.53 48.672V40.664H341.218V52H336.174ZM364.52 51.064C364.52 49.92 364.763 49.088 365.248 48.568C365.733 48.048 366.548 47.788 367.692 47.788H368.108C371.02 44.4253 372.476 38.896 372.476 31.2V30.004H369.252V25.688H386.672C387.851 25.688 388.7 25.948 389.22 26.468C389.74 26.988 390 27.8373 390 29.016V47.788H390.832C391.976 47.788 392.791 48.048 393.276 48.568C393.761 49.088 394.004 49.92 394.004 51.064V58.24H389.376V53.144C389.376 52.3813 389.012 52 388.284 52H370.24C369.512 52 369.148 52.3813 369.148 53.144V58.24H364.52V51.064ZM373.204 47.788H384.956V31.148C384.956 30.3853 384.575 30.004 383.812 30.004H377.26V31.148C377.26 38.8093 375.908 44.356 373.204 47.788ZM397.74 31.044V25.688H402.888V31.044H397.74ZM397.74 52V46.644H402.888V52H397.74Z" fill="#BB9AC6"/>
<path d="M5.096 49V16.76H1.716V12.288H30.264C31.4427 12.288 32.292 12.548 32.812 13.068C33.332 13.588 33.592 14.4373 33.592 15.616V43.384C33.592 44.1467 33.9733 44.528 34.736 44.528H36.972V49H31.772C30.5933 49 29.7267 48.74 29.172 48.22C28.652 47.7 28.392 46.8507 28.392 45.672V17.904C28.392 17.1413 28.0107 16.76 27.248 16.76H10.296V49H5.096ZM43.1661 59.4V28.148C43.1661 27.3853 42.7848 27.004 42.0221 27.004H39.8901V22.688H44.6221C46.7714 22.688 47.8461 23.572 47.8461 25.34L47.7941 26.744H47.8981C47.9674 26.6053 48.0541 26.432 48.1581 26.224C48.2968 26.016 48.6088 25.652 49.0941 25.132C49.5794 24.5773 50.1168 24.092 50.7061 23.676C51.3301 23.26 52.1621 22.896 53.2021 22.584C54.2768 22.2373 55.4208 22.064 56.6341 22.064C60.1701 22.064 62.9781 23.3293 65.0581 25.86C67.1728 28.3907 68.2301 31.7187 68.2301 35.844C68.2301 39.9693 67.1034 43.2973 64.8501 45.828C62.6314 48.3587 59.7714 49.624 56.2701 49.624C55.1954 49.624 54.1728 49.468 53.2021 49.156C52.2661 48.8787 51.5034 48.5493 50.9141 48.168C50.3248 47.752 49.8048 47.336 49.3541 46.92C48.9381 46.504 48.6434 46.1573 48.4701 45.88L48.2101 45.412H48.1061C48.1754 46.036 48.2101 46.7987 48.2101 47.7V59.4H43.1661ZM48.0541 35.948C48.0541 38.4787 48.7128 40.68 50.0301 42.552C51.3821 44.3893 53.2194 45.308 55.5421 45.308C57.6914 45.308 59.4768 44.4587 60.8981 42.76C62.3541 41.0613 63.0821 38.7733 63.0821 35.896C63.0821 33.0533 62.3888 30.7827 61.0021 29.084C59.6501 27.3507 57.8648 26.484 55.6461 26.484C53.4968 26.484 51.6941 27.2813 50.2381 28.876C48.7821 30.436 48.0541 32.7933 48.0541 35.948ZM74.3446 49V28.148C74.3446 27.3853 73.9806 27.004 73.2526 27.004H71.1726V22.688H75.8006C76.9792 22.688 77.8286 22.948 78.3486 23.468C78.8686 23.9533 79.1286 24.7853 79.1286 25.964V38.496C79.1286 40.2293 79.0592 41.4427 78.9206 42.136H79.0246C79.3712 41.4427 80.1859 40.2293 81.4686 38.496L92.8046 22.688H97.7966V43.54C97.7966 44.3027 98.1606 44.684 98.8886 44.684H100.969V49H96.3406C95.1619 49 94.3126 48.74 93.7926 48.22C93.2726 47.7 93.0126 46.8507 93.0126 45.672V33.192C93.0126 31.84 93.0819 30.6093 93.2206 29.5H93.1166C92.8392 30.1587 92.0246 31.3893 90.6726 33.192L79.3366 49H74.3446ZM103.368 45.776L105.76 42.448C107.805 44.4933 110.128 45.516 112.728 45.516C114.288 45.516 115.588 45.152 116.628 44.424C117.668 43.6613 118.188 42.5693 118.188 41.148C118.188 38.5133 116.403 37.196 112.832 37.196H109.504V33.712H112.156C115.588 33.712 117.304 32.3773 117.304 29.708C117.304 28.4253 116.888 27.472 116.056 26.848C115.224 26.1893 114.115 25.86 112.728 25.86C111.653 25.86 110.665 26.0853 109.764 26.536C108.897 26.952 108.464 27.576 108.464 28.408V29.604H104.252V27.16C104.252 25.496 105.119 24.2307 106.852 23.364C108.585 22.4973 110.683 22.064 113.144 22.064C115.987 22.064 118.24 22.688 119.904 23.936C121.568 25.1493 122.4 26.9 122.4 29.188C122.4 30.7133 122.019 31.9787 121.256 32.984C120.528 33.9893 119.609 34.7 118.5 35.116V35.22C119.887 35.5667 121.013 36.2773 121.88 37.352C122.781 38.4267 123.232 39.796 123.232 41.46C123.232 44.0253 122.244 46.036 120.268 47.492C118.327 48.9133 115.917 49.624 113.04 49.624C109.331 49.624 106.107 48.3413 103.368 45.776ZM130.949 45.672C128.21 43.0373 126.841 39.744 126.841 35.792C126.841 31.84 128.21 28.564 130.949 25.964C133.688 23.364 137.033 22.064 140.985 22.064C144.972 22.064 148.334 23.364 151.073 25.964C153.812 28.564 155.181 31.84 155.181 35.792C155.181 39.744 153.794 43.0373 151.021 45.672C148.282 48.3067 144.937 49.624 140.985 49.624C137.033 49.624 133.688 48.3067 130.949 45.672ZM134.589 29.084C132.821 30.852 131.937 33.088 131.937 35.792C131.937 38.496 132.821 40.7493 134.589 42.552C136.357 44.3547 138.489 45.256 140.985 45.256C143.516 45.256 145.648 44.372 147.381 42.604C149.149 40.8013 150.033 38.5307 150.033 35.792C150.033 33.088 149.149 30.852 147.381 29.084C145.648 27.316 143.516 26.432 140.985 26.432C138.489 26.432 136.357 27.316 134.589 29.084ZM161.23 46.14V27.004H157.954V22.688H172.098C174.802 22.688 176.934 23.2773 178.494 24.456C180.054 25.6 180.834 27.264 180.834 29.448C180.834 32.256 179.603 34.1627 177.142 35.168V35.272C178.737 35.6187 179.967 36.3813 180.834 37.56C181.701 38.704 182.134 40.0213 182.134 41.512C182.134 43.904 181.25 45.7587 179.482 47.076C177.749 48.3587 175.409 49 172.462 49H164.142C163.102 49 162.357 48.7747 161.906 48.324C161.455 47.8733 161.23 47.1453 161.23 46.14ZM166.274 33.764H171.214C172.67 33.764 173.779 33.4173 174.542 32.724C175.339 32.0307 175.738 31.0947 175.738 29.916C175.738 27.4547 174.178 26.224 171.058 26.224H166.274V33.764ZM166.274 44.372C166.274 45.0653 166.603 45.412 167.262 45.412H171.63C175.201 45.412 176.986 44.0253 176.986 41.252C176.986 39.9347 176.518 38.9293 175.582 38.236C174.646 37.508 173.329 37.144 171.63 37.144H166.274V44.372ZM189.703 45.672C186.964 43.0373 185.595 39.744 185.595 35.792C185.595 31.84 186.964 28.564 189.703 25.964C192.442 23.364 195.787 22.064 199.739 22.064C203.726 22.064 207.088 23.364 209.827 25.964C212.566 28.564 213.935 31.84 213.935 35.792C213.935 39.744 212.548 43.0373 209.775 45.672C207.036 48.3067 203.691 49.624 199.739 49.624C195.787 49.624 192.442 48.3067 189.703 45.672ZM193.343 29.084C191.575 30.852 190.691 33.088 190.691 35.792C190.691 38.496 191.575 40.7493 193.343 42.552C195.111 44.3547 197.243 45.256 199.739 45.256C202.27 45.256 204.402 44.372 206.135 42.604C207.903 40.8013 208.787 38.5307 208.787 35.792C208.787 33.088 207.903 30.852 206.135 29.084C204.402 27.316 202.27 26.432 199.739 26.432C197.243 26.432 195.111 27.316 193.343 29.084ZM220.036 49V28.148C220.036 27.3853 219.672 27.004 218.944 27.004H216.864V22.688H221.492C222.671 22.688 223.52 22.948 224.04 23.468C224.56 23.9533 224.82 24.7853 224.82 25.964V38.496C224.82 40.2293 224.751 41.4427 224.612 42.136H224.716C225.063 41.4427 225.877 40.2293 227.16 38.496L238.496 22.688H243.488V43.54C243.488 44.3027 243.852 44.684 244.58 44.684H246.66V49H242.032C240.853 49 240.004 48.74 239.484 48.22C238.964 47.7 238.704 46.8507 238.704 45.672V33.192C238.704 31.84 238.773 30.6093 238.912 29.5H238.808C238.531 30.1587 237.716 31.3893 236.364 33.192L225.028 49H220.036ZM231.684 19.672C229.569 19.672 227.749 19.0827 226.224 17.904C224.733 16.6907 223.988 15.0613 223.988 13.016V12.236H228.044V12.964C228.044 14.0387 228.408 14.888 229.136 15.512C229.864 16.1013 230.713 16.396 231.684 16.396C232.689 16.396 233.556 16.1013 234.284 15.512C235.012 14.888 235.376 14.0213 235.376 12.912V12.236H239.38V13.016C239.38 15.0613 238.635 16.6907 237.144 17.904C235.653 19.0827 233.833 19.672 231.684 19.672ZM267.652 45.308C264.948 42.8813 263.596 39.7093 263.596 35.792C263.596 31.8747 264.948 28.72 267.652 26.328C270.356 23.936 273.927 22.7227 278.364 22.688V17.748C278.364 16.9853 277.983 16.604 277.22 16.604H275.088V12.288H280.08C281.259 12.288 282.108 12.548 282.628 13.068C283.148 13.588 283.408 14.4373 283.408 15.616V22.688C287.845 22.7227 291.416 23.936 294.12 26.328C296.824 28.72 298.176 31.8747 298.176 35.792C298.176 39.7093 296.807 42.8813 294.068 45.308C291.364 47.7347 287.811 48.9653 283.408 49V59.4H278.364V49C273.961 48.9653 270.391 47.7347 267.652 45.308ZM283.408 44.892C286.355 44.892 288.695 44.06 290.428 42.396C292.161 40.6973 293.028 38.496 293.028 35.792C293.028 33.1227 292.161 30.9733 290.428 29.344C288.695 27.68 286.355 26.848 283.408 26.848V44.892ZM268.692 35.792C268.692 38.496 269.559 40.6973 271.292 42.396C273.06 44.06 275.417 44.892 278.364 44.892V26.848C275.417 26.848 273.06 27.68 271.292 29.344C269.559 30.9733 268.692 33.1227 268.692 35.792ZM305.789 45.672C303.05 43.0373 301.681 39.744 301.681 35.792C301.681 31.84 303.05 28.564 305.789 25.964C308.528 23.364 311.873 22.064 315.825 22.064C319.812 22.064 323.174 23.364 325.913 25.964C328.652 28.564 330.021 31.84 330.021 35.792C330.021 39.744 328.634 43.0373 325.861 45.672C323.122 48.3067 319.777 49.624 315.825 49.624C311.873 49.624 308.528 48.3067 305.789 45.672ZM309.429 29.084C307.661 30.852 306.777 33.088 306.777 35.792C306.777 38.496 307.661 40.7493 309.429 42.552C311.197 44.3547 313.329 45.256 315.825 45.256C318.356 45.256 320.488 44.372 322.221 42.604C323.989 40.8013 324.873 38.5307 324.873 35.792C324.873 33.088 323.989 30.852 322.221 29.084C320.488 27.316 318.356 26.432 315.825 26.432C313.329 26.432 311.197 27.316 309.429 29.084ZM336.174 49V28.148C336.174 27.3853 335.793 27.004 335.03 27.004H332.898V22.688H337.89C339.069 22.688 339.918 22.948 340.438 23.468C340.958 23.988 341.218 24.8373 341.218 26.016V33.452H354.53V22.688H359.574V43.54C359.574 44.3027 359.955 44.684 360.718 44.684H362.798V49H357.858C356.679 49 355.83 48.74 355.31 48.22C354.79 47.7 354.53 46.8507 354.53 45.672V37.664H341.218V49H336.174ZM364.52 48.064C364.52 46.92 364.763 46.088 365.248 45.568C365.733 45.048 366.548 44.788 367.692 44.788H368.108C371.02 41.4253 372.476 35.896 372.476 28.2V27.004H369.252V22.688H386.672C387.851 22.688 388.7 22.948 389.22 23.468C389.74 23.988 390 24.8373 390 26.016V44.788H390.832C391.976 44.788 392.791 45.048 393.276 45.568C393.761 46.088 394.004 46.92 394.004 48.064V55.24H389.376V50.144C389.376 49.3813 389.012 49 388.284 49H370.24C369.512 49 369.148 49.3813 369.148 50.144V55.24H364.52V48.064ZM373.204 44.788H384.956V28.148C384.956 27.3853 384.575 27.004 383.812 27.004H377.26V28.148C377.26 35.8093 375.908 41.356 373.204 44.788ZM397.74 28.044V22.688H402.888V28.044H397.74ZM397.74 49V43.644H402.888V49H397.74Z" fill="white"/>
<path d="M4.32954 86.8145C23.9007 63.8451 53.9043 88.3355 75.9323 87.3172C96.6312 86.3545 113.464 73.2964 134.917 75.3155C149.107 76.6478 158.958 85.9865 172.473 87.7598C181.85 88.9953 188.775 85.1967 197.517 82.4893C218.807 75.869 238.52 73.0823 260.532 77.8611C272.281 80.4131 281.546 83.1269 293.601 80.6986C301.513 79.1094 308.641 74.4146 316.559 72.9269C334.552 69.547 344.697 75.528 360.008 79.8088C374.322 83.8089 388.777 85.0682 403.604 85.6439C405.485 85.7169 405.445 82.908 403.604 82.7637C381.868 81.0507 363.592 75.7073 342.871 70.6826C325.661 66.5081 316.97 70.9062 300.408 75.1363C276.56 81.2236 257.139 70.1846 233.731 71.5835C219.079 72.4558 204.899 77.3472 191.003 81.4536C171.697 87.1666 161.98 77.3964 144.347 73.0332C127.453 68.8523 114.22 74.6446 98.1423 78.7351C82.8378 82.6288 69.4629 83.9722 53.9603 80.5749C45.3057 78.678 37.7596 74.0118 28.6401 73.6485C17.4201 73.2013 9.48594 76.256 2.34404 84.8446C1.2067 86.2149 3.1555 88.1896 4.32798 86.8145H4.32954Z" fill="#FEFEFE"/>
</svg>
