<svg width="546" height="164" viewBox="0 0 546 164" fill="none" xmlns="http://www.w3.org/2000/svg">
<path d="M65.2149 86.2019L70.7685 34.6486L65.3449 35.0162L66.1152 27.8652L92.0651 26.1065C97.5165 25.7371 101.785 27.1262 104.869 30.2739C107.96 33.3662 109.206 37.684 108.609 43.2274C108.012 48.7707 105.804 53.3777 101.985 57.0484C98.1658 60.719 93.5305 62.739 88.0791 63.1085L75.8968 63.9341L73.559 85.6364L65.2149 86.2019ZM76.6672 56.7832L87.5144 56.048C91.0189 55.8105 93.8829 54.5984 96.1064 52.4116C98.3299 50.2248 99.6327 47.3576 100.015 43.8098C100.391 40.3175 99.6854 37.6414 97.8978 35.7815C96.1659 33.9179 93.5477 33.1048 90.0432 33.3423L79.1125 34.0831L76.6672 56.7832Z" fill="white"/>
<path d="M114.543 77.576C110.603 73.6608 108.973 68.5436 109.653 62.2241C110.334 55.9047 113.096 50.5173 117.938 46.0619C122.781 41.6066 128.372 39.164 134.714 38.7343C141.111 38.3007 146.283 40.0138 150.229 43.8735C154.176 47.7332 155.809 52.8227 155.128 59.1422C154.448 65.4616 151.655 70.8786 146.751 75.3931C141.903 79.9039 136.308 82.3742 129.967 82.804C123.625 83.2338 118.484 81.4911 114.543 77.576ZM123.242 50.6551C120.1 53.6745 118.296 57.3461 117.831 61.6699C117.365 65.9938 118.395 69.5008 120.922 72.1911C123.448 74.8814 126.714 76.0908 130.719 75.8194C134.78 75.5441 138.353 73.8987 141.439 70.8831C144.586 67.8083 146.396 64.0813 146.868 59.702C147.334 55.3782 146.3 51.8988 143.768 49.264C141.291 46.6254 138.022 45.4437 133.961 45.7189C129.956 45.9903 126.383 47.6357 123.242 50.6551Z" fill="white"/>
<path d="M157.62 74.8216L162.031 69.2399C164.961 72.288 168.512 73.6707 172.684 73.388C175.187 73.2183 177.336 72.4949 179.13 71.2177C180.93 69.8851 181.952 68.0824 182.197 65.8096C182.651 61.5966 180.013 59.6843 174.284 60.0726L168.944 60.4345L169.544 54.8635L173.799 54.575C179.306 54.2018 182.29 51.881 182.749 47.6126C182.97 45.5616 182.467 44.0824 181.24 43.1751C180.018 42.2123 178.295 41.8063 176.07 41.9571C174.345 42.074 172.721 42.5418 171.197 43.3604C169.735 44.1199 168.932 45.1648 168.789 46.4952L168.582 48.4077L161.824 48.8657L162.245 44.9576C162.531 42.2968 164.14 40.1793 167.071 38.6049C170.001 37.0306 173.441 36.1096 177.391 35.8419C181.952 35.5328 185.461 36.2855 187.916 38.1002C190.377 39.8594 191.41 42.5683 191.016 46.2269C190.753 48.666 189.924 50.7308 188.527 52.4213C187.185 54.1081 185.589 55.3444 183.737 56.1302L183.719 56.2965C185.884 56.7 187.57 57.7139 188.775 59.3381C190.037 60.9585 190.524 63.0991 190.237 65.76C189.795 69.862 187.864 73.1846 184.442 75.7277C181.082 78.2116 177.094 79.61 172.477 79.9229C166.525 80.3263 161.572 78.6259 157.62 74.8216Z" fill="white"/>
<path d="M237.774 69.2243L241.733 32.4718L249.827 31.9232L246.235 65.2666C246.104 66.4861 246.65 67.0544 247.874 66.9715L251.211 66.7453L250.468 73.6467L242.541 74.184C240.65 74.3121 239.331 73.9888 238.587 73.2138C237.842 72.4389 237.571 71.109 237.774 69.2243ZM199.478 72.5626L202.577 43.7925C202.708 42.573 202.162 42.0047 200.938 42.0876L197.517 42.3195L198.261 35.418L206.271 34.8751C209.831 34.6338 211.438 36.1208 211.092 39.3359L209.954 49.896L218.298 49.3305C223.082 49.0063 226.678 49.9733 229.085 52.2314C231.498 54.4341 232.484 57.5865 232.042 61.6886C231.606 65.7352 229.838 69.0742 226.739 71.7056C223.701 74.2777 219.929 75.7165 215.423 76.0218L203.574 76.8248C201.961 76.9342 200.832 76.653 200.186 75.9814C199.541 75.3098 199.305 74.1702 199.478 72.5626ZM207.885 69.1038C207.766 70.2125 208.234 70.731 209.291 70.6594L215.049 70.2692C217.552 70.0995 219.573 69.2746 221.113 67.7946C222.709 66.3107 223.629 64.4324 223.874 62.1596C224.125 59.8314 223.626 58.0492 222.379 56.813C221.132 55.5769 219.229 55.0455 216.67 55.2189L209.327 55.7166L207.885 69.1038Z" fill="white"/>
<path d="M259.449 73.0381L263.238 37.8654L257.981 38.2217L258.724 31.3202L286.677 29.4258C288.624 29.2938 289.972 29.5876 290.723 30.3072C291.474 31.0267 291.748 32.3288 291.545 34.2135L290.855 40.6161L284.097 41.0742L284.401 38.2471C284.533 37.0275 283.986 36.4592 282.763 36.5422L271.331 37.3169L267.542 72.4895L259.449 73.0381Z" fill="white"/>
<path d="M294.325 87.1831L299.708 37.2096C299.84 35.9901 299.294 35.4218 298.07 35.5047L294.649 35.7366L295.392 28.8351L302.985 28.3205C306.434 28.0868 308.006 29.3835 307.702 32.2106L307.376 34.4613L307.543 34.45C307.679 34.2207 307.847 33.9341 308.05 33.5902C308.308 33.2425 308.872 32.6265 309.74 31.7423C310.614 30.8025 311.56 29.968 312.578 29.2387C313.651 28.5057 315.048 27.8331 316.771 27.2211C318.555 26.5499 320.421 26.1484 322.367 26.0164C328.041 25.6319 332.329 27.3498 335.231 31.1703C338.188 34.987 339.312 40.1936 338.601 46.7902C337.89 53.3868 335.509 58.831 331.457 63.1227C327.461 67.4106 322.654 69.745 317.036 70.1257C315.312 70.2426 313.697 70.1044 312.194 69.711C310.739 69.3693 309.572 68.9257 308.692 68.38C307.818 67.7789 307.056 67.1702 306.404 66.554C305.808 65.9341 305.395 65.4118 305.165 64.9871L304.828 64.2671L304.661 64.2784C304.665 65.2686 304.589 66.4844 304.434 67.9257L302.419 86.6345L294.325 87.1831ZM306.208 49.1506C305.772 53.1973 306.45 56.6457 308.241 59.4959C310.094 62.2868 312.884 63.556 316.611 63.3034C320.06 63.0697 323.071 61.5174 325.645 58.6466C328.273 55.772 329.836 52.0342 330.331 47.4332C330.821 42.8876 330.1 39.3321 328.167 36.7667C326.296 34.142 323.581 32.9504 320.021 33.1916C316.572 33.4254 313.542 34.8964 310.931 37.6047C308.326 40.2575 306.752 44.1062 306.208 49.1506Z" fill="white"/>
<path d="M384.935 59.2507L388.894 22.4982L396.988 21.9497L393.396 55.293C393.265 56.5125 393.811 57.0808 395.034 56.9979L398.372 56.7717L397.629 63.6732L389.702 64.2104C387.811 64.3386 386.492 64.0152 385.748 63.2403C385.003 62.4653 384.732 61.1355 384.935 59.2507ZM346.639 62.5891L349.738 33.819C349.869 32.5995 349.323 32.0312 348.099 32.1141L344.678 32.3459L345.422 25.4445L353.432 24.9016C356.992 24.6603 358.599 26.1472 358.253 29.3624L357.115 39.9225L365.459 39.357C370.243 39.0328 373.839 39.9997 376.246 42.2578C378.659 44.4605 379.645 47.6129 379.203 51.715C378.767 55.7617 376.999 59.1007 373.9 61.732C370.861 64.3042 367.09 65.7429 362.584 66.0483L350.735 66.8513C349.122 66.9606 347.993 66.6795 347.347 66.0079C346.702 65.3362 346.466 64.1966 346.639 62.5891ZM355.046 59.1303C354.927 60.2389 355.395 60.7574 356.452 60.6858L362.21 60.2956C364.713 60.126 366.734 59.3011 368.274 57.821C369.87 56.3371 370.79 54.4588 371.035 52.186C371.286 49.8578 370.787 48.0757 369.54 46.8395C368.293 45.6033 366.39 45.072 363.831 45.2454L356.488 45.743L355.046 59.1303Z" fill="white"/>
<path d="M407.099 57.7486L410.118 29.7269C410.249 28.5073 409.703 27.939 408.479 28.022L405.058 28.2538L405.802 21.3523L413.812 20.8094C415.703 20.6813 417.021 21.0047 417.766 21.7796C418.511 22.5546 418.782 23.8844 418.579 25.7692L415.542 53.9572C415.411 55.1767 415.929 55.7469 417.098 55.6677L430.698 54.746L434.505 19.407L442.599 18.8585L438.792 54.1974L452.56 53.2643C453.728 53.1852 454.378 52.5358 454.509 51.3163L457.546 23.1283C457.749 21.2435 458.312 19.8571 459.236 18.9691C460.16 18.081 461.568 17.5729 463.459 17.4447L471.469 16.9018L470.726 23.8033L467.305 24.0352C466.081 24.1181 465.403 24.7694 465.272 25.9889L462.253 54.0106C462.05 55.8954 461.487 57.2818 460.563 58.1698C459.639 59.0579 458.231 59.566 456.34 59.6942L411.866 62.7083C409.975 62.8364 408.657 62.5131 407.912 61.7381C407.167 60.9632 406.896 59.6333 407.099 57.7486Z" fill="white"/>
<path d="M141.769 145.999L145.704 109.468L140.245 109.838L141.017 102.67L178.888 100.104C180.852 99.9705 182.221 100.306 182.995 101.111C183.768 101.916 184.05 103.297 183.839 105.255L180.704 134.358C180.567 135.625 181.135 136.215 182.406 136.129L185.959 135.888L185.187 143.056L176.867 143.62C174.903 143.753 173.534 143.417 172.76 142.613C171.987 141.808 171.705 140.426 171.916 138.469L175.051 109.365C175.188 108.099 174.62 107.508 173.349 107.595L154.11 108.898L150.175 145.429L141.769 145.999Z" fill="white"/>
<path d="M192.549 159.703L198.14 107.801C198.276 106.534 197.709 105.944 196.438 106.03L192.885 106.271L193.657 99.1026L201.543 98.5682C205.125 98.3254 206.758 99.6722 206.442 102.608L206.104 104.946L206.277 104.934C206.418 104.696 206.593 104.399 206.804 104.041C207.072 103.68 207.657 103.04 208.559 102.122C209.467 101.146 210.449 100.279 211.506 99.5219C212.62 98.7605 214.072 98.062 215.861 97.4264C217.714 96.7292 219.652 96.3122 221.674 96.1751C227.567 95.7757 232.02 97.56 235.034 101.528C238.105 105.492 239.272 110.9 238.534 117.751C237.796 124.602 235.323 130.257 231.115 134.714C226.964 139.168 221.972 141.592 216.136 141.987C214.345 142.109 212.669 141.965 211.107 141.557C209.597 141.202 208.385 140.741 207.471 140.174C206.563 139.55 205.771 138.918 205.094 138.278C204.475 137.634 204.046 137.092 203.807 136.651L203.457 135.903L203.284 135.914C203.288 136.943 203.209 138.206 203.048 139.702L200.955 159.134L192.549 159.703ZM204.891 120.203C204.438 124.405 205.142 127.987 207.002 130.947C208.927 133.846 211.824 135.164 215.695 134.902C219.277 134.659 222.405 133.047 225.077 130.065C227.808 127.08 229.43 123.197 229.945 118.419C230.454 113.698 229.704 110.005 227.697 107.34C225.754 104.614 222.934 103.377 219.236 103.627C215.654 103.87 212.507 105.398 209.796 108.211C207.09 110.966 205.455 114.963 204.891 120.203Z" fill="white"/>
<path d="M246.37 138.91L250.101 104.279C250.237 103.012 249.699 102.42 248.486 102.502L245.019 102.737L245.791 95.5693L253.504 95.0466C255.469 94.9135 256.838 95.2494 257.611 96.0542C258.391 96.8015 258.675 98.1539 258.465 100.111L256.223 120.924C255.912 123.803 255.58 125.826 255.225 126.993L255.398 126.981C256.1 125.791 257.675 123.684 260.122 120.66L281.843 93.126L290.162 92.5622L286.432 127.193C286.295 128.46 286.834 129.052 288.047 128.97L291.513 128.735L290.741 135.903L283.028 136.425C281.064 136.558 279.695 136.223 278.921 135.418C278.148 134.613 277.866 133.232 278.077 131.274L280.31 110.547C280.552 108.302 280.888 106.25 281.317 104.392L281.144 104.404C280.564 105.529 278.986 107.665 276.41 110.812L254.69 138.346L246.37 138.91Z" fill="white"/>
<path d="M295.317 130.277L299.898 124.48C302.941 127.646 306.629 129.082 310.962 128.788C313.562 128.612 315.794 127.861 317.657 126.534C319.527 125.15 320.589 123.278 320.843 120.917C321.315 116.542 318.575 114.555 312.624 114.959L307.078 115.335L307.701 109.548L312.121 109.249C317.84 108.861 320.939 106.451 321.417 102.018C321.646 99.8874 321.123 98.3511 319.848 97.4087C318.58 96.4088 316.79 95.9871 314.479 96.1437C312.688 96.2651 311.001 96.7509 309.418 97.6012C307.899 98.39 307.066 99.4753 306.917 100.857L306.703 102.843L299.683 103.319L300.12 99.2601C300.418 96.4966 302.089 94.2972 305.133 92.6621C308.176 91.027 311.749 90.0704 315.851 89.7924C320.589 89.4713 324.233 90.2532 326.782 92.1379C329.339 93.965 330.412 96.7785 330.003 100.578C329.73 103.112 328.868 105.256 327.417 107.012C326.024 108.764 324.366 110.048 322.442 110.864L322.424 111.037C324.673 111.456 326.423 112.509 327.675 114.196C328.985 115.879 329.491 118.102 329.194 120.866C328.735 125.126 326.728 128.577 323.175 131.218C319.685 133.798 315.543 135.25 310.747 135.575C304.565 135.994 299.422 134.228 295.317 130.277Z" fill="white"/>
<path d="M341.301 126.989C337.208 122.923 335.515 117.608 336.222 111.045C336.93 104.481 339.798 98.8858 344.827 94.2584C349.856 89.631 355.664 87.0942 362.251 86.6478C368.895 86.1975 374.266 87.9767 378.365 91.9854C382.464 95.9941 384.16 101.28 383.453 107.844C382.746 114.407 379.846 120.033 374.753 124.722C369.717 129.407 363.906 131.973 357.32 132.419C350.734 132.865 345.394 131.055 341.301 126.989ZM350.335 99.0289C347.072 102.165 345.199 105.978 344.715 110.469C344.232 114.96 345.302 118.602 347.926 121.396C350.55 124.191 353.942 125.447 358.101 125.165C362.319 124.879 366.03 123.17 369.235 120.038C372.504 116.844 374.384 112.973 374.874 108.425C375.357 103.934 374.284 100.321 371.654 97.5841C369.082 94.8436 365.687 93.6163 361.469 93.9021C357.309 94.184 353.598 95.893 350.335 99.0289Z" fill="white"/>
<path d="M391.683 124.346L395.107 92.5654L389.647 92.9354L390.419 85.7675L413.991 84.1699C418.497 83.8645 421.945 84.6025 424.334 86.3838C426.729 88.1075 427.732 90.783 427.341 94.4101C426.838 99.0736 424.446 102.379 420.164 104.327L420.146 104.5C422.741 104.895 424.656 106.023 425.889 107.882C427.129 109.684 427.616 111.823 427.349 114.299C426.921 118.272 425.116 121.452 421.934 123.839C418.816 126.165 414.801 127.495 409.89 127.827L396.024 128.767C394.291 128.885 393.089 128.595 392.419 127.897C391.748 127.199 391.503 126.016 391.683 124.346ZM402.303 103.223L410.536 102.665C412.963 102.5 414.874 101.799 416.269 100.562C417.721 99.32 418.553 97.7205 418.764 95.763C419.205 91.6752 416.825 89.8076 411.625 90.16L403.652 90.7003L402.303 103.223ZM400.405 120.84C400.281 121.992 400.768 122.53 401.866 122.456L409.146 121.963C415.096 121.559 418.32 119.055 418.816 114.449C419.052 112.261 418.452 110.644 417.016 109.598C415.586 108.495 413.456 108.039 410.625 108.231L401.699 108.836L400.405 120.84Z" fill="white"/>
<path d="M442.413 156.522C451.161 161.705 465.055 158.207 470.844 149.655C473.996 145.055 472.066 134.625 464.733 137.8C457.079 141.104 464.669 148.554 470.329 148.036C483.194 146.805 484.673 128.665 483.837 118.948C483.708 117.717 481.843 117.652 481.908 118.948C482.036 123.742 481.972 128.665 480.685 133.33C478.949 139.614 475.475 142.982 470.78 147.323C463.318 154.19 453.413 160.604 443.314 155.032C442.349 154.514 441.449 155.939 442.413 156.522Z" fill="white"/>
<path d="M502.979 57.958C507.83 55.2102 512.893 52.3509 516.888 48.4343C518.386 46.9656 516.501 44.5317 514.698 45.6001C509.995 48.3535 505.672 51.7791 501.026 54.5646C498.855 55.8882 500.783 59.191 502.979 57.958Z" fill="white"/>
<path d="M509.383 65.9329C518.209 65.266 527.045 64.0309 535.654 62.2389C537.643 61.8431 537.106 58.5335 535.003 58.7219C526.176 59.3889 517.312 60.5365 508.675 62.241C506.538 62.6262 507.131 66.1107 509.383 65.9329Z" fill="white"/>
<path d="M508.976 79.337C515.098 84.4449 525.602 84.6869 532.897 83.1386C535.131 82.6919 534.437 79.3808 532.25 79.3154C528.245 79.236 524.246 79.0056 520.293 78.263C516.89 77.6731 513.54 76.42 510.156 76.2249C508.645 76.2287 507.774 78.3592 508.976 79.337Z" fill="white"/>
<path d="M38.1013 76.1935C32.5146 75.0985 26.6855 73.9642 21.5413 71.463C19.6122 70.525 20.6323 67.5642 22.7238 68.0169C28.1698 69.1649 33.4706 71.0852 38.8715 72.2828C41.4029 72.8637 40.6269 76.6787 38.1013 76.1935Z" fill="white"/>
<path d="M34.8898 85.5186C26.3325 87.6209 17.58 89.187 8.85986 90.1543C6.85142 90.3948 6.2737 87.0882 8.32268 86.6152C16.8801 84.5129 25.6304 82.855 34.3485 81.7961C36.493 81.4996 37.0749 84.9896 34.8898 85.5186Z" fill="white"/>
<path d="M39.6146 98.5639C35.5297 105.331 25.6025 108.739 18.1205 109.455C15.8385 109.701 15.3654 106.305 17.4268 105.581C21.2161 104.293 24.9491 102.862 28.4613 100.952C31.5018 99.3559 34.2653 97.1369 37.4239 95.9259C38.8648 95.4728 40.4244 97.2597 39.6146 98.5639Z" fill="white"/>
</svg>
