<svg width="0" height="0" class="hidden">
  <symbol fill="none" xmlns="http://www.w3.org/2000/svg" viewBox="0 0 25 25" id="ic_accordion_arrow">
    <path d="M0.249798 6.71317L1.50221 5.46084C1.6691 5.2936 1.86134 5.21025 2.07867 5.21025C2.29548 5.21025 2.48764 5.2936 2.65452 5.46084L12.4999 15.3057L22.3448 5.4611C22.5117 5.29387 22.7039 5.21051 22.921 5.21051C23.1381 5.21051 23.3303 5.29387 23.4972 5.4611L24.7494 6.71352C24.9166 6.8804 25 7.07256 25 7.28972C25 7.5067 24.9164 7.69885 24.7494 7.86574L13.0761 19.5393C12.9092 19.7063 12.7169 19.7898 12.4999 19.7898C12.2828 19.7898 12.0909 19.7063 11.9241 19.5393L0.249798 7.86574C0.0829144 7.69877 0 7.50661 0 7.28972C0 7.07256 0.0829144 6.8804 0.249798 6.71317Z" fill="currentColor"></path>
  </symbol>
  <symbol fill="none" xmlns="http://www.w3.org/2000/svg" viewBox="0 0 28 16" id="ic_arrow_right">
    <path d="M1 7.00024C0.447715 7.00024 0 7.44796 0 8.00024C0 8.55253 0.447715 9.00024 1 9.00024V7.00024ZM27.7071 8.70735C28.0976 8.31683 28.0976 7.68366 27.7071 7.29314L21.3431 0.929176C20.9526 0.538652 20.3195 0.538652 19.9289 0.929176C19.5384 1.3197 19.5384 1.95287 19.9289 2.34339L25.5858 8.00024L19.9289 13.6571C19.5384 14.0476 19.5384 14.6808 19.9289 15.0713C20.3195 15.4618 20.9526 15.4618 21.3431 15.0713L27.7071 8.70735ZM1 9.00024H27V7.00024H1V9.00024Z" fill="currentColor"></path>
  </symbol>
  <symbol fill="none" xmlns="http://www.w3.org/2000/svg" viewBox="0 0 43 43" id="ic_close">
    <line x1="31.1123" y1="11.3141" x2="11.3133" y2="31.1131" stroke="currentColor" stroke-width="2" stroke-linecap="round"></line>
    <line x1="31.1122" y1="31.1123" x2="11.3132" y2="11.3133" stroke="currentColor" stroke-width="2" stroke-linecap="round"></line>
  </symbol>
  <symbol fill="none" xmlns="http://www.w3.org/2000/svg" viewBox="0 0 16 13" id="ic_email">
    <rect x="15" y="1" width="10.5714" height="14" rx="1" transform="rotate(90 15 1)" stroke="currentColor" stroke-width="2"></rect>
    <line y1="-1" x2="10.9821" y2="-1" transform="matrix(0.72846 0.685088 -0.72846 0.685088 0 1.71436)" stroke="currentColor" stroke-width="2"></line>
    <line y1="-1" x2="10.9821" y2="-1" transform="matrix(0.72846 -0.685088 0.72846 0.685088 8 9.23828)" stroke="currentColor" stroke-width="2"></line>
  </symbol>
  <symbol fill="none" xmlns="http://www.w3.org/2000/svg" viewBox="0 0 30 23" id="ic_get_price">
    <line x1="10" y1="0.5" x2="30" y2="0.5" stroke="currentColor"></line>
    <line y1="0.5" x2="5" y2="0.5" stroke="currentColor"></line>
    <line x1="10" y1="11.5" x2="30" y2="11.5" stroke="currentColor"></line>
    <line y1="11.5" x2="5" y2="11.5" stroke="currentColor"></line>
    <line x1="10" y1="22.5" x2="30" y2="22.5" stroke="currentColor"></line>
    <line y1="22.5" x2="5" y2="22.5" stroke="currentColor"></line>
  </symbol>
  <symbol fill="none" xmlns="http://www.w3.org/2000/svg" viewBox="0 0 14 18" id="ic_location">
    <path d="M13 7C13 8.06661 12.5425 9.63661 11.4472 11.4621C10.4642 13.1004 8.9984 14.8913 7 16.6294C5.0016 14.8913 3.53581 13.1004 2.55281 11.4621C1.45753 9.63661 1 8.06661 1 7C1 3.68629 3.68629 1 7 1C10.3137 1 13 3.68629 13 7Z" stroke="currentColor" stroke-width="2"></path>
    <circle cx="7" cy="7" r="2.5" stroke="currentColor" stroke-width="2"></circle>
  </symbol>
  <symbol fill="none" xmlns="http://www.w3.org/2000/svg" viewBox="0 0 21 21" id="ic_instagram">
    <path d="M5.3 0H15.2C16.7 0 18 0.6 18.9 1.6C19.9 2.6 20.5 3.9 20.5 5.3V15.2C20.5 16.7 19.9 18 18.9 18.9C17.9 19.9 16.6 20.5 15.2 20.5H5.3C3.8 20.5 2.5 19.9 1.6 18.9C0.6 17.9 0 16.6 0 15.2V5.3C0 3.8 0.6 2.5 1.6 1.6C2.5 0.6 3.8 0 5.3 0ZM15.2 4.1C15.9 4.1 16.6 4.7 16.6 5.5C16.6 6.2 16 6.9 15.2 6.9C14.5 6.9 13.8 6.3 13.8 5.5C13.8 4.7 14.4 4.1 15.2 4.1ZM10.3 5.3C11.7 5.3 12.9 5.9 13.8 6.8C14.7 7.7 15.3 8.9 15.3 10.3C15.3 11.7 14.7 12.9 13.8 13.8C12.9 14.7 11.7 15.3 10.3 15.3C8.9 15.3 7.7 14.7 6.8 13.8C5.9 12.9 5.3 11.7 5.3 10.3C5.3 8.9 5.9 7.7 6.8 6.8C7.6 5.8 8.9 5.3 10.3 5.3ZM11.7 8.8C11.3 8.4 10.8 8.2 10.3 8.2C9.8 8.2 9.3 8.4 8.9 8.8C8.5 9.2 8.3 9.7 8.3 10.2C8.3 10.7 8.5 11.2 8.9 11.6C9.3 12 9.8 12.2 10.3 12.2C10.8 12.2 11.3 12 11.7 11.6C12.1 11.2 12.3 10.7 12.3 10.2C12.2 9.7 12 9.2 11.7 8.8ZM15.2 3H5.3C4.7 3 4.1 3.3 3.7 3.7C3.3 4.1 3 4.7 3 5.3V15.2C3 15.8 3.3 16.4 3.7 16.8C4.1 17.2 4.7 17.5 5.3 17.5H15.2C15.8 17.5 16.4 17.2 16.8 16.8C17.2 16.4 17.5 15.8 17.5 15.2V5.3C17.5 4.7 17.2 4.1 16.8 3.7C16.4 3.3 15.8 3 15.2 3Z" fill="currentColor"></path>
  </symbol>
  <symbol fill="none" xmlns="http://www.w3.org/2000/svg" viewBox="0 0 18 12" id="ic_menu">
    <line x1="1" y1="1" x2="17" y2="1" stroke="currentColor" stroke-width="2" stroke-linecap="round"></line>
    <line x1="1" y1="11" x2="17" y2="11" stroke="currentColor" stroke-width="2" stroke-linecap="round"></line>
    <line x1="1" y1="6" x2="17" y2="6" stroke="currentColor" stroke-width="2" stroke-linecap="round"></line>
  </symbol>
  <symbol fill="none" xmlns="http://www.w3.org/2000/svg" viewBox="0 0 14 15" id="ic_menu_close">
    <line x1="1.41421" y1="1.41455" x2="12.7279" y2="12.7283" stroke="currentColor" stroke-width="2" stroke-linecap="round"></line>
    <line x1="12.7285" y1="1.41421" x2="1.41481" y2="12.7279" stroke="currentColor" stroke-width="2" stroke-linecap="round"></line>
  </symbol>
  <symbol fill="none" xmlns="http://www.w3.org/2000/svg" viewBox="0 0 18 18" id="ic_phone">
    <path d="M14.4317 8.86812C14.0901 8.52646 13.5364 8.52646 13.1948 8.86789L11.826 10.2368L7.76348 6.17425L9.1323 4.80533C9.47393 4.4639 9.47393 3.90995 9.1323 3.56852L5.82049 0.256245C5.65651 0.0920204 5.43399 0 5.20213 0C4.97027 0 4.74776 0.0920204 4.58377 0.256245L0.940122 3.8997C-0.31345 5.15382 -0.31345 7.19444 0.940578 8.44879L9.5516 17.0607C10.1574 17.6665 10.9651 18 11.826 18C12.6869 18 13.4945 17.6665 14.1004 17.0607L17.7438 13.4172C17.9078 13.2532 18 13.0309 18 12.7988C18 12.5667 17.9078 12.3444 17.7438 12.1804L14.4317 8.86812ZM12.8636 15.8236C12.5883 16.099 12.2198 16.2507 11.826 16.2507C11.4322 16.2507 11.0637 16.099 10.7883 15.8239L2.17752 7.21198C1.6054 6.63981 1.60517 5.70868 2.17707 5.13651L5.20213 2.11146L7.27699 4.18693L5.9084 5.55584C5.74419 5.71984 5.65218 5.94237 5.65218 6.17425C5.65218 6.40635 5.74419 6.62865 5.9084 6.79265L11.2076 12.092C11.549 12.4337 12.1027 12.4337 12.4443 12.0922L13.8132 10.7233L15.8885 12.7988L12.8636 15.8236Z" fill="currentColor"></path>
  </symbol>
  <symbol fill="none" xmlns="http://www.w3.org/2000/svg" viewBox="0 0 12 15" id="ic_phone2">
    <rect x="1" y="1" width="10" height="13" rx="1" stroke="currentColor" stroke-width="2"></rect>
    <rect x="5" y="9" width="2" height="2" fill="currentColor"></rect>
  </symbol>
  <symbol fill="none" xmlns="http://www.w3.org/2000/svg" viewBox="0 0 21 24" id="ic_video_play">
    <path d="M19.5 9.40192C21.5 10.5566 21.5 13.4434 19.5 14.5981L4.5 23.2583C2.5 24.413 -1.17888e-06 22.9697 -1.07793e-06 20.6603L-3.2083e-07 3.33974C-2.19883e-07 1.03034 2.5 -0.413032 4.5 0.741669L19.5 9.40192Z" fill="currentColor"></path>
  </symbol>
  <symbol fill="none" xmlns="http://www.w3.org/2000/svg" viewBox="0 0 7 12" id="ic_slider_arrow">
    <path d="M6 1L1.70711 5.29289C1.31658 5.68342 1.31658 6.31658 1.70711 6.70711L6 11" stroke="currentColor" stroke-width="2" stroke-linecap="round"></path>
  </symbol>
  <symbol fill="none" xmlns="http://www.w3.org/2000/svg" viewBox="0 0 22 14" id="ic_vkontakte">
    <path d="M21.8834 12.0599C21.8567 12.0025 21.8319 11.9549 21.8088 11.9168C21.4271 11.2293 20.6977 10.3855 19.621 9.38512L19.5983 9.36221L19.5869 9.35098L19.5754 9.33947H19.5638C19.0751 8.87364 18.7657 8.56042 18.6361 8.40006C18.399 8.09459 18.3459 7.78539 18.4755 7.47209C18.567 7.23538 18.9109 6.73549 19.5064 5.97173C19.8196 5.56696 20.0677 5.24256 20.2509 4.99815C21.572 3.2417 22.1448 2.11931 21.9691 1.63053L21.9009 1.51631C21.855 1.44755 21.7367 1.38464 21.546 1.32727C21.3548 1.27002 21.1105 1.26055 20.8127 1.2987L17.5138 1.32149C17.4604 1.30255 17.3841 1.30432 17.2847 1.32727C17.1854 1.35022 17.1357 1.36173 17.1357 1.36173L17.0783 1.39042L17.0327 1.42488C16.9945 1.44767 16.9525 1.48775 16.9067 1.54504C16.8611 1.60213 16.8229 1.66913 16.7924 1.74547C16.4333 2.66947 16.0249 3.52856 15.5666 4.32269C15.2841 4.79622 15.0246 5.20661 14.7876 5.55408C14.5509 5.90144 14.3524 6.15737 14.1921 6.32142C14.0317 6.48563 13.8868 6.61718 13.7568 6.71656C13.6269 6.81597 13.5277 6.85798 13.4591 6.84261C13.3903 6.82725 13.3255 6.812 13.2642 6.79675C13.1573 6.72799 13.0714 6.63447 13.0066 6.51612C12.9415 6.39776 12.8977 6.2488 12.8748 6.06934C12.852 5.88977 12.8385 5.73531 12.8347 5.60544C12.8311 5.47573 12.8328 5.29226 12.8405 5.05556C12.8484 4.81873 12.852 4.65849 12.852 4.57448C12.852 4.28425 12.8577 3.96927 12.869 3.62946C12.8806 3.28964 12.8899 3.0204 12.8977 2.82205C12.9055 2.6235 12.9091 2.41343 12.9091 2.19197C12.9091 1.97051 12.8957 1.79683 12.869 1.67077C12.8427 1.54488 12.8023 1.42267 12.7491 1.3042C12.6955 1.18584 12.6171 1.09429 12.5142 1.0293C12.4112 0.964383 12.283 0.912869 12.1305 0.874595C11.7258 0.783002 11.2103 0.733454 10.584 0.725751C9.16376 0.710505 8.25115 0.802219 7.84643 1.00077C7.68607 1.08466 7.54095 1.19928 7.41121 1.34428C7.27372 1.51234 7.25454 1.60405 7.3538 1.61914C7.81204 1.68778 8.13645 1.85199 8.32738 2.11161L8.39619 2.24918C8.44971 2.34844 8.50315 2.52416 8.55663 2.77611C8.61003 3.02806 8.64449 3.30678 8.65965 3.61209C8.69777 4.16963 8.69777 4.6469 8.65965 5.04392C8.62142 5.44111 8.58531 5.75031 8.55085 5.97177C8.51639 6.19323 8.46487 6.37269 8.39619 6.5101C8.32738 6.64755 8.2816 6.73156 8.25866 6.76205C8.23575 6.79254 8.21665 6.81176 8.20149 6.8193C8.10223 6.85734 7.999 6.87671 7.89216 6.87671C7.78516 6.87671 7.65542 6.82319 7.50272 6.71623C7.35006 6.60927 7.19163 6.46236 7.02742 6.27524C6.86321 6.08808 6.67802 5.82654 6.47176 5.49058C6.26567 5.15461 6.05183 4.75755 5.83037 4.29938L5.64714 3.96711C5.5326 3.75335 5.37613 3.4421 5.17758 3.03364C4.9789 2.62502 4.8033 2.22976 4.65064 1.84794C4.58962 1.68758 4.49795 1.5655 4.37578 1.48149L4.31845 1.44702C4.28034 1.41653 4.21916 1.38416 4.13523 1.34965C4.05117 1.31519 3.96347 1.29048 3.87176 1.27527L0.733229 1.29806C0.412512 1.29806 0.194902 1.37072 0.0803198 1.51583L0.0344629 1.58447C0.0115545 1.62271 0 1.68377 0 1.76782C0 1.85183 0.0229084 1.95494 0.0687653 2.07702C0.526933 3.15384 1.02518 4.19234 1.56351 5.19269C2.10184 6.19303 2.56963 6.99884 2.96662 7.60938C3.36368 8.22036 3.76841 8.79701 4.1808 9.33902C4.59319 9.88124 4.86617 10.2287 4.99973 10.3814C5.13345 10.5343 5.23848 10.6487 5.31483 10.725L5.60124 10.9999C5.78451 11.1832 6.05363 11.4027 6.40873 11.6585C6.76391 11.9144 7.15713 12.1663 7.58858 12.4147C8.0201 12.6627 8.52212 12.8651 9.09491 13.0216C9.66762 13.1782 10.225 13.2411 10.7673 13.2108H12.0846C12.3517 13.1877 12.5541 13.1037 12.6917 12.9587L12.7373 12.9013C12.7679 12.8557 12.7966 12.7849 12.8231 12.6896C12.8499 12.5942 12.8632 12.489 12.8632 12.3746C12.8554 12.0463 12.8804 11.7505 12.9375 11.487C12.9946 11.2237 13.0597 11.0251 13.1324 10.8914C13.2052 10.7578 13.2873 10.6451 13.3786 10.5537C13.4702 10.4621 13.5354 10.4066 13.5737 10.3875C13.6117 10.3683 13.6421 10.3553 13.665 10.3474C13.8483 10.2864 14.0639 10.3455 14.3124 10.5251C14.5606 10.7046 14.7934 10.9262 15.0112 11.1895C15.2288 11.4531 15.4903 11.7488 15.7957 12.0771C16.1013 12.4055 16.3685 12.6497 16.5975 12.8103L16.8265 12.9477C16.9795 13.0394 17.178 13.1234 17.4224 13.1998C17.6664 13.2761 17.8801 13.2952 18.0637 13.257L20.9959 13.2113C21.2859 13.2113 21.5116 13.1633 21.6717 13.068C21.8321 12.9726 21.9274 12.8674 21.9581 12.753C21.9888 12.6385 21.9904 12.5086 21.9639 12.3634C21.9368 12.2185 21.91 12.1172 21.8834 12.0599Z" fill="currentColor"></path>
  </symbol>
  <symbol fill="none" xmlns="http://www.w3.org/2000/svg" viewBox="0 0 30 30" id="ic_whatsapp">
    <path fill-rule="evenodd" clip-rule="evenodd" d="M5.37612 23.79L4.60324 27.3968L8.86358 26.4838L9.47415 26.771C11.1487 27.5587 13.02 28 15 28C22.1797 28 28 22.1797 28 15C28 7.8203 22.1797 2 15 2C7.8203 2 2 7.8203 2 15C2 18.043 3.04308 20.8369 4.79264 23.0514L5.37612 23.79ZM2 30L3.2233 24.2913C1.2048 21.7363 0 18.5089 0 15C0 6.71573 6.71573 0 15 0C23.2843 0 30 6.71573 30 15C30 23.2843 23.2843 30 15 30C12.7197 30 10.5582 29.4912 8.62286 28.5808L2 30Z" fill="currentColor"></path>
    <path d="M20.4317 14.8681C20.0901 14.5265 19.5364 14.5265 19.1948 14.8679L17.826 16.2368L13.7635 12.1742L15.1323 10.8053C15.4739 10.4639 15.4739 9.90995 15.1323 9.56852L11.8205 6.25624C11.6565 6.09202 11.434 6 11.2021 6C10.9703 6 10.7478 6.09202 10.5838 6.25624L6.94012 9.8997C5.68655 11.1538 5.68655 13.1944 6.94058 14.4488L15.5516 23.0607C16.1574 23.6665 16.9651 24 17.826 24C18.6869 24 19.4945 23.6665 20.1004 23.0607L23.7438 19.4172C23.9078 19.2532 24 19.0309 24 18.7988C24 18.5667 23.9078 18.3444 23.7438 18.1804L20.4317 14.8681ZM18.8636 21.8236C18.5883 22.099 18.2198 22.2507 17.826 22.2507C17.4322 22.2507 17.0637 22.099 16.7883 21.8239L8.17752 13.212C7.6054 12.6398 7.60517 11.7087 8.17707 11.1365L11.2021 8.11146L13.277 10.1869L11.9084 11.5558C11.7442 11.7198 11.6522 11.9424 11.6522 12.1742C11.6522 12.4063 11.7442 12.6287 11.9084 12.7927L17.2076 18.092C17.549 18.4337 18.1027 18.4337 18.4443 18.0922L19.8132 16.7233L21.8885 18.7988L18.8636 21.8236Z" fill="currentColor"></path>
  </symbol>
</svg>